agave-b.ufo
<glyph name="exclam" format="2">
  <advance width="1024" height="1024"/>
  <unicode hex="0021"/>
  <outline>
    <contour>
      <point x="384" y="1280" type="line"/>
      <point x="640" y="1280" type="line"/>
      <point x="640" y="896" type="line"/>
      <point x="614" y="512" type="line"/>
      <point x="410" y="512" type="line"/>
      <point x="384" y="896" type="line"/>
    </contour>
    <contour>
      <point x="341" y="256" type="line"/>
      <point x="683" y="256" type="line"/>
      <point x="683" y="0" type="line"/>
      <point x="341" y="0" type="line"/>
    </contour>
  </outline>
</glyph>
<glyph name="quotedbl" format="2">
  <advance width="1024" height="1024"/>
  <unicode hex="0022"/>
  <outline>
    <contour>
      <point x="163" y="1280" type="line"/>
      <point x="419" y="1280" type="line"/>
      <point x="384" y="768" type="line"/>
      <point x="198" y="768" type="line"/>
    </contour>
    <contour>
      <point x="605" y="1280" type="line"/>
      <point x="861" y="1280" type="line"/>
      <point x="826" y="768" type="line"/>
      <point x="640" y="768" type="line"/>
    </contour>
  </outline>
</glyph>
<glyph name="numbersign" format="2">
  <advance width="1024" height="1024"/>
  <unicode hex="0023"/>
  <outline>
    <contour>
      <point x="206" y="1280" type="line"/>
      <point x="410" y="1280" type="line"/>
      <point x="410" y="977" type="line"/>
      <point x="614" y="977" type="line"/>
      <point x="614" y="1280" type="line"/>
      <point x="818" y="1280" type="line"/>
      <point x="818" y="977" type="line"/>
      <point x="960" y="977" type="line"/>
      <point x="960" y="791" type="line"/>
      <point x="818" y="791" type="line"/>
      <point x="818" y="489" type="line"/>
      <point x="960" y="489" type="line"/>
      <point x="960" y="303" type="line"/>
      <point x="818" y="303" type="line"/>
      <point x="818" y="0" type="line"/>
      <point x="614" y="0" type="line"/>
      <point x="614" y="303" type="line"/>
      <point x="410" y="303" type="line"/>
      <point x="410" y="0" type="line"/>
      <point x="206" y="0" type="line"/>
      <point x="206" y="303" type="line"/>
      <point x="64" y="303" type="line"/>
      <point x="64" y="489" type="line"/>
      <point x="206" y="489" type="line"/>
      <point x="206" y="791" type="line"/>
      <point x="64" y="791" type="line"/>
      <point x="64" y="977" type="line"/>
      <point x="206" y="977" type="line"/>
    </contour>
    <contour>
      <point x="614" y="791" type="line"/>
      <point x="410" y="791" type="line"/>
      <point x="410" y="489" type="line"/>
      <point x="614" y="489" type="line"/>
    </contour>
  </outline>
</glyph>
<glyph name="dollar" format="2">
  <advance width="1024" height="1024"/>
  <unicode hex="0024"/>
  <outline>
    <contour>
      <point x="384" y="1437" type="line"/>
      <point x="640" y="1437" type="line"/>
      <point x="640" y="1218" type="line"/>
      <point x="683" y="1218" type="line" smooth="yes"/>
      <point x="742" y="1218"/>
      <point x="848" y="1210"/>
      <point x="872" y="1206" type="qcurve" smooth="yes"/>
      <point x="896" y="1202" type="line"/>
      <point x="896" y="1024" type="line"/>
      <point x="640" y="1024" type="line"/>
      <point x="640" y="701" type="line"/>
      <point x="693" y="686"/>
      <point x="769" y="657"/>
      <point x="855" y="605"/>
      <point x="908" y="543"/>
      <point x="944" y="446"/>
      <point x="944" y="385" type="qcurve" smooth="yes"/>
      <point x="944" y="263"/>
      <point x="789" y="119"/>
      <point x="640" y="88" type="qcurve"/>
      <point x="640" y="-157" type="line"/>
      <point x="384" y="-157" type="line"/>
      <point x="384" y="62" type="line"/>
      <point x="333" y="62" type="line" smooth="yes"/>
      <point x="268" y="62"/>
      <point x="150" y="70"/>
      <point x="123" y="74" type="qcurve" smooth="yes"/>
      <point x="96" y="78" type="line"/>
      <point x="96" y="256" type="line"/>
      <point x="384" y="256" type="line"/>
      <point x="384" y="588" type="line"/>
      <point x="324" y="607"/>
      <point x="238" y="649"/>
      <point x="155" y="719"/>
      <point x="112" y="825"/>
      <point x="112" y="895" type="qcurve" smooth="yes"/>
      <point x="112" y="1124"/>
      <point x="384" y="1189" type="qcurve"/>
    </contour>
    <contour>
      <point x="470" y="1007" type="line"/>
      <point x="339" y="978"/>
      <point x="339" y="895" type="qcurve" smooth="yes"/>
      <point x="339" y="841"/>
      <point x="407" y="774"/>
      <point x="470" y="751" type="qcurve"/>
    </contour>
    <contour>
      <point x="554" y="540" type="qcurve"/>
      <point x="554" y="270" type="line"/>
      <point x="717" y="298"/>
      <point x="717" y="385" type="qcurve" smooth="yes"/>
      <point x="717" y="445"/>
      <point x="633" y="515"/>
    </contour>
  </outline>
</glyph>
<glyph name="percent" format="2">
  <advance width="1024" height="1024"/>
  <unicode hex="0025"/>
  <outline>
    <contour>
      <point x="96" y="1280" type="line"/>
      <point x="384" y="1280" type="line"/>
      <point x="384" y="960" type="line"/>
      <point x="96" y="960" type="line"/>
    </contour>
    <contour>
      <point x="960" y="1280" type="line"/>
      <point x="318" y="0" type="line"/>
      <point x="64" y="0" type="line"/>
      <point x="706" y="1280" type="line"/>
    </contour>
    <contour>
      <point x="640" y="320" type="line"/>
      <point x="928" y="320" type="line"/>
      <point x="928" y="0" type="line"/>
      <point x="640" y="0" type="line"/>
    </contour>
  </outline>
</glyph>
<glyph name="ampersand" format="2">
  <advance width="1024" height="1024"/>
  <unicode hex="0026"/>
  <outline>
    <contour>
      <point x="525" y="1284" type="qcurve" smooth="yes"/>
      <point x="554" y="1284"/>
      <point x="606" y="1280"/>
      <point x="618" y="1278" type="qcurve" smooth="yes"/>
      <point x="630" y="1276" type="line"/>
      <point x="630" y="1094" type="line"/>
      <point x="525" y="1094" type="line" smooth="yes"/>
      <point x="442" y="1094"/>
      <point x="355" y="1019"/>
      <point x="355" y="931" type="qcurve" smooth="yes"/>
      <point x="355" y="855"/>
      <point x="400" y="768"/>
      <point x="438" y="768" type="qcurve" smooth="yes"/>
      <point x="573" y="768" type="line"/>
      <point x="573" y="969" type="line"/>
      <point x="800" y="969" type="line"/>
      <point x="800" y="768" type="line"/>
      <point x="960" y="768" type="line"/>
      <point x="960" y="582" type="line"/>
      <point x="800" y="582" type="line"/>
      <point x="800" y="332" type="line" smooth="yes"/>
      <point x="800" y="249"/>
      <point x="881" y="178"/>
      <point x="960" y="178" type="qcurve"/>
      <point x="960" y="-8" type="line"/>
      <point x="689" y="-8"/>
      <point x="610" y="148" type="qcurve"/>
      <point x="512" y="-8" type="line"/>
      <point x="292" y="-8"/>
      <point x="64" y="173"/>
      <point x="64" y="384" type="qcurve" smooth="yes"/>
      <point x="64" y="455"/>
      <point x="95" y="577"/>
      <point x="140" y="650"/>
      <point x="184" y="702"/>
      <point x="199.5" y="712" type="qcurve" smooth="yes"/>
      <point x="215" y="722" type="line"/>
      <point x="211" y="724"/>
      <point x="200" y="733"/>
      <point x="170" y="768"/>
      <point x="147" y="811"/>
      <point x="128" y="887"/>
      <point x="128" y="931" type="qcurve" smooth="yes"/>
      <point x="128" y="1121"/>
      <point x="331" y="1284"/>
    </contour>
    <contour>
      <point x="399" y="582" type="line" smooth="yes"/>
      <point x="349" y="582"/>
      <point x="291" y="476"/>
      <point x="291" y="292"/>
      <point x="409" y="186"/>
      <point x="512" y="186" type="qcurve" smooth="yes"/>
      <point x="594" y="186" type="line"/>
      <point x="573" y="247"/>
      <point x="573" y="332" type="qcurve" smooth="yes"/>
      <point x="573" y="582" type="line"/>
    </contour>
  </outline>
</glyph>
<glyph name="quotesingle" format="2">
  <advance width="1024" height="1024"/>
  <unicode hex="0027"/>
  <outline>
    <contour>
      <point x="384" y="1280" type="line"/>
      <point x="640" y="1280" type="line"/>
      <point x="605" y="768" type="line"/>
      <point x="419" y="768" type="line"/>
    </contour>
  </outline>
</glyph>
<glyph name="parenleft" format="2">
  <advance width="1024" height="1024"/>
  <unicode hex="0028"/>
  <outline>
    <contour>
      <point x="627" y="1437" type="line"/>
      <point x="854" y="1437" type="line"/>
      <point x="847" y="1432"/>
      <point x="821" y="1411"/>
      <point x="746" y="1336"/>
      <point x="679" y="1248"/>
      <point x="596" y="1101"/>
      <point x="537" y="939"/>
      <point x="496" y="713"/>
      <point x="496" y="469"/>
      <point x="535" y="244"/>
      <point x="599" y="79"/>
      <point x="675" y="-64"/>
      <point x="751" y="-158"/>
      <point x="815" y="-226"/>
      <point x="834.5" y="-241" type="qcurve" smooth="yes"/>
      <point x="854" y="-256" type="line"/>
      <point x="627" y="-256" type="line"/>
      <point x="619" y="-251"/>
      <point x="591" y="-230"/>
      <point x="511" y="-155"/>
      <point x="438" y="-67"/>
      <point x="348" y="80"/>
      <point x="284" y="243"/>
      <point x="240" y="469"/>
      <point x="240" y="713"/>
      <point x="283" y="938"/>
      <point x="351" y="1103"/>
      <point x="434" y="1246"/>
      <point x="516" y="1340"/>
      <point x="584" y="1407"/>
      <point x="605.5" y="1422" type="qcurve" smooth="yes"/>
    </contour>
  </outline>
</glyph>
<glyph name="parenright" format="2">
  <advance width="1024" height="1024"/>
  <unicode hex="0029"/>
  <outline>
    <contour>
      <point x="397" y="1437" type="line"/>
      <point x="405" y="1432"/>
      <point x="433" y="1411"/>
      <point x="513" y="1336"/>
      <point x="586" y="1248"/>
      <point x="676" y="1101"/>
      <point x="740" y="939"/>
      <point x="784" y="713"/>
      <point x="784" y="469"/>
      <point x="741" y="244"/>
      <point x="673" y="79"/>
      <point x="590" y="-64"/>
      <point x="508" y="-158"/>
      <point x="440" y="-226"/>
      <point x="418.5" y="-241" type="qcurve" smooth="yes"/>
      <point x="397" y="-256" type="line"/>
      <point x="170" y="-256" type="line"/>
      <point x="177" y="-251"/>
      <point x="203" y="-230"/>
      <point x="278" y="-155"/>
      <point x="345" y="-67"/>
      <point x="428" y="80"/>
      <point x="487" y="243"/>
      <point x="528" y="469"/>
      <point x="528" y="713"/>
      <point x="489" y="938"/>
      <point x="425" y="1103"/>
      <point x="349" y="1246"/>
      <point x="273" y="1340"/>
      <point x="209" y="1407"/>
      <point x="189.5" y="1422" type="qcurve" smooth="yes"/>
      <point x="170" y="1437" type="line"/>
    </contour>
  </outline>
</glyph>
<glyph name="asterisk" format="2">
  <advance width="1024" height="1024"/>
  <unicode hex="002A"/>
  <outline>
    <contour>
      <point x="384" y="1280" type="line"/>
      <point x="640" y="1280" type="line"/>
      <point x="581" y="929" type="line"/>
      <point x="898" y="1093" type="line"/>
      <point x="977" y="850" type="line"/>
      <point x="625" y="797" type="line"/>
      <point x="879" y="547" type="line"/>
      <point x="673" y="397" type="line"/>
      <point x="512" y="717" type="line"/>
      <point x="351" y="397" type="line"/>
      <point x="145" y="547" type="line"/>
      <point x="399" y="797" type="line"/>
      <point x="47" y="850" type="line"/>
      <point x="126" y="1093" type="line"/>
      <point x="443" y="929" type="line"/>
    </contour>
  </outline>
</glyph>
<glyph name="plus" format="2">
  <advance width="1024" height="1024"/>
  <unicode hex="002B"/>
  <outline>
    <contour>
      <point x="398" y="1088" type="line"/>
      <point x="626" y="1088" type="line"/>
      <point x="626" y="742" type="line"/>
      <point x="960" y="742" type="line"/>
      <point x="960" y="538" type="line"/>
      <point x="626" y="538" type="line"/>
      <point x="626" y="192" type="line"/>
      <point x="398" y="192" type="line"/>
      <point x="398" y="538" type="line"/>
      <point x="64" y="538" type="line"/>
      <point x="64" y="742" type="line"/>
      <point x="398" y="742" type="line"/>
    </contour>
  </outline>
</glyph>
<glyph name="comma" format="2">
  <advance width="1024" height="1024"/>
  <unicode hex="002C"/>
  <outline>
    <contour>
      <point x="341" y="416" type="line"/>
      <point x="683" y="416" type="line"/>
      <point x="683" y="160" type="line" smooth="yes"/>
      <point x="683" y="155"/>
      <point x="681" y="137"/>
      <point x="662" y="79"/>
      <point x="630" y="16"/>
      <point x="560" y="-80"/>
      <point x="512" y="-128" type="qcurve" smooth="yes"/>
      <point x="384" y="-256" type="line"/>
      <point x="256" y="-140" type="line"/>
      <point x="384" y="-12" type="line" smooth="yes"/>
      <point x="441" y="45"/>
      <point x="505" y="131"/>
      <point x="508.5" y="145.5" type="qcurve" smooth="yes"/>
      <point x="512" y="160" type="line"/>
      <point x="341" y="160" type="line"/>
    </contour>
  </outline>
</glyph>
<glyph name="slash" format="2">
  <advance width="1024" height="1024"/>
  <unicode hex="002F"/>
  <outline>
    <contour>
      <point x="896" y="1437" type="line"/>
      <point x="395" y="-256" type="line"/>
      <point x="128" y="-256" type="line"/>
      <point x="629" y="1437" type="line"/>
    </contour>
  </outline>
</glyph>
<glyph name="zero" format="2">
  <advance width="1024" height="1024"/>
  <unicode hex="0030"/>
  <outline>
    <contour>
      <point x="712" y="1296"/>
      <point x="944" y="944"/>
      <point x="944" y="336"/>
      <point x="712" y="-16"/>
      <point x="312" y="-16"/>
      <point x="80" y="336"/>
      <point x="80" y="944"/>
      <point x="312" y="1296"/>
    </contour>
    <contour>
      <point x="430" y="1110"/>
      <point x="336" y="858"/>
      <point x="336" y="422"/>
      <point x="430" y="170"/>
      <point x="594" y="170"/>
      <point x="688" y="422"/>
      <point x="688" y="858"/>
      <point x="594" y="1110"/>
    </contour>
    <contour>
      <point x="419" y="768" type="line"/>
      <point x="605" y="768" type="line"/>
      <point x="605" y="512" type="line"/>
      <point x="419" y="512" type="line"/>
    </contour>
  </outline>
</glyph>
<glyph name="one" format="2">
  <advance width="1024" height="1024"/>
  <unicode hex="0031"/>
  <outline>
    <contour>
      <point x="475" y="1280" type="line"/>
      <point x="731" y="1280" type="line"/>
      <point x="731" y="0" type="line"/>
      <point x="475" y="0" type="line"/>
      <point x="475" y="991" type="line"/>
      <point x="267" y="783" type="line"/>
      <point x="123" y="928" type="line"/>
    </contour>
  </outline>
</glyph>
<glyph name="two" format="2">
  <advance width="1024" height="1024"/>
  <unicode hex="0032"/>
  <outline>
    <contour>
      <point x="512" y="1296" type="qcurve" smooth="yes"/>
      <point x="682" y="1296"/>
      <point x="880" y="1099"/>
      <point x="880" y="930" type="qcurve" smooth="yes"/>
      <point x="880" y="894.402"/>
      <point x="868.237" y="828.525"/>
      <point x="835.992" y="755.645"/>
      <point x="807.645" y="701.074"/>
      <point x="744.748" y="612.349"/>
      <point x="703.392" y="557.597"/>
      <point x="659.396" y="500.908" type="qcurve" smooth="yes"/>
      <point x="415" y="186" type="line"/>
      <point x="896" y="186" type="line"/>
      <point x="896" y="0" type="line"/>
      <point x="128" y="0" type="line"/>
      <point x="128" y="186" type="line"/>
      <point x="480" y="640" type="line" smooth="yes"/>
      <point x="536" y="712"/>
      <point x="584" y="781"/>
      <point x="624" y="880"/>
      <point x="624" y="930" type="qcurve" smooth="yes"/>
      <point x="624" y="1013"/>
      <point x="564" y="1110"/>
      <point x="512" y="1110" type="qcurve" smooth="yes"/>
      <point x="453" y="1110"/>
      <point x="384" y="1013"/>
      <point x="384" y="930" type="qcurve"/>
      <point x="128" y="930" type="line"/>
      <point x="128" y="1099"/>
      <point x="334" y="1296"/>
    </contour>
  </outline>
</glyph>
<glyph name="three" format="2">
  <advance width="1024" height="1024"/>
  <unicode hex="0033"/>
  <outline>
    <contour>
      <point x="337" y="1288" type="qcurve" smooth="yes"/>
      <point x="467" y="1288"/>
      <point x="661" y="1253"/>
      <point x="806" y="1175"/>
      <point x="880" y="1041"/>
      <point x="880" y="946" type="qcurve" smooth="yes"/>
      <point x="880" y="890"/>
      <point x="847" y="798"/>
      <point x="801" y="746"/>
      <point x="755" y="710"/>
      <point x="738.5" y="703.5" type="qcurve" smooth="yes"/>
      <point x="722" y="697" type="line"/>
      <point x="730" y="694"/>
      <point x="755" y="683"/>
      <point x="821" y="634"/>
      <point x="871" y="571"/>
      <point x="912" y="454"/>
      <point x="912" y="384" type="qcurve" smooth="yes"/>
      <point x="912" y="173"/>
      <point x="615" y="-8"/>
      <point x="330" y="-8" type="qcurve" smooth="yes"/>
      <point x="274" y="-8"/>
      <point x="173" y="-0"/>
      <point x="150.5" y="4" type="qcurve" smooth="yes"/>
      <point x="128" y="8" type="line"/>
      <point x="128" y="186" type="line"/>
      <point x="330" y="186" type="line" smooth="yes"/>
      <point x="490" y="186"/>
      <point x="656" y="277"/>
      <point x="656" y="384" type="qcurve" smooth="yes"/>
      <point x="656" y="476"/>
      <point x="524" y="582"/>
      <point x="409" y="582" type="qcurve" smooth="yes"/>
      <point x="256" y="582" type="line"/>
      <point x="256" y="768" type="line"/>
      <point x="397" y="768" type="line" smooth="yes"/>
      <point x="502" y="768"/>
      <point x="624" y="864"/>
      <point x="624" y="946" type="qcurve" smooth="yes"/>
      <point x="624" y="1026"/>
      <point x="477" y="1094"/>
      <point x="337" y="1094" type="qcurve" smooth="yes"/>
      <point x="160" y="1094" type="line"/>
      <point x="160" y="1272" type="line"/>
      <point x="228" y="1288"/>
    </contour>
  </outline>
</glyph>
<glyph name="four" format="2">
  <advance width="1024" height="1024"/>
  <unicode hex="0034"/>
  <outline>
    <contour>
      <point x="573" y="1280" type="line"/>
      <point x="800" y="1280" type="line"/>
      <point x="800" y="442" type="line"/>
      <point x="960" y="442" type="line"/>
      <point x="960" y="256" type="line"/>
      <point x="800" y="256" type="line"/>
      <point x="800" y="0" type="line"/>
      <point x="573" y="0" type="line"/>
      <point x="573" y="256" type="line"/>
      <point x="64" y="256" type="line"/>
      <point x="64" y="442" type="line"/>
    </contour>
    <contour>
      <point x="573" y="887" type="line"/>
      <point x="303" y="442" type="line"/>
      <point x="573" y="442" type="line"/>
    </contour>
  </outline>
</glyph>
<glyph name="five" format="2">
  <advance width="1024" height="1024"/>
  <unicode hex="0035"/>
  <outline>
    <contour>
      <point x="416" y="1094" type="line"/>
      <point x="416" y="826" type="line"/>
      <point x="512" y="826" type="line" smooth="yes"/>
      <point x="697" y="826"/>
      <point x="912" y="633"/>
      <point x="912" y="467" type="qcurve" smooth="yes"/>
      <point x="912" y="336"/>
      <point x="833" y="150"/>
      <point x="678" y="41"/>
      <point x="470" y="-8"/>
      <point x="330" y="-8" type="qcurve" smooth="yes"/>
      <point x="266" y="-8"/>
      <point x="165" y="-0"/>
      <point x="146.5" y="4" type="qcurve" smooth="yes"/>
      <point x="128" y="8" type="line"/>
      <point x="128" y="186" type="line"/>
      <point x="330" y="186" type="line" smooth="yes"/>
      <point x="490" y="186"/>
      <point x="656" y="316"/>
      <point x="656" y="467" type="qcurve" smooth="yes"/>
      <point x="656" y="547"/>
      <point x="579" y="640"/>
      <point x="512" y="640" type="qcurve" smooth="yes"/>
      <point x="160" y="640" type="line"/>
      <point x="160" y="1280" type="line"/>
      <point x="864" y="1280" type="line"/>
      <point x="864" y="1094" type="line"/>
    </contour>
  </outline>
</glyph>
<glyph name="six" format="2">
  <advance width="1024" height="1024"/>
  <unicode hex="0036"/>
  <outline>
    <contour>
      <point x="327" y="-16"/>
      <point x="112" y="199"/>
      <point x="112" y="384" type="qcurve" smooth="yes"/>
      <point x="112" y="545.186"/>
      <point x="153.793" y="631.344" type="qcurve" smooth="yes"/>
      <point x="468" y="1280" type="line"/>
      <point x="752" y="1280" type="line"/>
      <point x="512" y="784" type="line"/>
      <point x="696" y="784"/>
      <point x="912" y="566"/>
      <point x="912" y="384" type="qcurve" smooth="yes"/>
      <point x="912" y="199"/>
      <point x="697" y="-16"/>
    </contour>
    <contour>
      <point x="592" y="170"/>
      <point x="685" y="285"/>
      <point x="685" y="483"/>
      <point x="592" y="598"/>
      <point x="512" y="598" type="qcurve" smooth="yes"/>
      <point x="414" y="598"/>
      <point x="339" y="505"/>
      <point x="339" y="384" type="qcurve" smooth="yes"/>
      <point x="339" y="285"/>
      <point x="432" y="170"/>
    </contour>
  </outline>
</glyph>
<glyph name="eight" format="2">
  <advance width="1024" height="1024"/>
  <unicode hex="0038"/>
  <outline>
    <contour>
      <point x="112" y="952" type="qcurve" smooth="yes"/>
      <point x="112" y="1112"/>
      <point x="327" y="1296"/>
      <point x="697" y="1296"/>
      <point x="912" y="1112"/>
      <point x="912" y="952" type="qcurve" smooth="yes"/>
      <point x="912" y="908"/>
      <point x="871" y="823"/>
      <point x="812" y="764"/>
      <point x="753" y="719"/>
      <point x="732.5" y="708" type="qcurve" smooth="yes"/>
      <point x="712" y="697" type="line"/>
      <point x="721" y="692"/>
      <point x="753" y="673"/>
      <point x="833" y="608"/>
      <point x="894" y="537"/>
      <point x="944" y="427"/>
      <point x="944" y="371" type="qcurve" smooth="yes"/>
      <point x="944" y="192"/>
      <point x="712" y="-16"/>
      <point x="312" y="-16"/>
      <point x="80" y="192"/>
      <point x="80" y="371" type="qcurve" smooth="yes"/>
      <point x="80" y="427"/>
      <point x="128" y="536"/>
      <point x="196" y="610"/>
      <point x="264" y="669"/>
      <point x="288" y="683" type="qcurve" smooth="yes"/>
      <point x="312" y="697" type="line"/>
      <point x="304" y="701"/>
      <point x="277" y="716"/>
      <point x="208" y="766"/>
      <point x="155" y="822"/>
      <point x="112" y="908"/>
    </contour>
    <contour>
      <point x="339" y="952" type="qcurve" smooth="yes"/>
      <point x="339" y="920"/>
      <point x="375" y="859"/>
      <point x="425" y="817"/>
      <point x="476" y="784"/>
      <point x="494" y="776" type="qcurve" smooth="yes"/>
      <point x="512" y="768" type="line"/>
      <point x="519" y="771"/>
      <point x="542" y="782"/>
      <point x="602" y="818"/>
      <point x="648" y="858"/>
      <point x="685" y="920"/>
      <point x="685" y="952" type="qcurve" smooth="yes"/>
      <point x="685" y="1025"/>
      <point x="592" y="1110"/>
      <point x="432" y="1110"/>
      <point x="339" y="1025"/>
    </contour>
    <contour>
      <point x="512" y="582" type="line"/>
      <point x="505" y="579"/>
      <point x="481" y="566"/>
      <point x="420" y="524"/>
      <point x="374" y="478"/>
      <point x="336" y="407"/>
      <point x="336" y="371" type="qcurve" smooth="yes"/>
      <point x="336" y="278"/>
      <point x="430" y="170"/>
      <point x="594" y="170"/>
      <point x="688" y="278"/>
      <point x="688" y="371" type="qcurve" smooth="yes"/>
      <point x="688" y="407"/>
      <point x="652" y="478"/>
      <point x="600" y="526"/>
      <point x="548" y="564"/>
      <point x="530" y="573" type="qcurve" smooth="yes"/>
    </contour>
  </outline>
</glyph>
<glyph name="nine" format="2">
  <advance width="1024" height="1024"/>
  <unicode hex="0039"/>
  <outline>
    <contour>
      <point x="697" y="1296"/>
      <point x="912" y="1081"/>
      <point x="912" y="896" type="qcurve" smooth="yes"/>
      <point x="912" y="734.814"/>
      <point x="870.207" y="648.656" type="qcurve" smooth="yes"/>
      <point x="556" y="0" type="line"/>
      <point x="272" y="0" type="line"/>
      <point x="512" y="496" type="line"/>
      <point x="328" y="496"/>
      <point x="112" y="714"/>
      <point x="112" y="896" type="qcurve" smooth="yes"/>
      <point x="112" y="1081"/>
      <point x="327" y="1296"/>
    </contour>
    <contour>
      <point x="432" y="1110"/>
      <point x="339" y="995"/>
      <point x="339" y="797"/>
      <point x="432" y="682"/>
      <point x="512" y="682" type="qcurve" smooth="yes"/>
      <point x="610" y="682"/>
      <point x="685" y="775"/>
      <point x="685" y="896" type="qcurve" smooth="yes"/>
      <point x="685" y="995"/>
      <point x="592" y="1110"/>
    </contour>
  </outline>
</glyph>
<glyph name="semicolon" format="2">
  <advance width="1024" height="1024"/>
  <unicode hex="003B"/>
  <outline>
    <contour>
      <point x="341" y="1184" type="line"/>
      <point x="683" y="1184" type="line"/>
      <point x="683" y="864" type="line"/>
      <point x="341" y="864" type="line"/>
    </contour>
    <contour>
      <point x="341" y="416" type="line"/>
      <point x="683" y="416" type="line"/>
      <point x="683" y="159.994" type="line" smooth="yes"/>
      <point x="682.987" y="155.226"/>
      <point x="680.959" y="137.418"/>
      <point x="662.475" y="78.595"/>
      <point x="630.338" y="15.6271"/>
      <point x="559.881" y="-80.1186"/>
      <point x="512" y="-128" type="qcurve" smooth="yes"/>
      <point x="384" y="-256" type="line"/>
      <point x="256" y="-140" type="line"/>
      <point x="384" y="-12" type="line" smooth="yes"/>
      <point x="441" y="45"/>
      <point x="505" y="131"/>
      <point x="508.5" y="145.5" type="qcurve" smooth="yes"/>
      <point x="512" y="160" type="line"/>
      <point x="341" y="160" type="line"/>
    </contour>
  </outline>
</glyph>
<glyph name="less" format="2">
  <advance width="1024" height="1024"/>
  <unicode hex="003C"/>
  <outline>
    <contour>
      <point x="928" y="1024" type="line"/>
      <point x="395" y="640" type="line"/>
      <point x="928" y="256" type="line"/>
      <point x="795" y="72" type="line"/>
      <point x="96" y="576" type="line"/>
      <point x="96" y="704" type="line"/>
      <point x="795" y="1208" type="line"/>
    </contour>
  </outline>
</glyph>
<glyph name="equal" format="2">
  <advance width="1024" height="1024"/>
  <unicode hex="003D"/>
  <outline>
    <contour>
      <point x="96" y="946" type="line"/>
      <point x="928" y="946" type="line"/>
      <point x="928" y="742" type="line"/>
      <point x="96" y="742" type="line"/>
    </contour>
    <contour>
      <point x="96" y="538" type="line"/>
      <point x="928" y="538" type="line"/>
      <point x="928" y="334" type="line"/>
      <point x="96" y="334" type="line"/>
    </contour>
  </outline>
</glyph>
<glyph name="greater" format="2">
  <advance width="1024" height="1024"/>
  <unicode hex="003E"/>
  <outline>
    <contour>
      <point x="96" y="1024" type="line"/>
      <point x="229" y="1208" type="line"/>
      <point x="928" y="704" type="line"/>
      <point x="928" y="576" type="line"/>
      <point x="229" y="72" type="line"/>
      <point x="96" y="256" type="line"/>
      <point x="629" y="640" type="line"/>
    </contour>
  </outline>
</glyph>
<glyph name="question" format="2">
  <advance width="1024" height="1024"/>
  <unicode hex="003F"/>
  <outline>
    <contour>
      <point x="160" y="1272" type="line"/>
      <point x="249" y="1288"/>
      <point x="392" y="1288" type="qcurve" smooth="yes"/>
      <point x="629" y="1288"/>
      <point x="880" y="1135"/>
      <point x="880" y="964" type="qcurve" smooth="yes"/>
      <point x="880" y="831"/>
      <point x="728" y="677"/>
      <point x="597" y="677" type="qcurve"/>
      <point x="597" y="512" type="line"/>
      <point x="341" y="512" type="line"/>
      <point x="341" y="834" type="line"/>
      <point x="480" y="834"/>
      <point x="624" y="894"/>
      <point x="624" y="1034"/>
      <point x="506" y="1094"/>
      <point x="392" y="1094" type="qcurve" smooth="yes"/>
      <point x="160" y="1094" type="line"/>
    </contour>
    <contour>
      <point x="341" y="256" type="line"/>
      <point x="683" y="256" type="line"/>
      <point x="683" y="0" type="line"/>
      <point x="341" y="0" type="line"/>
    </contour>
  </outline>
</glyph>
<glyph name="at" format="2">
  <advance width="1024" height="1024"/>
  <unicode hex="0040"/>
  <outline>
    <contour>
      <point x="563" y="1296" type="qcurve" smooth="yes"/>
      <point x="757" y="1296"/>
      <point x="960" y="1138"/>
      <point x="960" y="954" type="qcurve" smooth="yes"/>
      <point x="960" y="512" type="line" smooth="yes"/>
      <point x="960" y="407"/>
      <point x="871" y="326"/>
      <point x="756" y="326" type="qcurve" smooth="yes"/>
      <point x="659" y="326" type="line" smooth="yes"/>
      <point x="524" y="326"/>
      <point x="367" y="510"/>
      <point x="367" y="670" type="qcurve" smooth="yes"/>
      <point x="367" y="802"/>
      <point x="524" y="954"/>
      <point x="659" y="954" type="qcurve" smooth="yes"/>
      <point x="756" y="954" type="line"/>
      <point x="756" y="983"/>
      <point x="750" y="1028"/>
      <point x="734" y="1060"/>
      <point x="720" y="1083"/>
      <point x="688" y="1098"/>
      <point x="666" y="1106"/>
      <point x="620" y="1109"/>
      <point x="592" y="1110"/>
      <point x="563" y="1110" type="qcurve" smooth="yes"/>
      <point x="489" y="1110"/>
      <point x="377" y="1061"/>
      <point x="294" y="954"/>
      <point x="252" y="770"/>
      <point x="252" y="640" type="qcurve" smooth="yes"/>
      <point x="252" y="395"/>
      <point x="445" y="186"/>
      <point x="631" y="186" type="qcurve" smooth="yes"/>
      <point x="896" y="186" type="line"/>
      <point x="896" y="8" type="line"/>
      <point x="795" y="-8"/>
      <point x="631" y="-8" type="qcurve" smooth="yes"/>
      <point x="520" y="-8"/>
      <point x="344" y="33"/>
      <point x="198" y="128"/>
      <point x="101" y="276"/>
      <point x="48" y="496"/>
      <point x="48" y="640" type="qcurve" smooth="yes"/>
      <point x="48" y="785"/>
      <point x="95" y="1008"/>
      <point x="180" y="1159"/>
      <point x="309" y="1254"/>
      <point x="465" y="1296"/>
    </contour>
    <contour>
      <point x="659" y="768" type="line" smooth="yes"/>
      <point x="618" y="768"/>
      <point x="571" y="716"/>
      <point x="571" y="670" type="qcurve" smooth="yes"/>
      <point x="571" y="597"/>
      <point x="618" y="512"/>
      <point x="659" y="512" type="qcurve" smooth="yes"/>
      <point x="756" y="512" type="line"/>
      <point x="756" y="768" type="line"/>
    </contour>
  </outline>
</glyph>
<glyph name="A" format="2">
  <advance width="1024" height="1024"/>
  <unicode hex="0041"/>
  <outline>
    <contour>
      <point x="384" y="1280" type="line"/>
      <point x="640" y="1280" type="line"/>
      <point x="992" y="0" type="line"/>
      <point x="757" y="0" type="line"/>
      <point x="686" y="256" type="line"/>
      <point x="338" y="256" type="line"/>
      <point x="267" y="0" type="line"/>
      <point x="32" y="0" type="line"/>
    </contour>
    <contour>
      <point x="512" y="964" type="line"/>
      <point x="479" y="768" type="line"/>
      <point x="389" y="442" type="line"/>
      <point x="635" y="442" type="line"/>
      <point x="545" y="768" type="line"/>
    </contour>
  </outline>
</glyph>
<glyph name="B" format="2">
  <advance width="1024" height="1024"/>
  <unicode hex="0042"/>
  <outline>
    <contour>
      <point x="96" y="1280" type="line"/>
      <point x="352" y="1280" type="line" smooth="yes"/>
      <point x="478" y="1280"/>
      <point x="667" y="1244"/>
      <point x="808" y="1164"/>
      <point x="880" y="1027"/>
      <point x="880" y="931" type="qcurve" smooth="yes"/>
      <point x="880" y="879"/>
      <point x="838" y="792"/>
      <point x="779" y="743"/>
      <point x="720" y="709"/>
      <point x="699" y="703" type="qcurve" smooth="yes"/>
      <point x="678" y="697" type="line"/>
      <point x="684" y="696"/>
      <point x="703" y="690"/>
      <point x="758" y="667"/>
      <point x="808" y="638"/>
      <point x="870" y="586"/>
      <point x="914" y="525"/>
      <point x="944" y="435"/>
      <point x="944" y="384" type="qcurve" smooth="yes"/>
      <point x="944" y="278"/>
      <point x="864" y="128"/>
      <point x="705" y="40"/>
      <point x="494" y="0"/>
      <point x="352" y="0" type="qcurve" smooth="yes"/>
      <point x="96" y="0" type="line"/>
    </contour>
    <contour>
      <point x="352" y="1094" type="qcurve"/>
      <point x="352" y="768" type="line"/>
      <point x="485" y="768"/>
      <point x="624" y="843"/>
      <point x="624" y="1019"/>
      <point x="485" y="1094"/>
    </contour>
    <contour>
      <point x="352" y="582" type="qcurve"/>
      <point x="352" y="186" type="line"/>
      <point x="516" y="186"/>
      <point x="680" y="272"/>
      <point x="680" y="496"/>
      <point x="516" y="582"/>
    </contour>
  </outline>
</glyph>
<glyph name="C" format="2">
  <advance width="1024" height="1024"/>
  <unicode hex="0043"/>
  <outline>
    <contour>
      <point x="700" y="1288" type="qcurve" smooth="yes"/>
      <point x="754" y="1288"/>
      <point x="852" y="1280"/>
      <point x="874" y="1276" type="qcurve" smooth="yes"/>
      <point x="896" y="1272" type="line"/>
      <point x="896" y="1094" type="line"/>
      <point x="700" y="1094" type="line" smooth="yes"/>
      <point x="554" y="1094"/>
      <point x="384" y="851"/>
      <point x="384" y="640" type="qcurve" smooth="yes"/>
      <point x="384" y="395"/>
      <point x="545" y="186"/>
      <point x="700" y="186" type="qcurve" smooth="yes"/>
      <point x="896" y="186" type="line"/>
      <point x="896" y="8" type="line"/>
      <point x="821" y="-8"/>
      <point x="700" y="-8" type="qcurve" smooth="yes"/>
      <point x="559" y="-8"/>
      <point x="349" y="59"/>
      <point x="192" y="207"/>
      <point x="112" y="461"/>
      <point x="112" y="640" type="qcurve" smooth="yes"/>
      <point x="112" y="940"/>
      <point x="428" y="1288"/>
    </contour>
  </outline>
</glyph>
<glyph name="D" format="2">
  <advance width="1024" height="1024"/>
  <unicode hex="0044"/>
  <outline>
    <contour>
      <point x="96" y="1280" type="line"/>
      <point x="352" y="1280" type="line" smooth="yes"/>
      <point x="494" y="1280"/>
      <point x="705" y="1214"/>
      <point x="864" y="1067"/>
      <point x="944" y="817"/>
      <point x="944" y="463"/>
      <point x="864" y="213"/>
      <point x="705" y="66"/>
      <point x="494" y="0"/>
      <point x="352" y="0" type="qcurve" smooth="yes"/>
      <point x="96" y="0" type="line"/>
    </contour>
    <contour>
      <point x="352" y="1094" type="qcurve"/>
      <point x="352" y="186" type="line"/>
      <point x="509" y="186"/>
      <point x="672" y="395"/>
      <point x="672" y="885"/>
      <point x="509" y="1094"/>
    </contour>
  </outline>
</glyph>
<glyph name="E" format="2">
  <advance width="1024" height="1024"/>
  <unicode hex="0045"/>
  <outline>
    <contour>
      <point x="128" y="1280" type="line"/>
      <point x="928" y="1280" type="line"/>
      <point x="928" y="1094" type="line"/>
      <point x="384" y="1094" type="line"/>
      <point x="384" y="768" type="line"/>
      <point x="896" y="768" type="line"/>
      <point x="896" y="582" type="line"/>
      <point x="384" y="582" type="line"/>
      <point x="384" y="186" type="line"/>
      <point x="928" y="186" type="line"/>
      <point x="928" y="0" type="line"/>
      <point x="128" y="0" type="line"/>
    </contour>
  </outline>
</glyph>
<glyph name="G" format="2">
  <advance width="1024" height="1024"/>
  <unicode hex="0047"/>
  <outline>
    <contour>
      <point x="688" y="1288" type="qcurve" smooth="yes"/>
      <point x="745" y="1288"/>
      <point x="849" y="1280"/>
      <point x="872.5" y="1276" type="qcurve" smooth="yes"/>
      <point x="896" y="1272" type="line"/>
      <point x="896" y="1094" type="line"/>
      <point x="688" y="1094" type="line" smooth="yes"/>
      <point x="532" y="1094"/>
      <point x="352" y="851"/>
      <point x="352" y="640" type="qcurve" smooth="yes"/>
      <point x="352" y="391"/>
      <point x="453" y="178"/>
      <point x="550" y="178" type="qcurve" smooth="yes"/>
      <point x="610" y="178"/>
      <point x="672" y="229"/>
      <point x="672" y="288" type="qcurve" smooth="yes"/>
      <point x="672" y="582" type="line"/>
      <point x="512" y="582" type="line"/>
      <point x="512" y="768" type="line"/>
      <point x="928" y="768" type="line"/>
      <point x="928" y="288" type="line" smooth="yes"/>
      <point x="928" y="129"/>
      <point x="735" y="-8"/>
      <point x="550" y="-8" type="qcurve" smooth="yes"/>
      <point x="437" y="-8"/>
      <point x="270" y="59"/>
      <point x="144" y="207"/>
      <point x="80" y="461"/>
      <point x="80" y="640" type="qcurve" smooth="yes"/>
      <point x="80" y="940"/>
      <point x="406" y="1288"/>
    </contour>
  </outline>
</glyph>
<glyph name="H" format="2">
  <advance width="1024" height="1024"/>
  <unicode hex="0048"/>
  <outline>
    <contour>
      <point x="96" y="1280" type="line"/>
      <point x="352" y="1280" type="line"/>
      <point x="352" y="768" type="line"/>
      <point x="672" y="768" type="line"/>
      <point x="672" y="1280" type="line"/>
      <point x="928" y="1280" type="line"/>
      <point x="928" y="0" type="line"/>
      <point x="672" y="0" type="line"/>
      <point x="672" y="582" type="line"/>
      <point x="352" y="582" type="line"/>
      <point x="352" y="0" type="line"/>
      <point x="96" y="0" type="line"/>
    </contour>
  </outline>
</glyph>
<glyph name="I" format="2">
  <advance width="1024" height="1024"/>
  <unicode hex="0049"/>
  <outline>
    <contour>
      <point x="160" y="1280" type="line"/>
      <point x="864" y="1280" type="line"/>
      <point x="864" y="1094" type="line"/>
      <point x="640" y="1094" type="line"/>
      <point x="640" y="186" type="line"/>
      <point x="864" y="186" type="line"/>
      <point x="864" y="0" type="line"/>
      <point x="160" y="0" type="line"/>
      <point x="160" y="186" type="line"/>
      <point x="384" y="186" type="line"/>
      <point x="384" y="1094" type="line"/>
      <point x="160" y="1094" type="line"/>
    </contour>
  </outline>
</glyph>
<glyph name="J" format="2">
  <advance width="1024" height="1024"/>
  <unicode hex="004A"/>
  <outline>
    <contour>
      <point x="196" y="1280" type="line"/>
      <point x="864" y="1280" type="line"/>
      <point x="864" y="526" type="line" smooth="yes"/>
      <point x="864" y="378"/>
      <point x="789" y="169"/>
      <point x="641" y="47"/>
      <point x="444" y="-8"/>
      <point x="311" y="-8" type="qcurve" smooth="yes"/>
      <point x="261" y="-8"/>
      <point x="169" y="-0"/>
      <point x="148.5" y="4" type="qcurve" smooth="yes"/>
      <point x="128" y="8" type="line"/>
      <point x="128" y="186" type="line"/>
      <point x="311" y="186" type="line" smooth="yes"/>
      <point x="457" y="186"/>
      <point x="608" y="343"/>
      <point x="608" y="526" type="qcurve" smooth="yes"/>
      <point x="608" y="1094" type="line"/>
      <point x="196" y="1094" type="line"/>
    </contour>
  </outline>
</glyph>
<glyph name="K" format="2">
  <advance width="1024" height="1024"/>
  <unicode hex="004B"/>
  <outline>
    <contour>
      <point x="664" y="1280" type="line"/>
      <point x="928" y="1280" type="line"/>
      <point x="567" y="672" type="line"/>
      <point x="960" y="0" type="line"/>
      <point x="697" y="0" type="line"/>
      <point x="323" y="640" type="line"/>
      <point x="323" y="0" type="line"/>
      <point x="96" y="0" type="line"/>
      <point x="96" y="1280" type="line"/>
      <point x="323" y="1280" type="line"/>
      <point x="323" y="704" type="line"/>
    </contour>
  </outline>
</glyph>
<glyph name="L" format="2">
  <advance width="1024" height="1024"/>
  <unicode hex="004C"/>
  <outline>
    <contour>
      <point x="128" y="1280" type="line"/>
      <point x="384" y="1280" type="line"/>
      <point x="384" y="186" type="line"/>
      <point x="928" y="186" type="line"/>
      <point x="928" y="0" type="line"/>
      <point x="128" y="0" type="line"/>
    </contour>
  </outline>
</glyph>
<glyph name="M" format="2">
  <advance width="1024" height="1024"/>
  <unicode hex="004D"/>
  <outline>
    <contour>
      <point x="733" y="1280" type="line"/>
      <point x="960" y="1280" type="line"/>
      <point x="960" y="0" type="line"/>
      <point x="733" y="0" type="line"/>
      <point x="733" y="640" type="line"/>
      <point x="768" y="997" type="line"/>
      <point x="576" y="640" type="line"/>
      <point x="448" y="640" type="line"/>
      <point x="256" y="997" type="line"/>
      <point x="291" y="640" type="line"/>
      <point x="291" y="0" type="line"/>
      <point x="64" y="0" type="line"/>
      <point x="64" y="1280" type="line"/>
      <point x="291" y="1280" type="line"/>
      <point x="512" y="924" type="line"/>
    </contour>
  </outline>
</glyph>
<glyph name="N" format="2">
  <advance width="1024" height="1024"/>
  <unicode hex="004E"/>
  <outline>
    <contour>
      <point x="96" y="1280" type="line"/>
      <point x="323" y="1280" type="line"/>
      <point x="625" y="640" type="line"/>
      <point x="720" y="396" type="line"/>
      <point x="701" y="640" type="line"/>
      <point x="701" y="1280" type="line"/>
      <point x="928" y="1280" type="line"/>
      <point x="928" y="0" type="line"/>
      <point x="701" y="0" type="line"/>
      <point x="399" y="640" type="line"/>
      <point x="304" y="884" type="line"/>
      <point x="323" y="640" type="line"/>
      <point x="323" y="0" type="line"/>
      <point x="96" y="0" type="line"/>
    </contour>
  </outline>
</glyph>
<glyph name="O" format="2">
  <advance width="1024" height="1024"/>
  <unicode hex="004F"/>
  <outline>
    <contour>
      <point x="80" y="821"/>
      <point x="139" y="1078"/>
      <point x="254" y="1228"/>
      <point x="408" y="1296"/>
      <point x="616" y="1296"/>
      <point x="770" y="1228"/>
      <point x="885" y="1078"/>
      <point x="944" y="821"/>
      <point x="944" y="459"/>
      <point x="885" y="202"/>
      <point x="770" y="52"/>
      <point x="616" y="-16"/>
      <point x="408" y="-16"/>
      <point x="254" y="52"/>
      <point x="139" y="202"/>
      <point x="80" y="459"/>
    </contour>
    <contour>
      <point x="460" y="1110"/>
      <point x="392" y="1024"/>
      <point x="352" y="812"/>
      <point x="352" y="468"/>
      <point x="392" y="256"/>
      <point x="460" y="170"/>
      <point x="564" y="170"/>
      <point x="632" y="256"/>
      <point x="672" y="468"/>
      <point x="672" y="812"/>
      <point x="632" y="1024"/>
      <point x="564" y="1110"/>
    </contour>
  </outline>
</glyph>
<glyph name="P" format="2">
  <advance width="1024" height="1024"/>
  <unicode hex="0050"/>
  <outline>
    <contour>
      <point x="96" y="1280" type="line"/>
      <point x="555" y="1280" type="line" smooth="yes"/>
      <point x="735" y="1280"/>
      <point x="944" y="1074"/>
      <point x="944" y="718"/>
      <point x="694" y="512"/>
      <point x="477" y="512" type="qcurve" smooth="yes"/>
      <point x="352" y="512" type="line"/>
      <point x="352" y="0" type="line"/>
      <point x="96" y="0" type="line"/>
    </contour>
    <contour>
      <point x="352" y="1094" type="line"/>
      <point x="352" y="698" type="line"/>
      <point x="477" y="698" type="line" smooth="yes"/>
      <point x="571" y="698"/>
      <point x="680" y="805"/>
      <point x="680" y="987"/>
      <point x="613" y="1094"/>
      <point x="555" y="1094" type="qcurve" smooth="yes"/>
    </contour>
  </outline>
</glyph>
<glyph name="Q" format="2">
  <advance width="1024" height="1024"/>
  <unicode hex="0051"/>
  <outline>
    <contour>
      <point x="645" y="1296"/>
      <point x="818" y="1235"/>
      <point x="930" y="1088"/>
      <point x="976" y="859"/>
      <point x="976" y="683" type="qcurve" smooth="yes"/>
      <point x="976" y="396"/>
      <point x="825" y="134"/>
      <point x="640" y="107" type="qcurve"/>
      <point x="640" y="-157" type="line"/>
      <point x="384" y="-157" type="line"/>
      <point x="384" y="107" type="line"/>
      <point x="199" y="134"/>
      <point x="48" y="396"/>
      <point x="48" y="683" type="qcurve" smooth="yes"/>
      <point x="48" y="859"/>
      <point x="94" y="1088"/>
      <point x="206" y="1235"/>
      <point x="379" y="1296"/>
    </contour>
    <contour>
      <point x="395" y="1110"/>
      <point x="304" y="923"/>
      <point x="304" y="683" type="qcurve" smooth="yes"/>
      <point x="304" y="491"/>
      <point x="360" y="300"/>
      <point x="427" y="271" type="qcurve"/>
      <point x="427" y="683" type="line"/>
      <point x="597" y="683" type="line"/>
      <point x="597" y="271" type="line"/>
      <point x="664" y="300"/>
      <point x="720" y="491"/>
      <point x="720" y="683" type="qcurve" smooth="yes"/>
      <point x="720" y="923"/>
      <point x="629" y="1110"/>
    </contour>
  </outline>
</glyph>
<glyph name="R" format="2">
  <advance width="1024" height="1024"/>
  <unicode hex="0052"/>
  <outline>
    <contour>
      <point x="96" y="1280" type="line"/>
      <point x="567" y="1280" type="line" smooth="yes"/>
      <point x="752" y="1280"/>
      <point x="944" y="1119"/>
      <point x="944" y="931" type="qcurve" smooth="yes"/>
      <point x="944" y="693"/>
      <point x="740" y="619" type="qcurve"/>
      <point x="960" y="0" type="line"/>
      <point x="704" y="0" type="line"/>
      <point x="512" y="582" type="line"/>
      <point x="323" y="582" type="line"/>
      <point x="323" y="0" type="line"/>
      <point x="96" y="0" type="line"/>
    </contour>
    <contour>
      <point x="323" y="1094" type="line"/>
      <point x="323" y="768" type="line"/>
      <point x="473" y="768" type="line" smooth="yes"/>
      <point x="593" y="768"/>
      <point x="717" y="843"/>
      <point x="717" y="1019"/>
      <point x="641" y="1094"/>
      <point x="567" y="1094" type="qcurve" smooth="yes"/>
    </contour>
  </outline>
</glyph>
<glyph name="S" format="2">
  <advance width="1024" height="1024"/>
  <unicode hex="0053"/>
  <outline>
    <contour>
      <point x="694" y="1288" type="qcurve" smooth="yes"/>
      <point x="750" y="1288"/>
      <point x="851" y="1280"/>
      <point x="873.5" y="1276" type="qcurve" smooth="yes"/>
      <point x="896" y="1272" type="line"/>
      <point x="896" y="1094" type="line"/>
      <point x="694" y="1094" type="line" smooth="yes"/>
      <point x="535" y="1094"/>
      <point x="368" y="1018"/>
      <point x="368" y="930" type="qcurve" smooth="yes"/>
      <point x="368" y="872"/>
      <point x="432" y="791"/>
      <point x="533" y="745"/>
      <point x="656" y="706"/>
      <point x="779" y="653"/>
      <point x="880" y="579"/>
      <point x="944" y="443"/>
      <point x="944" y="350" type="qcurve" smooth="yes"/>
      <point x="944" y="251"/>
      <point x="859" y="111"/>
      <point x="693" y="29"/>
      <point x="471" y="-8"/>
      <point x="322" y="-8" type="qcurve" smooth="yes"/>
      <point x="260" y="-8"/>
      <point x="147" y="-0"/>
      <point x="121.5" y="4" type="qcurve" smooth="yes"/>
      <point x="96" y="8" type="line"/>
      <point x="96" y="186" type="line"/>
      <point x="322" y="186" type="line" smooth="yes"/>
      <point x="501" y="186"/>
      <point x="688" y="262"/>
      <point x="688" y="350" type="qcurve" smooth="yes"/>
      <point x="688" y="408"/>
      <point x="624" y="489"/>
      <point x="523" y="535"/>
      <point x="400" y="574"/>
      <point x="277" y="627"/>
      <point x="176" y="701"/>
      <point x="112" y="837"/>
      <point x="112" y="930" type="qcurve" smooth="yes"/>
      <point x="112" y="1123"/>
      <point x="409" y="1288"/>
    </contour>
  </outline>
</glyph>
<glyph name="T" format="2">
  <advance width="1024" height="1024"/>
  <unicode hex="0054"/>
  <outline>
    <contour>
      <point x="64" y="1280" type="line"/>
      <point x="960" y="1280" type="line"/>
      <point x="960" y="1094" type="line"/>
      <point x="640" y="1094" type="line"/>
      <point x="640" y="0" type="line"/>
      <point x="384" y="0" type="line"/>
      <point x="384" y="1094" type="line"/>
      <point x="64" y="1094" type="line"/>
    </contour>
  </outline>
</glyph>
<glyph name="U" format="2">
  <advance width="1024" height="1024"/>
  <unicode hex="0055"/>
  <outline>
    <contour>
      <point x="96" y="1280" type="line"/>
      <point x="352" y="1280" type="line"/>
      <point x="352" y="576" type="line" smooth="yes"/>
      <point x="352" y="347"/>
      <point x="422" y="170"/>
      <point x="602" y="170"/>
      <point x="672" y="347"/>
      <point x="672" y="576" type="qcurve" smooth="yes"/>
      <point x="672" y="1280" type="line"/>
      <point x="928" y="1280" type="line"/>
      <point x="928" y="576" type="line" smooth="yes"/>
      <point x="928" y="406"/>
      <point x="886" y="185"/>
      <point x="787" y="43"/>
      <point x="631" y="-16"/>
      <point x="393" y="-16"/>
      <point x="237" y="43"/>
      <point x="138" y="185"/>
      <point x="96" y="406"/>
      <point x="96" y="576" type="qcurve" smooth="yes"/>
    </contour>
  </outline>
</glyph>
<glyph name="V" format="2">
  <advance width="1024" height="1024"/>
  <unicode hex="0056"/>
  <outline>
    <contour>
      <point x="32" y="1280" type="line"/>
      <point x="267" y="1280" type="line"/>
      <point x="479" y="512" type="line"/>
      <point x="512" y="316" type="line"/>
      <point x="545" y="512" type="line"/>
      <point x="757" y="1280" type="line"/>
      <point x="992" y="1280" type="line"/>
      <point x="640" y="0" type="line"/>
      <point x="384" y="0" type="line"/>
    </contour>
  </outline>
</glyph>
<glyph name="W" format="2">
  <advance width="1024" height="1024"/>
  <unicode hex="0057"/>
  <outline>
    <contour>
      <point x="32" y="1280" type="line"/>
      <point x="237" y="1280" type="line"/>
      <point x="290" y="563" type="line"/>
      <point x="294" y="348" type="line"/>
      <point x="448" y="768" type="line"/>
      <point x="576" y="768" type="line"/>
      <point x="730" y="348" type="line"/>
      <point x="734" y="563" type="line"/>
      <point x="787" y="1280" type="line"/>
      <point x="992" y="1280" type="line"/>
      <point x="896" y="0" type="line"/>
      <point x="692" y="0" type="line"/>
      <point x="512" y="436" type="line"/>
      <point x="332" y="0" type="line"/>
      <point x="128" y="0" type="line"/>
    </contour>
  </outline>
</glyph>
<glyph name="X" format="2">
  <advance width="1024" height="1024"/>
  <unicode hex="0058"/>
  <outline>
    <contour>
      <point x="32" y="1280" type="line"/>
      <point x="291" y="1280" type="line"/>
      <point x="512" y="849" type="line"/>
      <point x="733" y="1280" type="line"/>
      <point x="992" y="1280" type="line"/>
      <point x="641" y="640" type="line"/>
      <point x="992" y="0" type="line"/>
      <point x="733" y="0" type="line"/>
      <point x="512" y="431" type="line"/>
      <point x="291" y="0" type="line"/>
      <point x="32" y="0" type="line"/>
      <point x="383" y="640" type="line"/>
    </contour>
  </outline>
</glyph>
<glyph name="Y" format="2">
  <advance width="1024" height="1024"/>
  <unicode hex="0059"/>
  <outline>
    <contour>
      <point x="32" y="1280" type="line"/>
      <point x="282" y="1280" type="line"/>
      <point x="512" y="777" type="line"/>
      <point x="742" y="1280" type="line"/>
      <point x="992" y="1280" type="line"/>
      <point x="640" y="512" type="line"/>
      <point x="640" y="-0" type="line"/>
      <point x="384" y="-0" type="line"/>
      <point x="384" y="512" type="line"/>
    </contour>
  </outline>
</glyph>
<glyph name="Z" format="2">
  <advance width="1024" height="1024"/>
  <unicode hex="005A"/>
  <outline>
    <contour>
      <point x="128" y="1280" type="line"/>
      <point x="896" y="1280" type="line"/>
      <point x="896" y="1094" type="line"/>
      <point x="360" y="186" type="line"/>
      <point x="928" y="186" type="line"/>
      <point x="928" y="0" type="line"/>
      <point x="96" y="0" type="line"/>
      <point x="96" y="186" type="line"/>
      <point x="632" y="1094" type="line"/>
      <point x="128" y="1094" type="line"/>
    </contour>
  </outline>
</glyph>
<glyph name="bracketleft" format="2">
  <advance width="1024" height="1024"/>
  <unicode hex="005B"/>
  <outline>
    <contour>
      <point x="822" y="1251" type="line"/>
      <point x="512" y="1251" type="line"/>
      <point x="512" y="-70" type="line"/>
      <point x="822" y="-70" type="line"/>
      <point x="822" y="-256" type="line"/>
      <point x="256" y="-256" type="line"/>
      <point x="256" y="1437" type="line"/>
      <point x="822" y="1437" type="line"/>
    </contour>
  </outline>
</glyph>
<glyph name="backslash" format="2">
  <advance width="1024" height="1024"/>
  <unicode hex="005C"/>
  <outline>
    <contour>
      <point x="395" y="1437" type="line"/>
      <point x="896" y="-256" type="line"/>
      <point x="629" y="-256" type="line"/>
      <point x="128" y="1437" type="line"/>
    </contour>
  </outline>
</glyph>
<glyph name="bracketright" format="2">
  <advance width="1024" height="1024"/>
  <unicode hex="005D"/>
  <outline>
    <contour>
      <point x="202" y="1251" type="line"/>
      <point x="202" y="1437" type="line"/>
      <point x="768" y="1437" type="line"/>
      <point x="768" y="-256" type="line"/>
      <point x="202" y="-256" type="line"/>
      <point x="202" y="-70" type="line"/>
      <point x="512" y="-70" type="line"/>
      <point x="512" y="1251" type="line"/>
    </contour>
  </outline>
</glyph>
<glyph name="asciicircum" format="2">
  <advance width="1024" height="1024"/>
  <unicode hex="005E"/>
  <outline>
    <contour>
      <point x="384" y="1280" type="line"/>
      <point x="640" y="1280" type="line"/>
      <point x="960" y="640" type="line"/>
      <point x="706" y="640" type="line"/>
      <point x="512" y="1036" type="line"/>
      <point x="318" y="640" type="line"/>
      <point x="64" y="640" type="line"/>
    </contour>
  </outline>
</glyph>
<glyph name="grave" format="2">
  <advance width="1024" height="1024"/>
  <unicode hex="0060"/>
  <outline>
    <contour>
      <point x="253" y="1102" type="line"/>
      <point x="434" y="1283" type="line"/>
      <point x="771" y="896" type="line"/>
      <point x="640" y="765" type="line"/>
    </contour>
  </outline>
</glyph>
<glyph name="a" format="2">
  <advance width="1024" height="1024"/>
  <unicode hex="0061"/>
  <outline>
    <contour>
      <point x="375" y="1032" type="qcurve" smooth="yes"/>
      <point x="646" y="1032"/>
      <point x="928" y="876"/>
      <point x="928" y="694" type="qcurve" smooth="yes"/>
      <point x="928" y="256" type="line" smooth="yes"/>
      <point x="928" y="118"/>
      <point x="797" y="0"/>
      <point x="672" y="0" type="qcurve" smooth="yes"/>
      <point x="464" y="0" type="line" smooth="yes"/>
      <point x="285" y="0"/>
      <point x="80" y="172"/>
      <point x="80" y="324" type="qcurve" smooth="yes"/>
      <point x="80" y="452"/>
      <point x="287" y="605"/>
      <point x="464" y="605" type="qcurve" smooth="yes"/>
      <point x="672" y="605" type="line"/>
      <point x="672" y="694" type="line" smooth="yes"/>
      <point x="672" y="772"/>
      <point x="521" y="838"/>
      <point x="375" y="838" type="qcurve" smooth="yes"/>
      <point x="192" y="838" type="line"/>
      <point x="192" y="1016" type="line"/>
      <point x="262" y="1032"/>
    </contour>
    <contour>
      <point x="464" y="419" type="line" smooth="yes"/>
      <point x="406" y="419"/>
      <point x="336" y="366"/>
      <point x="336" y="324" type="qcurve" smooth="yes"/>
      <point x="336" y="258"/>
      <point x="404" y="186"/>
      <point x="464" y="186" type="qcurve" smooth="yes"/>
      <point x="593" y="186" type="line" smooth="yes"/>
      <point x="672" y="186"/>
      <point x="672" y="256" type="qcurve" smooth="yes"/>
      <point x="672" y="419" type="line"/>
    </contour>
  </outline>
</glyph>
<glyph name="b" format="2">
  <advance width="1024" height="1024"/>
  <unicode hex="0062"/>
  <outline>
    <contour>
      <point x="96" y="1280" type="line"/>
      <point x="352" y="1280" type="line"/>
      <point x="352" y="1009" type="line"/>
      <point x="429" y="1024"/>
      <point x="512" y="1024" type="qcurve" smooth="yes"/>
      <point x="701" y="1024"/>
      <point x="944" y="758"/>
      <point x="944" y="536" type="qcurve" smooth="yes"/>
      <point x="944" y="290"/>
      <point x="688" y="0"/>
      <point x="480" y="0" type="qcurve" smooth="yes"/>
      <point x="352" y="0" type="line" smooth="yes"/>
      <point x="227" y="0"/>
      <point x="96" y="118"/>
      <point x="96" y="256" type="qcurve" smooth="yes"/>
    </contour>
    <contour>
      <point x="512" y="838" type="qcurve" smooth="yes"/>
      <point x="432" y="838"/>
      <point x="352" y="817" type="qcurve"/>
      <point x="352" y="256" type="line" smooth="yes"/>
      <point x="352" y="186"/>
      <point x="480" y="186" type="qcurve" smooth="yes"/>
      <point x="579" y="186"/>
      <point x="688" y="364"/>
      <point x="688" y="536" type="qcurve" smooth="yes"/>
      <point x="688" y="687"/>
      <point x="596" y="838"/>
    </contour>
  </outline>
</glyph>
<glyph name="c" format="2">
  <advance width="1024" height="1024"/>
  <unicode hex="0063"/>
  <outline>
    <contour>
      <point x="675" y="1032" type="qcurve" smooth="yes"/>
      <point x="727" y="1032"/>
      <point x="821" y="1024"/>
      <point x="842.5" y="1020" type="qcurve" smooth="yes"/>
      <point x="864" y="1016" type="line"/>
      <point x="864" y="838" type="line"/>
      <point x="675" y="838" type="line" smooth="yes"/>
      <point x="533" y="838"/>
      <point x="368" y="663"/>
      <point x="368" y="512" type="qcurve" smooth="yes"/>
      <point x="368" y="336"/>
      <point x="524" y="186"/>
      <point x="675" y="186" type="qcurve" smooth="yes"/>
      <point x="864" y="186" type="line"/>
      <point x="864" y="8" type="line"/>
      <point x="792" y="-8"/>
      <point x="675" y="-8" type="qcurve" smooth="yes"/>
      <point x="540" y="-8"/>
      <point x="339" y="46"/>
      <point x="189" y="165"/>
      <point x="112" y="368"/>
      <point x="112" y="512" type="qcurve" smooth="yes"/>
      <point x="112" y="753"/>
      <point x="414" y="1032"/>
    </contour>
  </outline>
</glyph>
<glyph name="d" format="2">
  <advance width="1024" height="1024"/>
  <unicode hex="0064"/>
  <outline>
    <contour>
      <point x="928" y="1280" type="line"/>
      <point x="928" y="256" type="line" smooth="yes"/>
      <point x="928" y="118"/>
      <point x="797" y="0"/>
      <point x="672" y="0" type="qcurve" smooth="yes"/>
      <point x="544" y="0" type="line" smooth="yes"/>
      <point x="336" y="0"/>
      <point x="80" y="264"/>
      <point x="80" y="488" type="qcurve" smooth="yes"/>
      <point x="80" y="732"/>
      <point x="323" y="1024"/>
      <point x="512" y="1024" type="qcurve" smooth="yes"/>
      <point x="595" y="1024"/>
      <point x="672" y="1009" type="qcurve"/>
      <point x="672" y="1280" type="line"/>
    </contour>
    <contour>
      <point x="512" y="838" type="qcurve" smooth="yes"/>
      <point x="430" y="838"/>
      <point x="336" y="650"/>
      <point x="336" y="488" type="qcurve" smooth="yes"/>
      <point x="336" y="348"/>
      <point x="447" y="186"/>
      <point x="544" y="186" type="qcurve" smooth="yes"/>
      <point x="672" y="186"/>
      <point x="672" y="256" type="qcurve" smooth="yes"/>
      <point x="672" y="817" type="line"/>
      <point x="592" y="838"/>
    </contour>
  </outline>
</glyph>
<glyph name="e" format="2">
  <advance width="1024" height="1024"/>
  <unicode hex="0065"/>
  <outline>
    <contour>
      <point x="700" y="1040"/>
      <point x="944" y="833"/>
      <point x="944" y="660" type="qcurve" smooth="yes"/>
      <point x="944" y="591" type="line" smooth="yes"/>
      <point x="944" y="502"/>
      <point x="870" y="433"/>
      <point x="774" y="433" type="qcurve" smooth="yes"/>
      <point x="342" y="433" type="line"/>
      <point x="360" y="317"/>
      <point x="495" y="186"/>
      <point x="600" y="186" type="qcurve" smooth="yes"/>
      <point x="864" y="186" type="line"/>
      <point x="864" y="8" type="line"/>
      <point x="753" y="-8"/>
      <point x="600" y="-8" type="qcurve" smooth="yes"/>
      <point x="359" y="-8"/>
      <point x="80" y="271"/>
      <point x="80" y="512" type="qcurve" smooth="yes"/>
      <point x="80" y="752"/>
      <point x="324" y="1040"/>
    </contour>
    <contour>
      <point x="512" y="854" type="qcurve" smooth="yes"/>
      <point x="441" y="854"/>
      <point x="350" y="715"/>
      <point x="339" y="591" type="qcurve"/>
      <point x="688" y="591" type="line"/>
      <point x="688" y="660" type="line" smooth="yes"/>
      <point x="688" y="752"/>
      <point x="594" y="854"/>
    </contour>
  </outline>
</glyph>
<glyph name="f" format="2">
  <advance width="1024" height="1024"/>
  <unicode hex="0066"/>
  <outline>
    <contour>
      <point x="928" y="1272" type="line"/>
      <point x="928" y="1094" type="line"/>
      <point x="739" y="1094" type="line" smooth="yes"/>
      <point x="627" y="1094"/>
      <point x="549" y="1021"/>
      <point x="549" y="922" type="qcurve"/>
      <point x="928" y="922" type="line"/>
      <point x="928" y="736" type="line"/>
      <point x="549" y="736" type="line"/>
      <point x="549" y="0" type="line"/>
      <point x="293" y="0" type="line"/>
      <point x="293" y="736" type="line"/>
      <point x="96" y="736" type="line"/>
      <point x="96" y="922" type="line"/>
      <point x="293" y="922" type="line"/>
      <point x="293" y="1029"/>
      <point x="331" y="1163"/>
      <point x="434" y="1252"/>
      <point x="603" y="1288"/>
      <point x="739" y="1288" type="qcurve" smooth="yes"/>
      <point x="791" y="1288"/>
      <point x="886" y="1280"/>
      <point x="907" y="1276" type="qcurve" smooth="yes"/>
    </contour>
  </outline>
</glyph>
<glyph name="g" format="2">
  <advance width="1024" height="1024"/>
  <unicode hex="0067"/>
  <outline>
    <contour>
      <point x="544" y="1024" type="qcurve" smooth="yes"/>
      <point x="672" y="1024" type="line" smooth="yes"/>
      <point x="797" y="1024"/>
      <point x="928" y="906"/>
      <point x="928" y="768" type="qcurve" smooth="yes"/>
      <point x="928" y="120" type="line" smooth="yes"/>
      <point x="928" y="-83"/>
      <point x="635" y="-264"/>
      <point x="356" y="-264" type="qcurve" smooth="yes"/>
      <point x="302" y="-264"/>
      <point x="204" y="-256"/>
      <point x="182" y="-252" type="qcurve" smooth="yes"/>
      <point x="160" y="-248" type="line"/>
      <point x="160" y="-70" type="line"/>
      <point x="356" y="-70" type="line" smooth="yes"/>
      <point x="511" y="-70"/>
      <point x="672" y="17"/>
      <point x="672" y="120" type="qcurve" smooth="yes"/>
      <point x="672" y="256" type="line"/>
      <point x="512" y="256" type="line" smooth="yes"/>
      <point x="312" y="256"/>
      <point x="80" y="459"/>
      <point x="80" y="634" type="qcurve" smooth="yes"/>
      <point x="80" y="815"/>
      <point x="329" y="1024"/>
    </contour>
    <contour>
      <point x="544" y="838" type="qcurve" smooth="yes"/>
      <point x="447" y="838"/>
      <point x="336" y="729"/>
      <point x="336" y="634" type="qcurve" smooth="yes"/>
      <point x="336" y="545"/>
      <point x="430" y="442"/>
      <point x="512" y="442" type="qcurve" smooth="yes"/>
      <point x="672" y="442" type="line"/>
      <point x="672" y="768" type="line" smooth="yes"/>
      <point x="672" y="838"/>
    </contour>
  </outline>
</glyph>
<glyph name="h" format="2">
  <advance width="1024" height="1024"/>
  <unicode hex="0068"/>
  <outline>
    <contour>
      <point x="96" y="1280" type="line"/>
      <point x="352" y="1280" type="line"/>
      <point x="352" y="1009" type="line"/>
      <point x="429" y="1024"/>
      <point x="512" y="1024" type="qcurve" smooth="yes"/>
      <point x="716" y="1024"/>
      <point x="928" y="855"/>
      <point x="928" y="658" type="qcurve" smooth="yes"/>
      <point x="928" y="0" type="line"/>
      <point x="672" y="0" type="line"/>
      <point x="672" y="658" type="line" smooth="yes"/>
      <point x="672" y="755"/>
      <point x="590" y="838"/>
      <point x="512" y="838" type="qcurve" smooth="yes"/>
      <point x="432" y="838"/>
      <point x="352" y="817" type="qcurve"/>
      <point x="352" y="0" type="line"/>
      <point x="96" y="0" type="line"/>
    </contour>
  </outline>
</glyph>
<glyph name="i" format="2">
  <advance width="1024" height="1024"/>
  <unicode hex="0069"/>
  <outline>
    <contour>
      <point x="341" y="1394" type="line"/>
      <point x="683" y="1394" type="line"/>
      <point x="683" y="1166" type="line"/>
      <point x="341" y="1166" type="line"/>
    </contour>
    <contour>
      <point x="160" y="922" type="line"/>
      <point x="640" y="922" type="line"/>
      <point x="640" y="186" type="line"/>
      <point x="896" y="186" type="line"/>
      <point x="896" y="0" type="line"/>
      <point x="128" y="0" type="line"/>
      <point x="128" y="186" type="line"/>
      <point x="384" y="186" type="line"/>
      <point x="384" y="736" type="line"/>
      <point x="160" y="736" type="line"/>
    </contour>
  </outline>
</glyph>
<glyph name="j" format="2">
  <advance width="1024" height="1024"/>
  <unicode hex="006A"/>
  <outline>
    <contour>
      <point x="501" y="1394" type="line"/>
      <point x="843" y="1394" type="line"/>
      <point x="843" y="1166" type="line"/>
      <point x="501" y="1166" type="line"/>
    </contour>
    <contour>
      <point x="192" y="922" type="line"/>
      <point x="800" y="922" type="line"/>
      <point x="800" y="120" type="line" smooth="yes"/>
      <point x="800" y="-87"/>
      <point x="538" y="-264"/>
      <point x="287" y="-264" type="qcurve" smooth="yes"/>
      <point x="243" y="-264"/>
      <point x="164" y="-256"/>
      <point x="146" y="-252" type="qcurve" smooth="yes"/>
      <point x="128" y="-248" type="line"/>
      <point x="128" y="-70" type="line"/>
      <point x="287" y="-70" type="line" smooth="yes"/>
      <point x="415" y="-70"/>
      <point x="544" y="13"/>
      <point x="544" y="120" type="qcurve" smooth="yes"/>
      <point x="544" y="736" type="line"/>
      <point x="192" y="736" type="line"/>
    </contour>
  </outline>
</glyph>
<glyph name="k" format="2">
  <advance width="1024" height="1024"/>
  <unicode hex="006B"/>
  <outline>
    <contour>
      <point x="605" y="1024" type="line"/>
      <point x="896" y="1024" type="line"/>
      <point x="577" y="627" type="line"/>
      <point x="960" y="0" type="line"/>
      <point x="694" y="0" type="line"/>
      <point x="323" y="608" type="line"/>
      <point x="323" y="0" type="line"/>
      <point x="96" y="0" type="line"/>
      <point x="96" y="1280" type="line"/>
      <point x="323" y="1280" type="line"/>
      <point x="323" y="672" type="line"/>
    </contour>
  </outline>
</glyph>
<glyph name="l" format="2">
  <advance width="1024" height="1024"/>
  <unicode hex="006C"/>
  <outline>
    <contour>
      <point x="160" y="1280" type="line"/>
      <point x="640" y="1280" type="line"/>
      <point x="640" y="186" type="line"/>
      <point x="896" y="186" type="line"/>
      <point x="896" y="-0" type="line"/>
      <point x="128" y="-0" type="line"/>
      <point x="128" y="186" type="line"/>
      <point x="384" y="186" type="line"/>
      <point x="384" y="1094" type="line"/>
      <point x="160" y="1094" type="line"/>
    </contour>
  </outline>
</glyph>
<glyph name="m" format="2">
  <advance width="1024" height="1024"/>
  <unicode hex="006D"/>
  <outline>
    <contour>
      <point x="327" y="1032" type="qcurve" smooth="yes"/>
      <point x="391" y="1032"/>
      <point x="488" y="1006"/>
      <point x="504" y="993" type="qcurve" smooth="yes"/>
      <point x="520" y="980" type="line"/>
      <point x="528" y="986"/>
      <point x="556" y="1003"/>
      <point x="649" y="1032"/>
      <point x="697" y="1032" type="qcurve" smooth="yes"/>
      <point x="820" y="1032"/>
      <point x="960" y="893"/>
      <point x="960" y="768" type="qcurve" smooth="yes"/>
      <point x="960" y="0" type="line"/>
      <point x="756" y="0" type="line"/>
      <point x="756" y="768" type="line" smooth="yes"/>
      <point x="756" y="804"/>
      <point x="718" y="846"/>
      <point x="685" y="846" type="qcurve" smooth="yes"/>
      <point x="665" y="846"/>
      <point x="630" y="833"/>
      <point x="622" y="826.5" type="qcurve" smooth="yes"/>
      <point x="614" y="820" type="line"/>
      <point x="614" y="0" type="line"/>
      <point x="410" y="0" type="line"/>
      <point x="410" y="768" type="line" smooth="yes"/>
      <point x="410" y="846"/>
      <point x="339" y="846" type="qcurve" smooth="yes"/>
      <point x="317" y="846"/>
      <point x="282" y="833"/>
      <point x="275" y="826.5" type="qcurve" smooth="yes"/>
      <point x="268" y="820" type="line"/>
      <point x="268" y="0" type="line"/>
      <point x="64" y="0" type="line"/>
      <point x="64" y="936" type="line"/>
      <point x="68" y="940"/>
      <point x="83" y="953"/>
      <point x="136" y="986"/>
      <point x="193" y="1011"/>
      <point x="281" y="1032"/>
    </contour>
  </outline>
</glyph>
<glyph name="n" format="2">
  <advance width="1024" height="1024"/>
  <unicode hex="006E"/>
  <outline>
    <contour>
      <point x="928" y="0" type="line"/>
      <point x="672" y="0" type="line"/>
      <point x="672" y="658" type="line" smooth="yes"/>
      <point x="672" y="764"/>
      <point x="590" y="854"/>
      <point x="512" y="854" type="qcurve" smooth="yes"/>
      <point x="468" y="854"/>
      <point x="388" y="838"/>
      <point x="370" y="830.5" type="qcurve" smooth="yes"/>
      <point x="352" y="823" type="line"/>
      <point x="352" y="0" type="line"/>
      <point x="96" y="0" type="line"/>
      <point x="96" y="936" type="line"/>
      <point x="102" y="940"/>
      <point x="127" y="954"/>
      <point x="210" y="990"/>
      <point x="300" y="1018"/>
      <point x="440" y="1040"/>
      <point x="512" y="1040" type="qcurve" smooth="yes"/>
      <point x="716" y="1040"/>
      <point x="928" y="864"/>
      <point x="928" y="658" type="qcurve" smooth="yes"/>
    </contour>
  </outline>
</glyph>
<glyph name="o" format="2">
  <advance width="1024" height="1024"/>
  <unicode hex="006F"/>
  <outline>
    <contour>
      <point x="80" y="658"/>
      <point x="139" y="864"/>
      <point x="254" y="985"/>
      <point x="408" y="1040"/>
      <point x="616" y="1040"/>
      <point x="770" y="985"/>
      <point x="885" y="864"/>
      <point x="944" y="658"/>
      <point x="944" y="366"/>
      <point x="885" y="160"/>
      <point x="770" y="39"/>
      <point x="616" y="-16"/>
      <point x="408" y="-16"/>
      <point x="254" y="39"/>
      <point x="139" y="160"/>
      <point x="80" y="366"/>
    </contour>
    <contour>
      <point x="426" y="854"/>
      <point x="336" y="696"/>
      <point x="336" y="328"/>
      <point x="426" y="170"/>
      <point x="598" y="170"/>
      <point x="688" y="328"/>
      <point x="688" y="696"/>
      <point x="598" y="854"/>
    </contour>
  </outline>
</glyph>
<glyph name="p" format="2">
  <advance width="1024" height="1024"/>
  <unicode hex="0070"/>
  <outline>
    <contour>
      <point x="352" y="1024" type="qcurve" smooth="yes"/>
      <point x="512" y="1024" type="line" smooth="yes"/>
      <point x="712" y="1024"/>
      <point x="944" y="821"/>
      <point x="944" y="646" type="qcurve" smooth="yes"/>
      <point x="944" y="465"/>
      <point x="695" y="256"/>
      <point x="480" y="256" type="qcurve" smooth="yes"/>
      <point x="352" y="256" type="line"/>
      <point x="352" y="-256" type="line"/>
      <point x="96" y="-256" type="line"/>
      <point x="96" y="768" type="line" smooth="yes"/>
      <point x="96" y="906"/>
      <point x="227" y="1024"/>
    </contour>
    <contour>
      <point x="512" y="838" type="qcurve" smooth="yes"/>
      <point x="352" y="838"/>
      <point x="352" y="768" type="qcurve" smooth="yes"/>
      <point x="352" y="442" type="line"/>
      <point x="480" y="442" type="line" smooth="yes"/>
      <point x="577" y="442"/>
      <point x="688" y="551"/>
      <point x="688" y="646" type="qcurve" smooth="yes"/>
      <point x="688" y="735"/>
      <point x="594" y="838"/>
    </contour>
  </outline>
</glyph>
<glyph name="q" format="2">
  <advance width="1024" height="1024"/>
  <unicode hex="0071"/>
  <outline>
    <contour>
      <point x="544" y="1024" type="qcurve" smooth="yes"/>
      <point x="672" y="1024" type="line" smooth="yes"/>
      <point x="797" y="1024"/>
      <point x="928" y="906"/>
      <point x="928" y="768" type="qcurve" smooth="yes"/>
      <point x="928" y="-256" type="line"/>
      <point x="672" y="-256" type="line"/>
      <point x="672" y="256" type="line"/>
      <point x="512" y="256" type="line" smooth="yes"/>
      <point x="312" y="256"/>
      <point x="80" y="459"/>
      <point x="80" y="634" type="qcurve" smooth="yes"/>
      <point x="80" y="815"/>
      <point x="329" y="1024"/>
    </contour>
    <contour>
      <point x="544" y="838" type="qcurve" smooth="yes"/>
      <point x="447" y="838"/>
      <point x="336" y="729"/>
      <point x="336" y="634" type="qcurve" smooth="yes"/>
      <point x="336" y="545"/>
      <point x="430" y="442"/>
      <point x="512" y="442" type="qcurve" smooth="yes"/>
      <point x="672" y="442" type="line"/>
      <point x="672" y="768" type="line" smooth="yes"/>
      <point x="672" y="838"/>
    </contour>
  </outline>
</glyph>
<glyph name="r" format="2">
  <advance width="1024" height="1024"/>
  <unicode hex="0072"/>
  <outline>
    <contour>
      <point x="928" y="658" type="qcurve"/>
      <point x="672" y="658" type="line"/>
      <point x="672" y="764"/>
      <point x="590" y="854"/>
      <point x="512" y="854" type="qcurve" smooth="yes"/>
      <point x="468" y="854"/>
      <point x="388" y="838"/>
      <point x="370" y="830.5" type="qcurve" smooth="yes"/>
      <point x="352" y="823" type="line"/>
      <point x="352" y="0" type="line"/>
      <point x="96" y="0" type="line"/>
      <point x="96" y="936" type="line"/>
      <point x="102" y="940"/>
      <point x="127" y="954"/>
      <point x="210" y="990"/>
      <point x="300" y="1018"/>
      <point x="440" y="1040"/>
      <point x="512" y="1040" type="qcurve" smooth="yes"/>
      <point x="716" y="1040"/>
      <point x="928" y="864"/>
    </contour>
  </outline>
</glyph>
<glyph name="s" format="2">
  <advance width="1024" height="1024"/>
  <unicode hex="0073"/>
  <outline>
    <contour>
      <point x="667" y="1032" type="qcurve" smooth="yes"/>
      <point x="712" y="1032"/>
      <point x="795" y="1024"/>
      <point x="813.5" y="1020" type="qcurve" smooth="yes"/>
      <point x="832" y="1016" type="line"/>
      <point x="832" y="838" type="line"/>
      <point x="667" y="838" type="line" smooth="yes"/>
      <point x="536" y="838"/>
      <point x="400" y="788"/>
      <point x="400" y="731" type="qcurve" smooth="yes"/>
      <point x="400" y="687"/>
      <point x="453" y="626"/>
      <point x="538" y="591"/>
      <point x="640" y="561"/>
      <point x="742" y="522"/>
      <point x="827" y="465"/>
      <point x="880" y="363"/>
      <point x="880" y="292" type="qcurve" smooth="yes"/>
      <point x="880" y="209"/>
      <point x="806" y="91"/>
      <point x="661" y="23"/>
      <point x="467" y="-8"/>
      <point x="337" y="-8" type="qcurve" smooth="yes"/>
      <point x="289" y="-8"/>
      <point x="200" y="-0"/>
      <point x="180" y="4" type="qcurve" smooth="yes"/>
      <point x="160" y="8" type="line"/>
      <point x="160" y="186" type="line"/>
      <point x="337" y="186" type="line" smooth="yes"/>
      <point x="478" y="186"/>
      <point x="624" y="235"/>
      <point x="624" y="292" type="qcurve" smooth="yes"/>
      <point x="624" y="336"/>
      <point x="571" y="398"/>
      <point x="486" y="432"/>
      <point x="384" y="462"/>
      <point x="282" y="502"/>
      <point x="197" y="558"/>
      <point x="144" y="661"/>
      <point x="144" y="731" type="qcurve" smooth="yes"/>
      <point x="144" y="893"/>
      <point x="411" y="1032"/>
    </contour>
  </outline>
</glyph>
<glyph name="t" format="2">
  <advance width="1024" height="1024"/>
  <unicode hex="0074"/>
  <outline>
    <contour>
      <point x="864" y="8" type="line"/>
      <point x="804" y="-8"/>
      <point x="707" y="-8" type="qcurve" smooth="yes"/>
      <point x="504" y="-8"/>
      <point x="293" y="167"/>
      <point x="293" y="372" type="qcurve" smooth="yes"/>
      <point x="293" y="736" type="line"/>
      <point x="64" y="736" type="line"/>
      <point x="64" y="922" type="line"/>
      <point x="293" y="922" type="line"/>
      <point x="293" y="1280" type="line"/>
      <point x="549" y="1280" type="line"/>
      <point x="549" y="922" type="line"/>
      <point x="928" y="922" type="line"/>
      <point x="928" y="736" type="line"/>
      <point x="549" y="736" type="line"/>
      <point x="549" y="372" type="line" smooth="yes"/>
      <point x="549" y="271"/>
      <point x="629" y="186"/>
      <point x="707" y="186" type="qcurve" smooth="yes"/>
      <point x="864" y="186" type="line"/>
    </contour>
  </outline>
</glyph>
<glyph name="u" format="2">
  <advance width="1024" height="1024"/>
  <unicode hex="0075"/>
  <outline>
    <contour>
      <point x="96" y="1024" type="line"/>
      <point x="352" y="1024" type="line"/>
      <point x="352" y="366" type="line" smooth="yes"/>
      <point x="352" y="260"/>
      <point x="434" y="170"/>
      <point x="512" y="170" type="qcurve" smooth="yes"/>
      <point x="556" y="170"/>
      <point x="636" y="186"/>
      <point x="654" y="193.5" type="qcurve" smooth="yes"/>
      <point x="672" y="201" type="line"/>
      <point x="672" y="1024" type="line"/>
      <point x="928" y="1024" type="line"/>
      <point x="928" y="88" type="line"/>
      <point x="922" y="84"/>
      <point x="897" y="70"/>
      <point x="814" y="34"/>
      <point x="724" y="6"/>
      <point x="584" y="-16"/>
      <point x="512" y="-16" type="qcurve" smooth="yes"/>
      <point x="308" y="-16"/>
      <point x="96" y="160"/>
      <point x="96" y="366" type="qcurve" smooth="yes"/>
    </contour>
  </outline>
</glyph>
<glyph name="v" format="2">
  <advance width="1024" height="1024"/>
  <unicode hex="0076"/>
  <outline>
    <contour>
      <point x="693" y="1024" type="line"/>
      <point x="960" y="1024" type="line"/>
      <point x="658" y="0" type="line"/>
      <point x="366" y="0" type="line"/>
      <point x="64" y="1024" type="line"/>
      <point x="331" y="1024" type="line"/>
      <point x="443" y="645" type="line"/>
      <point x="512" y="322" type="line"/>
      <point x="581" y="645" type="line"/>
    </contour>
  </outline>
</glyph>
<glyph name="w" format="2">
  <advance width="1024" height="1024"/>
  <unicode hex="0077"/>
  <outline>
    <contour>
      <point x="32" y="1024" type="line"/>
      <point x="261" y="1024" type="line"/>
      <point x="306" y="645" type="line"/>
      <point x="326" y="322" type="line"/>
      <point x="384" y="645" type="line"/>
      <point x="427" y="768" type="line"/>
      <point x="597" y="768" type="line"/>
      <point x="640" y="645" type="line"/>
      <point x="698" y="322" type="line"/>
      <point x="718" y="645" type="line"/>
      <point x="763" y="1024" type="line"/>
      <point x="992" y="1024" type="line"/>
      <point x="870" y="0" type="line"/>
      <point x="666" y="0" type="line"/>
      <point x="512" y="445" type="line"/>
      <point x="358" y="0" type="line"/>
      <point x="154" y="0" type="line"/>
    </contour>
  </outline>
</glyph>
<glyph name="x" format="2">
  <advance width="1024" height="1024"/>
  <unicode hex="0078"/>
  <outline>
    <contour>
      <point x="64" y="1024" type="line"/>
      <point x="361" y="1024" type="line"/>
      <point x="512" y="704" type="line"/>
      <point x="663" y="1024" type="line"/>
      <point x="960" y="1024" type="line"/>
      <point x="660" y="512" type="line"/>
      <point x="960" y="0" type="line"/>
      <point x="663" y="0" type="line"/>
      <point x="512" y="320" type="line"/>
      <point x="361" y="0" type="line"/>
      <point x="64" y="0" type="line"/>
      <point x="364" y="512" type="line"/>
    </contour>
  </outline>
</glyph>
<glyph name="y" format="2">
  <advance width="1024" height="1024"/>
  <unicode hex="0079"/>
  <outline>
    <contour>
      <point x="96" y="1024" type="line"/>
      <point x="352" y="1024" type="line"/>
      <point x="352" y="566" type="line" smooth="yes"/>
      <point x="352" y="498"/>
      <point x="433" y="442"/>
      <point x="512" y="442" type="qcurve" smooth="yes"/>
      <point x="672" y="442" type="line"/>
      <point x="672" y="1024" type="line"/>
      <point x="928" y="1024" type="line"/>
      <point x="928" y="120" type="line" smooth="yes"/>
      <point x="928" y="14"/>
      <point x="850" y="-136"/>
      <point x="698" y="-224"/>
      <point x="493" y="-264"/>
      <point x="356" y="-264" type="qcurve" smooth="yes"/>
      <point x="302" y="-264"/>
      <point x="204" y="-256"/>
      <point x="182" y="-252" type="qcurve" smooth="yes"/>
      <point x="160" y="-248" type="line"/>
      <point x="160" y="-70" type="line"/>
      <point x="356" y="-70" type="line" smooth="yes"/>
      <point x="511" y="-70"/>
      <point x="672" y="17"/>
      <point x="672" y="120" type="qcurve" smooth="yes"/>
      <point x="672" y="256" type="line"/>
      <point x="512" y="256" type="line" smooth="yes"/>
      <point x="319" y="256"/>
      <point x="96" y="422"/>
      <point x="96" y="566" type="qcurve" smooth="yes"/>
    </contour>
  </outline>
</glyph>
<glyph name="z" format="2">
  <advance width="1024" height="1024"/>
  <unicode hex="007A"/>
  <outline>
    <contour>
      <point x="160" y="1024" type="line"/>
      <point x="864" y="1024" type="line"/>
      <point x="864" y="838" type="line"/>
      <point x="435" y="186" type="line"/>
      <point x="896" y="186" type="line"/>
      <point x="896" y="0" type="line"/>
      <point x="128" y="0" type="line"/>
      <point x="128" y="186" type="line"/>
      <point x="557" y="838" type="line"/>
      <point x="160" y="838" type="line"/>
    </contour>
  </outline>
</glyph>
<glyph name="braceleft" format="2">
  <advance width="1024" height="1024"/>
  <unicode hex="007B"/>
  <outline>
    <contour>
      <point x="696" y="1437" type="qcurve" smooth="yes"/>
      <point x="822" y="1437" type="line"/>
      <point x="822" y="1251" type="line"/>
      <point x="696" y="1251" type="line" smooth="yes"/>
      <point x="673" y="1251"/>
      <point x="636" y="1244"/>
      <point x="610" y="1226"/>
      <point x="591" y="1210"/>
      <point x="580" y="1174"/>
      <point x="573" y="1150"/>
      <point x="571" y="1098"/>
      <point x="570" y="1067"/>
      <point x="570" y="1034" type="qcurve" smooth="yes"/>
      <point x="570" y="693" type="line"/>
      <point x="384" y="661" type="line"/>
      <point x="384" y="520" type="line"/>
      <point x="570" y="488" type="line"/>
      <point x="570" y="147" type="line" smooth="yes"/>
      <point x="570" y="114"/>
      <point x="571" y="83"/>
      <point x="573" y="31"/>
      <point x="580" y="7"/>
      <point x="591" y="-29"/>
      <point x="610" y="-45"/>
      <point x="636" y="-63"/>
      <point x="673" y="-70"/>
      <point x="696" y="-70" type="qcurve" smooth="yes"/>
      <point x="822" y="-70" type="line"/>
      <point x="822" y="-256" type="line"/>
      <point x="696" y="-256" type="line" smooth="yes"/>
      <point x="486" y="-256"/>
      <point x="280" y="-39"/>
      <point x="317" y="147" type="qcurve" smooth="yes"/>
      <point x="384" y="488" type="line"/>
      <point x="64" y="488" type="line"/>
      <point x="64" y="693" type="line"/>
      <point x="384" y="693" type="line"/>
      <point x="317" y="1034" type="line" smooth="yes"/>
      <point x="280" y="1220"/>
      <point x="486" y="1437"/>
    </contour>
  </outline>
</glyph>
<glyph name="bar" format="2">
  <advance width="1024" height="1024"/>
  <unicode hex="007C"/>
  <outline>
    <contour>
      <point x="384" y="1437" type="line"/>
      <point x="640" y="1437" type="line"/>
      <point x="640" y="-256" type="line"/>
      <point x="384" y="-256" type="line"/>
    </contour>
  </outline>
</glyph>
<glyph name="braceright" format="2">
  <advance width="1024" height="1024"/>
  <unicode hex="007D"/>
  <outline>
    <contour>
      <point x="328" y="1437" type="line" smooth="yes"/>
      <point x="538" y="1437"/>
      <point x="744" y="1220"/>
      <point x="707" y="1034" type="qcurve" smooth="yes"/>
      <point x="640" y="693" type="line"/>
      <point x="960" y="693" type="line"/>
      <point x="960" y="488" type="line"/>
      <point x="640" y="488" type="line"/>
      <point x="707" y="147" type="line" smooth="yes"/>
      <point x="744" y="-39"/>
      <point x="538" y="-256"/>
      <point x="328" y="-256" type="qcurve" smooth="yes"/>
      <point x="202" y="-256" type="line"/>
      <point x="202" y="-70" type="line"/>
      <point x="328" y="-70" type="line" smooth="yes"/>
      <point x="351" y="-70"/>
      <point x="388" y="-63"/>
      <point x="414" y="-45"/>
      <point x="433" y="-29"/>
      <point x="444" y="7"/>
      <point x="451" y="31"/>
      <point x="453" y="83"/>
      <point x="454" y="114"/>
      <point x="454" y="147" type="qcurve" smooth="yes"/>
      <point x="454" y="488" type="line"/>
      <point x="640" y="520" type="line"/>
      <point x="640" y="661" type="line"/>
      <point x="454" y="693" type="line"/>
      <point x="454" y="1034" type="line" smooth="yes"/>
      <point x="454" y="1067"/>
      <point x="453" y="1098"/>
      <point x="451" y="1150"/>
      <point x="444" y="1174"/>
      <point x="433" y="1210"/>
      <point x="414" y="1226"/>
      <point x="388" y="1244"/>
      <point x="351" y="1251"/>
      <point x="328" y="1251" type="qcurve" smooth="yes"/>
      <point x="202" y="1251" type="line"/>
      <point x="202" y="1437" type="line"/>
    </contour>
  </outline>
</glyph>
<glyph name="asciitilde" format="2">
  <advance width="1024" height="1024"/>
  <unicode hex="007E"/>
  <outline>
    <contour>
      <point x="64" y="379" type="line"/>
      <point x="64" y="584"/>
      <point x="114" y="814"/>
      <point x="227" y="917"/>
      <point x="328" y="917" type="qcurve" smooth="yes"/>
      <point x="398" y="917"/>
      <point x="499" y="885"/>
      <point x="550" y="834"/>
      <point x="582" y="768"/>
      <point x="589" y="699"/>
      <point x="597" y="633"/>
      <point x="605" y="582"/>
      <point x="635" y="550"/>
      <point x="661" y="550" type="qcurve" smooth="yes"/>
      <point x="714" y="550"/>
      <point x="756" y="704"/>
      <point x="756" y="901" type="qcurve"/>
      <point x="960" y="901" type="line"/>
      <point x="960" y="599"/>
      <point x="845" y="364"/>
      <point x="696" y="364" type="qcurve" smooth="yes"/>
      <point x="626" y="364"/>
      <point x="525" y="396"/>
      <point x="474" y="447"/>
      <point x="442" y="513"/>
      <point x="435" y="582"/>
      <point x="427" y="648"/>
      <point x="419" y="699"/>
      <point x="389" y="731"/>
      <point x="363" y="731" type="qcurve" smooth="yes"/>
      <point x="310" y="731"/>
      <point x="268" y="576"/>
      <point x="268" y="379" type="qcurve"/>
    </contour>
  </outline>
</glyph>
<glyph name="currency" format="2">
  <advance width="1024" height="1024"/>
  <unicode hex="00A4"/>
  <outline>
    <contour>
      <point x="196" y="1248" type="line"/>
      <point x="349" y="999" type="line"/>
      <point x="419" y="1032"/>
      <point x="512" y="1032" type="qcurve" smooth="yes"/>
      <point x="604" y="1032"/>
      <point x="675" y="999" type="qcurve"/>
      <point x="828" y="1248" type="line"/>
      <point x="960" y="1164" type="line"/>
      <point x="791" y="908" type="line"/>
      <point x="872" y="804"/>
      <point x="872" y="476"/>
      <point x="791" y="372" type="qcurve"/>
      <point x="960" y="116" type="line"/>
      <point x="828" y="32" type="line"/>
      <point x="675" y="281" type="line"/>
      <point x="604" y="248"/>
      <point x="420" y="248"/>
      <point x="349" y="281" type="qcurve"/>
      <point x="196" y="32" type="line"/>
      <point x="64" y="116" type="line"/>
      <point x="233" y="372" type="line"/>
      <point x="152" y="476"/>
      <point x="152" y="804"/>
      <point x="233" y="908" type="qcurve"/>
      <point x="64" y="1164" type="line"/>
    </contour>
    <contour>
      <point x="418" y="886"/>
      <point x="309" y="754"/>
      <point x="309" y="526"/>
      <point x="418" y="394"/>
      <point x="606" y="394"/>
      <point x="715" y="526"/>
      <point x="715" y="754"/>
      <point x="606" y="886"/>
    </contour>
  </outline>
</glyph>
<glyph name="ordfeminine" format="2">
  <advance width="1024" height="1024"/>
  <unicode hex="00AA"/>
  <outline>
    <contour>
      <point x="408" y="1284" type="qcurve" smooth="yes"/>
      <point x="629" y="1284"/>
      <point x="800" y="1175"/>
      <point x="800" y="1034" type="qcurve" smooth="yes"/>
      <point x="800" y="648" type="line" smooth="yes"/>
      <point x="800" y="585"/>
      <point x="722" y="512"/>
      <point x="654" y="512" type="qcurve" smooth="yes"/>
      <point x="469" y="512" type="line" smooth="yes"/>
      <point x="352" y="512"/>
      <point x="216" y="644"/>
      <point x="216" y="759" type="qcurve" smooth="yes"/>
      <point x="216" y="854"/>
      <point x="352" y="964"/>
      <point x="469" y="964" type="qcurve" smooth="yes"/>
      <point x="654" y="964" type="line"/>
      <point x="654" y="1034" type="line" smooth="yes"/>
      <point x="654" y="1098"/>
      <point x="547" y="1148"/>
      <point x="408" y="1148" type="qcurve" smooth="yes"/>
      <point x="256" y="1148" type="line"/>
      <point x="256" y="1276" type="line"/>
      <point x="314" y="1284"/>
    </contour>
    <contour>
      <point x="469" y="828" type="line" smooth="yes"/>
      <point x="419" y="828"/>
      <point x="362" y="791"/>
      <point x="362" y="759" type="qcurve" smooth="yes"/>
      <point x="362" y="707"/>
      <point x="419" y="648"/>
      <point x="469" y="648" type="qcurve" smooth="yes"/>
      <point x="654" y="648" type="line"/>
      <point x="654" y="828" type="line"/>
    </contour>
    <contour>
      <point x="224" y="392" type="line"/>
      <point x="800" y="392" type="line"/>
      <point x="800" y="256" type="line"/>
      <point x="224" y="256" type="line"/>
    </contour>
  </outline>
</glyph>
<glyph name="logicalnot" format="2">
  <advance width="1024" height="1024"/>
  <unicode hex="00AC"/>
  <outline>
    <contour>
      <point x="128" y="719" type="line"/>
      <point x="896" y="719" type="line"/>
      <point x="896" y="256" type="line"/>
      <point x="739" y="256" type="line"/>
      <point x="739" y="561" type="line"/>
      <point x="128" y="561" type="line"/>
    </contour>
  </outline>
</glyph>
<glyph name="registered" format="2">
  <advance width="1024" height="1024"/>
  <unicode hex="00AE"/>
  <outline>
    <contour>
      <point x="735" y="1296"/>
      <point x="992" y="983"/>
      <point x="992" y="441"/>
      <point x="735" y="128"/>
      <point x="289" y="128"/>
      <point x="32" y="441"/>
      <point x="32" y="983"/>
      <point x="289" y="1296"/>
    </contour>
    <contour>
      <point x="352" y="1168"/>
      <point x="168" y="924"/>
      <point x="168" y="500"/>
      <point x="352" y="256"/>
      <point x="672" y="256"/>
      <point x="856" y="500"/>
      <point x="856" y="924"/>
      <point x="672" y="1168"/>
    </contour>
    <contour>
      <point x="288" y="1025" type="line"/>
      <point x="543" y="1025" type="line" smooth="yes"/>
      <point x="640" y="1025"/>
      <point x="752" y="915"/>
      <point x="752" y="821" type="qcurve" smooth="yes"/>
      <point x="752" y="720"/>
      <point x="646" y="675" type="qcurve"/>
      <point x="752" y="399" type="line"/>
      <point x="616" y="399" type="line"/>
      <point x="519" y="649" type="line"/>
      <point x="424" y="649" type="line"/>
      <point x="424" y="399" type="line"/>
      <point x="288" y="399" type="line"/>
    </contour>
    <contour>
      <point x="424" y="905" type="line"/>
      <point x="424" y="769" type="line"/>
      <point x="497" y="769" type="line" smooth="yes"/>
      <point x="552" y="769"/>
      <point x="616" y="797"/>
      <point x="616" y="821" type="qcurve" smooth="yes"/>
      <point x="616" y="860"/>
      <point x="577" y="905"/>
      <point x="543" y="905" type="qcurve" smooth="yes"/>
    </contour>
  </outline>
</glyph>
<glyph name="plusminus" format="2">
  <advance width="1024" height="1024"/>
  <unicode hex="00B1"/>
  <outline>
    <contour>
      <point x="434" y="1213" type="line"/>
      <point x="590" y="1213" type="line"/>
      <point x="590" y="876" type="line"/>
      <point x="928" y="876" type="line"/>
      <point x="928" y="719" type="line"/>
      <point x="590" y="719" type="line"/>
      <point x="590" y="381" type="line"/>
      <point x="434" y="381" type="line"/>
      <point x="434" y="719" type="line"/>
      <point x="96" y="719" type="line"/>
      <point x="96" y="876" type="line"/>
      <point x="434" y="876" type="line"/>
    </contour>
    <contour>
      <point x="128" y="256" type="line"/>
      <point x="896" y="256" type="line"/>
      <point x="896" y="99" type="line"/>
      <point x="128" y="99" type="line"/>
    </contour>
  </outline>
</glyph>
<glyph name="acute" format="2">
  <advance width="1024" height="1024"/>
  <unicode hex="00B4"/>
  <outline>
    <contour>
      <point x="749" y="1141" type="line"/>
      <point x="379" y="787" type="line"/>
      <point x="275" y="891" type="line"/>
      <point x="629" y="1261" type="line"/>
    </contour>
  </outline>
</glyph>
<glyph name="guillemotright" format="2">
  <advance width="1024" height="1024"/>
  <unicode hex="00BB"/>
  <outline>
    <contour>
      <point x="634" y="1102" type="line"/>
      <point x="928" y="640" type="line"/>
      <point x="634" y="178" type="line"/>
      <point x="511" y="256" type="line"/>
      <point x="755" y="640" type="line"/>
      <point x="511" y="1024" type="line"/>
    </contour>
    <contour>
      <point x="219" y="1102" type="line"/>
      <point x="513" y="640" type="line"/>
      <point x="219" y="178" type="line"/>
      <point x="96" y="256" type="line"/>
      <point x="340" y="640" type="line"/>
      <point x="96" y="1024" type="line"/>
    </contour>
  </outline>
</glyph>
<glyph name="onehalf" format="2">
  <advance width="1024" height="1024"/>
  <unicode hex="00BD"/>
  <outline>
    <contour>
      <point x="208" y="1280" type="line"/>
      <point x="344" y="1280" type="line"/>
      <point x="344" y="640" type="line"/>
      <point x="208" y="640" type="line"/>
      <point x="208" y="1099" type="line"/>
      <point x="123" y="1014" type="line"/>
      <point x="32" y="1104" type="line"/>
    </contour>
    <contour>
      <point x="803" y="1280" type="line"/>
      <point x="960" y="1280" type="line"/>
      <point x="221" y="0" type="line"/>
      <point x="64" y="0" type="line"/>
    </contour>
    <contour>
      <point x="881" y="648"/>
      <point x="992" y="541"/>
      <point x="992" y="448" type="qcurve" smooth="yes"/>
      <point x="992" y="419"/>
      <point x="984" y="386"/>
      <point x="930" y="312"/>
      <point x="874" y="256" type="qcurve" smooth="yes"/>
      <point x="746" y="128" type="line"/>
      <point x="992" y="128" type="line"/>
      <point x="992" y="0" type="line"/>
      <point x="576" y="0" type="line"/>
      <point x="576" y="128" type="line"/>
      <point x="789" y="341" type="line" smooth="yes"/>
      <point x="825" y="377"/>
      <point x="859" y="419"/>
      <point x="864" y="436"/>
      <point x="864" y="448" type="qcurve" smooth="yes"/>
      <point x="864" y="481"/>
      <point x="821" y="520"/>
      <point x="747" y="520"/>
      <point x="704" y="481"/>
      <point x="704" y="448" type="qcurve"/>
      <point x="576" y="448" type="line"/>
      <point x="576" y="541"/>
      <point x="687" y="648"/>
    </contour>
  </outline>
</glyph>
<glyph name="threequarters" format="2">
  <advance width="1024" height="1024"/>
  <unicode hex="00BE"/>
  <outline>
    <contour>
      <point x="153" y="1284" type="qcurve" smooth="yes"/>
      <point x="288" y="1284"/>
      <point x="432" y="1194"/>
      <point x="432" y="1092" type="qcurve" smooth="yes"/>
      <point x="432" y="1054"/>
      <point x="372" y="997"/>
      <point x="342" y="987.5" type="qcurve" smooth="yes"/>
      <point x="312" y="978" type="line"/>
      <point x="318" y="977"/>
      <point x="336" y="970"/>
      <point x="383" y="946"/>
      <point x="419" y="916"/>
      <point x="448" y="863"/>
      <point x="448" y="832" type="qcurve" smooth="yes"/>
      <point x="448" y="728"/>
      <point x="289" y="636"/>
      <point x="139" y="636" type="qcurve" smooth="yes"/>
      <point x="110" y="636"/>
      <point x="56" y="640"/>
      <point x="44" y="642" type="qcurve" smooth="yes"/>
      <point x="32" y="644" type="line"/>
      <point x="32" y="760" type="line"/>
      <point x="139" y="760" type="line" smooth="yes"/>
      <point x="312" y="760"/>
      <point x="312" y="904"/>
      <point x="198" y="904" type="qcurve" smooth="yes"/>
      <point x="128" y="904" type="line"/>
      <point x="128" y="1024" type="line"/>
      <point x="192" y="1024" type="line" smooth="yes"/>
      <point x="296" y="1024"/>
      <point x="296" y="1160"/>
      <point x="153" y="1160" type="qcurve" smooth="yes"/>
      <point x="64" y="1160" type="line"/>
      <point x="64" y="1276" type="line"/>
      <point x="98" y="1284"/>
    </contour>
    <contour>
      <point x="803" y="1280" type="line"/>
      <point x="960" y="1280" type="line"/>
      <point x="221" y="0" type="line"/>
      <point x="64" y="0" type="line"/>
    </contour>
    <contour>
      <point x="734" y="640" type="line"/>
      <point x="916" y="640" type="line"/>
      <point x="916" y="256" type="line"/>
      <point x="992" y="256" type="line"/>
      <point x="992" y="128" type="line"/>
      <point x="916" y="128" type="line"/>
      <point x="916" y="0" type="line"/>
      <point x="780" y="0" type="line"/>
      <point x="780" y="128" type="line"/>
      <point x="512" y="128" type="line"/>
      <point x="512" y="256" type="line"/>
    </contour>
    <contour>
      <point x="780" y="485" type="line"/>
      <point x="648" y="256" type="line"/>
      <point x="780" y="256" type="line"/>
    </contour>
  </outline>
</glyph>
<glyph name="germandbls" format="2">
  <advance width="1024" height="1024"/>
  <unicode hex="00DF"/>
  <outline>
    <contour>
      <point x="512" y="1288" type="qcurve" smooth="yes"/>
      <point x="668" y="1288"/>
      <point x="848" y="1147"/>
      <point x="848" y="1024" type="qcurve" smooth="yes"/>
      <point x="848" y="968"/>
      <point x="807" y="883"/>
      <point x="749" y="832"/>
      <point x="691" y="788"/>
      <point x="650" y="733"/>
      <point x="650" y="699" type="qcurve" smooth="yes"/>
      <point x="650" y="658"/>
      <point x="711" y="589"/>
      <point x="797" y="531"/>
      <point x="883" y="459"/>
      <point x="944" y="337"/>
      <point x="944" y="256" type="qcurve" smooth="yes"/>
      <point x="944" y="134"/>
      <point x="765" y="-8"/>
      <point x="611" y="-8" type="qcurve" smooth="yes"/>
      <point x="566" y="-8"/>
      <point x="485" y="-0"/>
      <point x="466.5" y="4" type="qcurve" smooth="yes"/>
      <point x="448" y="8" type="line"/>
      <point x="448" y="157" type="line"/>
      <point x="611" y="157" type="line" smooth="yes"/>
      <point x="687" y="157"/>
      <point x="774" y="210"/>
      <point x="774" y="256" type="qcurve" smooth="yes"/>
      <point x="774" y="308"/>
      <point x="730" y="393"/>
      <point x="665" y="447"/>
      <point x="589" y="507"/>
      <point x="524" y="562"/>
      <point x="480" y="647"/>
      <point x="480" y="699" type="qcurve" smooth="yes"/>
      <point x="480" y="745"/>
      <point x="511" y="820"/>
      <point x="558" y="865"/>
      <point x="613" y="910"/>
      <point x="660" y="944"/>
      <point x="691" y="994"/>
      <point x="691" y="1024" type="qcurve" smooth="yes"/>
      <point x="691" y="1131"/>
      <point x="512" y="1131" type="qcurve" smooth="yes"/>
      <point x="407" y="1131"/>
      <point x="298" y="963"/>
      <point x="298" y="768" type="qcurve" smooth="yes"/>
      <point x="298" y="0" type="line"/>
      <point x="128" y="0" type="line"/>
      <point x="128" y="768" type="line" smooth="yes"/>
      <point x="128" y="912"/>
      <point x="180" y="1115"/>
      <point x="283" y="1234"/>
      <point x="420" y="1288"/>
    </contour>
  </outline>
</glyph>
<glyph name="ae" format="2">
  <advance width="1024" height="1024"/>
  <unicode hex="00E6"/>
  <outline>
    <contour>
      <point x="225" y="1032" type="qcurve" smooth="yes"/>
      <point x="419" y="1032"/>
      <point x="517" y="916" type="qcurve"/>
      <point x="589" y="1032"/>
      <point x="716" y="1032" type="qcurve" smooth="yes"/>
      <point x="844" y="1032"/>
      <point x="992" y="830"/>
      <point x="992" y="656" type="qcurve" smooth="yes"/>
      <point x="992" y="585" type="line" smooth="yes"/>
      <point x="992" y="503"/>
      <point x="924" y="439"/>
      <point x="835" y="439" type="qcurve" smooth="yes"/>
      <point x="591" y="439" type="line"/>
      <point x="591" y="433"/>
      <point x="592" y="412"/>
      <point x="601" y="351"/>
      <point x="617" y="296"/>
      <point x="651" y="228"/>
      <point x="697" y="179"/>
      <point x="772" y="146"/>
      <point x="819" y="146" type="qcurve" smooth="yes"/>
      <point x="960" y="146" type="line"/>
      <point x="960" y="8" type="line"/>
      <point x="906" y="-8"/>
      <point x="819" y="-8" type="qcurve" smooth="yes"/>
      <point x="643" y="-8"/>
      <point x="549" y="96" type="qcurve"/>
      <point x="495" y="-8"/>
      <point x="337" y="-8" type="qcurve" smooth="yes"/>
      <point x="192" y="-8"/>
      <point x="24" y="172"/>
      <point x="24" y="327" type="qcurve" smooth="yes"/>
      <point x="24" y="446"/>
      <point x="160" y="585"/>
      <point x="277" y="585" type="qcurve" smooth="yes"/>
      <point x="433" y="585" type="line"/>
      <point x="433" y="696" type="line" smooth="yes"/>
      <point x="433" y="780"/>
      <point x="322" y="878"/>
      <point x="225" y="878" type="qcurve" smooth="yes"/>
      <point x="96" y="878" type="line"/>
      <point x="96" y="1016" type="line"/>
      <point x="138" y="1032"/>
    </contour>
    <contour>
      <point x="716" y="886" type="qcurve" smooth="yes"/>
      <point x="681" y="886"/>
      <point x="630" y="824"/>
      <point x="606" y="736"/>
      <point x="593" y="647"/>
      <point x="592" y="616" type="qcurve" smooth="yes"/>
      <point x="591" y="585" type="line"/>
      <point x="835" y="585" type="line"/>
      <point x="835" y="656" type="line" smooth="yes"/>
      <point x="835" y="763"/>
      <point x="771" y="886"/>
    </contour>
    <contour>
      <point x="277" y="439" type="line" smooth="yes"/>
      <point x="233" y="439"/>
      <point x="181" y="379"/>
      <point x="181" y="327" type="qcurve" smooth="yes"/>
      <point x="181" y="239"/>
      <point x="265" y="138"/>
      <point x="337" y="138" type="qcurve" smooth="yes"/>
      <point x="361" y="138"/>
      <point x="394" y="154"/>
      <point x="415" y="198"/>
      <point x="427" y="237"/>
      <point x="432" y="323"/>
      <point x="433" y="379"/>
      <point x="433" y="438.983" type="qcurve" smooth="yes"/>
    </contour>
  </outline>
</glyph>
<glyph name="eth" format="2">
  <advance width="1024" height="1024"/>
  <unicode hex="00F0"/>
  <outline>
    <contour>
      <point x="224" y="1280" type="line"/>
      <point x="429" y="1280" type="line"/>
      <point x="508" y="1225"/>
      <point x="601" y="1122" type="qcurve"/>
      <point x="864" y="1162" type="line"/>
      <point x="864" y="1024" type="line"/>
      <point x="700" y="999" type="line"/>
      <point x="912" y="704"/>
      <point x="912" y="380" type="qcurve" smooth="yes"/>
      <point x="912" y="196"/>
      <point x="697" y="-16"/>
      <point x="327" y="-16"/>
      <point x="112" y="196"/>
      <point x="112" y="564"/>
      <point x="327" y="776"/>
      <point x="512" y="776" type="qcurve" smooth="yes"/>
      <point x="554" y="776"/>
      <point x="631" y="760"/>
      <point x="648.5" y="752" type="qcurve" smooth="yes"/>
      <point x="666" y="744" type="line"/>
      <point x="625" y="842"/>
      <point x="559" y="937" type="qcurve"/>
      <point x="224" y="886" type="line"/>
      <point x="224" y="1024" type="line"/>
      <point x="464" y="1061" type="line"/>
      <point x="409" y="1124"/>
      <point x="289" y="1233"/>
      <point x="256.5" y="1256.5" type="qcurve" smooth="yes"/>
    </contour>
    <contour>
      <point x="512" y="619" type="qcurve" smooth="yes"/>
      <point x="405" y="619"/>
      <point x="282" y="491"/>
      <point x="282" y="269"/>
      <point x="405" y="141"/>
      <point x="619" y="141"/>
      <point x="742" y="269"/>
      <point x="742" y="380" type="qcurve" smooth="yes"/>
      <point x="742" y="429"/>
      <point x="733" y="518"/>
      <point x="728.5" y="538" type="qcurve" smooth="yes"/>
      <point x="724" y="558" type="line"/>
      <point x="715" y="565"/>
      <point x="681" y="585"/>
      <point x="570" y="619"/>
    </contour>
  </outline>
</glyph>
<glyph name="oslash" format="2">
  <advance width="1024" height="1024"/>
  <unicode hex="00F8"/>
  <outline>
    <contour>
      <point x="783" y="1152" type="line"/>
      <point x="928" y="1152" type="line"/>
      <point x="814" y="939" type="line"/>
      <point x="944" y="814"/>
      <point x="944" y="512" type="qcurve" smooth="yes"/>
      <point x="944" y="366"/>
      <point x="885" y="160"/>
      <point x="770" y="39"/>
      <point x="616" y="-16"/>
      <point x="512" y="-16" type="qcurve" smooth="yes"/>
      <point x="399" y="-16"/>
      <point x="318" y="16" type="qcurve"/>
      <point x="241" y="-128" type="line"/>
      <point x="96" y="-128" type="line"/>
      <point x="210" y="85" type="line"/>
      <point x="80" y="210"/>
      <point x="80" y="512" type="qcurve" smooth="yes"/>
      <point x="80" y="658"/>
      <point x="139" y="864"/>
      <point x="254" y="985"/>
      <point x="408" y="1040"/>
      <point x="512" y="1040" type="qcurve" smooth="yes"/>
      <point x="625" y="1040"/>
      <point x="706" y="1008" type="qcurve"/>
    </contour>
    <contour>
      <point x="512" y="883" type="qcurve" smooth="yes"/>
      <point x="384" y="883"/>
      <point x="250" y="712"/>
      <point x="250" y="512" type="qcurve" smooth="yes"/>
      <point x="250" y="341"/>
      <point x="300" y="253" type="qcurve"/>
      <point x="627" y="862" type="line"/>
      <point x="579" y="883"/>
    </contour>
    <contour>
      <point x="724" y="771" type="qcurve"/>
      <point x="397" y="162" type="line"/>
      <point x="445" y="141"/>
      <point x="512" y="141" type="qcurve" smooth="yes"/>
      <point x="640" y="141"/>
      <point x="774" y="312"/>
      <point x="774" y="512" type="qcurve" smooth="yes"/>
      <point x="774" y="683"/>
    </contour>
  </outline>
</glyph>
<glyph name="thorn" format="2">
  <advance width="1024" height="1024"/>
  <unicode hex="00FE"/>
  <outline>
    <contour>
      <point x="128" y="1280" type="line"/>
      <point x="298" y="1280" type="line"/>
      <point x="298" y="948.938" type="line"/>
      <point x="301.465" y="951.988"/>
      <point x="314.555" y="962.113"/>
      <point x="358.671" y="987.994"/>
      <point x="406.818" y="1007.77"/>
      <point x="481.639" y="1024"/>
      <point x="520" y="1024" type="qcurve" smooth="yes"/>
      <point x="702" y="1024"/>
      <point x="912" y="821"/>
      <point x="912" y="646" type="qcurve" smooth="yes"/>
      <point x="912" y="465"/>
      <point x="674" y="256"/>
      <point x="468" y="256" type="qcurve" smooth="yes"/>
      <point x="298" y="256" type="line"/>
      <point x="298" y="-256" type="line"/>
      <point x="128" y="-256" type="line"/>
    </contour>
    <contour>
      <point x="520" y="867" type="qcurve" smooth="yes"/>
      <point x="482" y="867"/>
      <point x="408" y="847"/>
      <point x="357" y="818"/>
      <point x="317" y="788"/>
      <point x="307.5" y="778" type="qcurve" smooth="yes"/>
      <point x="298" y="768" type="line"/>
      <point x="298" y="413" type="line"/>
      <point x="468" y="413" type="line" smooth="yes"/>
      <point x="595" y="413"/>
      <point x="742" y="538"/>
      <point x="742" y="646" type="qcurve" smooth="yes"/>
      <point x="742" y="749"/>
      <point x="623" y="867"/>
    </contour>
  </outline>
</glyph>
<glyph name="dcaron" format="2">
  <advance width="1024" height="1024"/>
  <unicode hex="010F"/>
  <outline>
    <contour>
      <point x="512" y="1280" type="line"/>
      <point x="669" y="1280" type="line"/>
      <point x="669" y="157" type="line" smooth="yes"/>
      <point x="669" y="69"/>
      <point x="600" y="0"/>
      <point x="512" y="0" type="qcurve" smooth="yes"/>
      <point x="400" y="0" type="line" smooth="yes"/>
      <point x="237" y="0"/>
      <point x="48" y="261"/>
      <point x="48" y="488" type="qcurve" smooth="yes"/>
      <point x="48" y="736"/>
      <point x="228" y="1024"/>
      <point x="384" y="1024" type="qcurve" smooth="yes"/>
      <point x="449.317" y="1024"/>
      <point x="512" y="1006.33" type="qcurve"/>
    </contour>
    <contour>
      <point x="878" y="1280" type="line"/>
      <point x="1024" y="1280" type="line"/>
      <point x="1024" y="1248" type="line"/>
      <point x="896" y="1024" type="line"/>
      <point x="768" y="1024" type="line"/>
      <point x="768" y="1056" type="line"/>
    </contour>
    <contour>
      <point x="384" y="867" type="qcurve" smooth="yes"/>
      <point x="307" y="867"/>
      <point x="218" y="664"/>
      <point x="218" y="488" type="qcurve" smooth="yes"/>
      <point x="218" y="334"/>
      <point x="316" y="157"/>
      <point x="400" y="157" type="qcurve" smooth="yes"/>
      <point x="512" y="157" type="line"/>
      <point x="512" y="846.967" type="line"/>
      <point x="449.316" y="867"/>
    </contour>
  </outline>
</glyph>
<glyph name="hbar" format="2">
  <advance width="1024" height="1024"/>
  <unicode hex="0127"/>
  <outline>
    <contour>
      <point x="128" y="1280" type="line"/>
      <point x="298" y="1280" type="line"/>
      <point x="298" y="1103" type="line"/>
      <point x="576" y="1103" type="line"/>
      <point x="576" y="945" type="line"/>
      <point x="298" y="945" type="line"/>
      <point x="298" y="740" type="line"/>
      <point x="404" y="768"/>
      <point x="512" y="768" type="qcurve" smooth="yes"/>
      <point x="700" y="768"/>
      <point x="896" y="599"/>
      <point x="896" y="402" type="qcurve" smooth="yes"/>
      <point x="896" y="0" type="line"/>
      <point x="726" y="0" type="line"/>
      <point x="726" y="402" type="line" smooth="yes"/>
      <point x="723" y="515"/>
      <point x="616" y="611"/>
      <point x="512" y="611" type="qcurve" smooth="yes"/>
      <point x="401" y="611"/>
      <point x="298" y="580" type="qcurve"/>
      <point x="298" y="0" type="line"/>
      <point x="128" y="0" type="line"/>
      <point x="128" y="945" type="line"/>
      <point x="0" y="945" type="line"/>
      <point x="0" y="1103" type="line"/>
      <point x="128" y="1103" type="line"/>
    </contour>
  </outline>
</glyph>
<glyph name="IJ" format="2">
  <advance width="1024" height="1024"/>
  <unicode hex="0132"/>
  <outline>
    <contour>
      <point x="96" y="1280" type="line"/>
      <point x="266" y="1280" type="line"/>
      <point x="266" y="0" type="line"/>
      <point x="96" y="0" type="line"/>
    </contour>
    <contour>
      <point x="758" y="1280" type="line"/>
      <point x="928" y="1280" type="line"/>
      <point x="928" y="526" type="line" smooth="yes"/>
      <point x="928" y="225"/>
      <point x="772" y="-8"/>
      <point x="570" y="-8" type="qcurve" smooth="yes"/>
      <point x="538" y="-8"/>
      <point x="480" y="-0"/>
      <point x="467" y="4" type="qcurve" smooth="yes"/>
      <point x="454" y="8" type="line"/>
      <point x="454" y="157" type="line"/>
      <point x="570" y="157" type="line" smooth="yes"/>
      <point x="676" y="157"/>
      <point x="758" y="318"/>
      <point x="758" y="526" type="qcurve" smooth="yes"/>
    </contour>
  </outline>
</glyph>
<glyph name="Lslash" format="2">
  <advance width="1024" height="1024"/>
  <unicode hex="0141"/>
  <outline>
    <contour>
      <point x="160" y="1280" type="line"/>
      <point x="330" y="1280" type="line"/>
      <point x="330" y="852" type="line"/>
      <point x="640" y="1024" type="line"/>
      <point x="640" y="868" type="line"/>
      <point x="330" y="696" type="line"/>
      <point x="330" y="157" type="line"/>
      <point x="896" y="157" type="line"/>
      <point x="896" y="0" type="line"/>
      <point x="160" y="0" type="line"/>
      <point x="160" y="601" type="line"/>
      <point x="0" y="512" type="line"/>
      <point x="0" y="668" type="line"/>
      <point x="160" y="757" type="line"/>
    </contour>
  </outline>
</glyph>
<glyph name="Eng" format="2">
  <advance width="1024" height="1024"/>
  <unicode hex="014A"/>
  <outline>
    <contour>
      <point x="512" y="1296" type="qcurve" smooth="yes"/>
      <point x="716" y="1296"/>
      <point x="928" y="1120"/>
      <point x="928" y="914" type="qcurve" smooth="yes"/>
      <point x="928" y="472" type="line" smooth="yes"/>
      <point x="928" y="297"/>
      <point x="855" y="80"/>
      <point x="729" y="-8"/>
      <point x="635" y="-8" type="qcurve" smooth="yes"/>
      <point x="594" y="-8"/>
      <point x="516" y="23"/>
      <point x="462" y="68"/>
      <point x="420" y="113"/>
      <point x="410" y="128.5" type="qcurve" smooth="yes"/>
      <point x="400" y="144" type="line"/>
      <point x="512" y="256" type="line"/>
      <point x="514" y="252"/>
      <point x="521" y="239"/>
      <point x="546" y="204"/>
      <point x="572" y="178"/>
      <point x="614" y="157"/>
      <point x="635" y="157" type="qcurve" smooth="yes"/>
      <point x="695" y="157"/>
      <point x="758" y="302"/>
      <point x="758" y="472" type="qcurve" smooth="yes"/>
      <point x="758" y="914" type="line" smooth="yes"/>
      <point x="758" y="1035"/>
      <point x="633" y="1139"/>
      <point x="512" y="1139" type="qcurve" smooth="yes"/>
      <point x="444" y="1139"/>
      <point x="321" y="1117"/>
      <point x="293.5" y="1106" type="qcurve" smooth="yes"/>
      <point x="266" y="1095" type="line"/>
      <point x="266" y="0" type="line"/>
      <point x="96" y="0" type="line"/>
      <point x="96" y="1192" type="line"/>
      <point x="102" y="1196"/>
      <point x="127" y="1210"/>
      <point x="210" y="1246"/>
      <point x="300" y="1274"/>
      <point x="440" y="1296"/>
    </contour>
  </outline>
</glyph>
<glyph name="Tbar" format="2">
  <advance width="1024" height="1024"/>
  <unicode hex="0166"/>
  <outline>
    <contour>
      <point x="64" y="1280" type="line"/>
      <point x="960" y="1280" type="line"/>
      <point x="960" y="1123" type="line"/>
      <point x="597" y="1123" type="line"/>
      <point x="597" y="768" type="line"/>
      <point x="832" y="768" type="line"/>
      <point x="832" y="611" type="line"/>
      <point x="597" y="611" type="line"/>
      <point x="597" y="0" type="line"/>
      <point x="427" y="0" type="line"/>
      <point x="427" y="611" type="line"/>
      <point x="192" y="611" type="line"/>
      <point x="192" y="768" type="line"/>
      <point x="427" y="768" type="line"/>
      <point x="427" y="1123" type="line"/>
      <point x="64" y="1123" type="line"/>
    </contour>
  </outline>
</glyph>
<glyph name="longs" format="2">
  <advance width="1024" height="1024"/>
  <unicode hex="017F"/>
  <outline>
    <contour>
      <point x="426" y="0" type="line"/>
      <point x="256" y="0" type="line"/>
      <point x="256" y="768" type="line" smooth="yes"/>
      <point x="256" y="912"/>
      <point x="313" y="1115"/>
      <point x="426" y="1234"/>
      <point x="576" y="1288"/>
      <point x="677" y="1288" type="qcurve" smooth="yes"/>
      <point x="730" y="1288"/>
      <point x="807" y="1280"/>
      <point x="819.5" y="1276" type="qcurve" smooth="yes"/>
      <point x="832" y="1272" type="line"/>
      <point x="832" y="1123" type="line"/>
      <point x="677" y="1123" type="line" smooth="yes"/>
      <point x="554" y="1123"/>
      <point x="426" y="959"/>
      <point x="426" y="768" type="qcurve" smooth="yes"/>
    </contour>
  </outline>
</glyph>
<glyph name="uni0180" format="2">
  <advance width="1024" height="1024"/>
  <unicode hex="0180"/>
  <outline>
    <contour>
      <point x="298" y="1280" type="line"/>
      <point x="298" y="1103" type="line"/>
      <point x="576" y="1103" type="line"/>
      <point x="576" y="945" type="line"/>
      <point x="298" y="945" type="line"/>
      <point x="298" y="740" type="line"/>
      <point x="404" y="768"/>
      <point x="512" y="768" type="qcurve" smooth="yes"/>
      <point x="697" y="768"/>
      <point x="912" y="565"/>
      <point x="912" y="390" type="qcurve" smooth="yes"/>
      <point x="912" y="209"/>
      <point x="674" y="0"/>
      <point x="468" y="0" type="qcurve" smooth="yes"/>
      <point x="384" y="0" type="line" smooth="yes"/>
      <point x="240" y="0"/>
      <point x="128" y="112"/>
      <point x="128" y="256" type="qcurve" smooth="yes"/>
      <point x="128" y="945" type="line"/>
      <point x="0" y="945" type="line"/>
      <point x="0" y="1103" type="line"/>
      <point x="128" y="1103" type="line"/>
      <point x="128" y="1280" type="line"/>
    </contour>
    <contour>
      <point x="512" y="611" type="qcurve" smooth="yes"/>
      <point x="401" y="611"/>
      <point x="298" y="580" type="qcurve"/>
      <point x="298" y="256" type="line" smooth="yes"/>
      <point x="298" y="210"/>
      <point x="344" y="157"/>
      <point x="384" y="157" type="qcurve" smooth="yes"/>
      <point x="468" y="157" type="line" smooth="yes"/>
      <point x="595" y="157"/>
      <point x="742" y="282"/>
      <point x="742" y="390" type="qcurve" smooth="yes"/>
      <point x="742" y="493"/>
      <point x="619" y="611"/>
    </contour>
  </outline>
</glyph>
<glyph name="uni0184" format="2">
  <advance width="1024" height="1024"/>
  <unicode hex="0184"/>
  <outline>
    <contour>
      <point x="330" y="1280" type="line"/>
      <point x="330" y="768" type="line"/>
      <point x="512" y="768" type="line" smooth="yes"/>
      <point x="712" y="768"/>
      <point x="944" y="562"/>
      <point x="944" y="206"/>
      <point x="712" y="0"/>
      <point x="512" y="0" type="qcurve" smooth="yes"/>
      <point x="160" y="0" type="line"/>
      <point x="160" y="1024" type="line"/>
      <point x="32" y="1106" type="line"/>
      <point x="32" y="1138" type="line"/>
    </contour>
    <contour>
      <point x="330" y="611" type="line"/>
      <point x="330" y="157" type="line"/>
      <point x="512" y="157" type="line" smooth="yes"/>
      <point x="633" y="157"/>
      <point x="774" y="279"/>
      <point x="774" y="489"/>
      <point x="633" y="611"/>
      <point x="512" y="611" type="qcurve" smooth="yes"/>
    </contour>
  </outline>
</glyph>
<glyph name="uni0187" format="2">
  <advance width="1024" height="1024"/>
  <unicode hex="0187"/>
  <outline>
    <contour>
      <point x="665" y="1288" type="qcurve" smooth="yes"/>
      <point x="760" y="1288" type="line"/>
      <point x="760" y="1405"/>
      <point x="847" y="1540"/>
      <point x="923" y="1540" type="qcurve" smooth="yes"/>
      <point x="951" y="1540"/>
      <point x="1001" y="1536"/>
      <point x="1012.5" y="1534" type="qcurve" smooth="yes"/>
      <point x="1024" y="1532" type="line"/>
      <point x="1024" y="1404" type="line"/>
      <point x="999" y="1404"/>
      <point x="975" y="1403"/>
      <point x="938" y="1396"/>
      <point x="922" y="1381"/>
      <point x="903" y="1354"/>
      <point x="896" y="1310"/>
      <point x="896" y="1280" type="qcurve" smooth="yes"/>
      <point x="896" y="1123" type="line"/>
      <point x="665" y="1123" type="line" smooth="yes"/>
      <point x="491" y="1123"/>
      <point x="290" y="864"/>
      <point x="290" y="640" type="qcurve" smooth="yes"/>
      <point x="290" y="380"/>
      <point x="481" y="157"/>
      <point x="665" y="157" type="qcurve" smooth="yes"/>
      <point x="896" y="157" type="line"/>
      <point x="896" y="8" type="line"/>
      <point x="808" y="-8"/>
      <point x="665" y="-8" type="qcurve" smooth="yes"/>
      <point x="532" y="-8"/>
      <point x="335" y="59"/>
      <point x="187" y="207"/>
      <point x="112" y="461"/>
      <point x="112" y="640" type="qcurve" smooth="yes"/>
      <point x="112" y="940"/>
      <point x="409" y="1288"/>
    </contour>
  </outline>
</glyph>
<glyph name="uni0188" format="2">
  <advance width="1024" height="1024"/>
  <unicode hex="0188"/>
  <outline>
    <contour>
      <point x="891" y="1284" type="qcurve" smooth="yes"/>
      <point x="919" y="1284"/>
      <point x="969" y="1280"/>
      <point x="980.5" y="1278" type="qcurve" smooth="yes"/>
      <point x="992" y="1276" type="line"/>
      <point x="992" y="1148" type="line"/>
      <point x="967" y="1148"/>
      <point x="943" y="1147"/>
      <point x="906" y="1140"/>
      <point x="890" y="1125"/>
      <point x="871" y="1098"/>
      <point x="864" y="1054"/>
      <point x="864" y="1024" type="qcurve" smooth="yes"/>
      <point x="864" y="867" type="line"/>
      <point x="642" y="867" type="line" smooth="yes"/>
      <point x="475" y="867"/>
      <point x="282" y="676"/>
      <point x="282" y="512" type="qcurve" smooth="yes"/>
      <point x="282" y="321"/>
      <point x="466" y="157"/>
      <point x="642" y="157" type="qcurve" smooth="yes"/>
      <point x="864" y="157" type="line"/>
      <point x="864" y="8" type="line"/>
      <point x="779" y="-8"/>
      <point x="642" y="-8" type="qcurve" smooth="yes"/>
      <point x="544" y="-8"/>
      <point x="386" y="25"/>
      <point x="252" y="101"/>
      <point x="162" y="220"/>
      <point x="112" y="397"/>
      <point x="112" y="512" type="qcurve" smooth="yes"/>
      <point x="112" y="751"/>
      <point x="403" y="1032"/>
      <point x="642" y="1032" type="qcurve" smooth="yes"/>
      <point x="728" y="1032" type="line"/>
      <point x="728" y="1149"/>
      <point x="815" y="1284"/>
    </contour>
  </outline>
</glyph>
<glyph name="uni018C" format="2">
  <advance width="1024" height="1024"/>
  <unicode hex="018C"/>
  <outline>
    <contour>
      <point x="256" y="1280" type="line"/>
      <point x="896" y="1280" type="line"/>
      <point x="896" y="256" type="line" smooth="yes"/>
      <point x="896" y="112"/>
      <point x="784" y="0"/>
      <point x="640" y="0" type="qcurve" smooth="yes"/>
      <point x="556" y="0" type="line" smooth="yes"/>
      <point x="350" y="0"/>
      <point x="112" y="242"/>
      <point x="112" y="450" type="qcurve" smooth="yes"/>
      <point x="112" y="670"/>
      <point x="327" y="925"/>
      <point x="512" y="925" type="qcurve" smooth="yes"/>
      <point x="621" y="925"/>
      <point x="726" y="880" type="qcurve"/>
      <point x="726" y="1123" type="line"/>
      <point x="256" y="1123" type="line"/>
    </contour>
    <contour>
      <point x="512" y="768" type="qcurve" smooth="yes"/>
      <point x="405" y="768"/>
      <point x="282" y="598"/>
      <point x="282" y="450" type="qcurve" smooth="yes"/>
      <point x="282" y="314"/>
      <point x="429" y="157"/>
      <point x="556" y="157" type="qcurve" smooth="yes"/>
      <point x="640" y="157" type="line" smooth="yes"/>
      <point x="680" y="157"/>
      <point x="726" y="210"/>
      <point x="726" y="256" type="qcurve" smooth="yes"/>
      <point x="726" y="715" type="line"/>
      <point x="622" y="768"/>
    </contour>
  </outline>
</glyph>
<glyph name="florin" format="2">
  <advance width="1024" height="1024"/>
  <unicode hex="0192"/>
  <outline>
    <contour>
      <point x="779" y="1445" type="qcurve" smooth="yes"/>
      <point x="829" y="1445"/>
      <point x="919" y="1437"/>
      <point x="939.5" y="1433" type="qcurve" smooth="yes"/>
      <point x="960" y="1429" type="line"/>
      <point x="960" y="1280" type="line"/>
      <point x="779" y="1280" type="line" smooth="yes"/>
      <point x="676" y="1280"/>
      <point x="597" y="1125"/>
      <point x="597" y="925" type="qcurve"/>
      <point x="960" y="925" type="line"/>
      <point x="960" y="768" type="line"/>
      <point x="597" y="768" type="line"/>
      <point x="597" y="157" type="line" smooth="yes"/>
      <point x="597" y="-70"/>
      <point x="437" y="-264"/>
      <point x="282" y="-264" type="qcurve" smooth="yes"/>
      <point x="257" y="-264"/>
      <point x="212" y="-256"/>
      <point x="202" y="-252" type="qcurve" smooth="yes"/>
      <point x="192" y="-248" type="line"/>
      <point x="192" y="-99" type="line"/>
      <point x="282" y="-99" type="line" smooth="yes"/>
      <point x="353" y="-99"/>
      <point x="427" y="19"/>
      <point x="427" y="157" type="qcurve" smooth="yes"/>
      <point x="427" y="768" type="line"/>
      <point x="128" y="768" type="line"/>
      <point x="128" y="925" type="line"/>
      <point x="427" y="925" type="line"/>
      <point x="427" y="1218"/>
      <point x="581" y="1445"/>
    </contour>
  </outline>
</glyph>
<glyph name="uni0194" format="2">
  <advance width="1024" height="1024"/>
  <unicode hex="0194"/>
  <outline>
    <contour>
      <point x="32" y="1280" type="line"/>
      <point x="222" y="1280" type="line"/>
      <point x="512" y="702" type="line"/>
      <point x="802" y="1280" type="line"/>
      <point x="992" y="1280" type="line"/>
      <point x="607" y="512" type="line"/>
      <point x="896" y="0" type="line"/>
      <point x="128" y="0" type="line"/>
      <point x="417" y="512" type="line"/>
    </contour>
    <contour>
      <point x="512" y="382" type="line"/>
      <point x="379" y="146" type="line"/>
      <point x="645" y="146" type="line"/>
    </contour>
  </outline>
</glyph>
<glyph name="uni0195" format="2">
  <advance width="1024" height="1024"/>
  <unicode hex="0195"/>
  <outline>
    <contour>
      <point x="64" y="1280" type="line"/>
      <point x="234" y="1280" type="line"/>
      <point x="234" y="1024" type="line"/>
      <point x="308" y="1024" type="line" smooth="yes"/>
      <point x="450" y="1024"/>
      <point x="597" y="844"/>
      <point x="597" y="633" type="qcurve" smooth="yes"/>
      <point x="597" y="391" type="line" smooth="yes"/>
      <point x="597" y="260"/>
      <point x="646" y="149"/>
      <point x="694" y="149" type="qcurve" smooth="yes"/>
      <point x="741" y="149"/>
      <point x="790" y="260"/>
      <point x="790" y="391" type="qcurve" smooth="yes"/>
      <point x="790" y="1024" type="line"/>
      <point x="960" y="1024" type="line"/>
      <point x="960" y="391" type="line" smooth="yes"/>
      <point x="960" y="176"/>
      <point x="825" y="-8"/>
      <point x="563" y="-8"/>
      <point x="427" y="176"/>
      <point x="427" y="391" type="qcurve" smooth="yes"/>
      <point x="427" y="633" type="line" smooth="yes"/>
      <point x="427" y="759"/>
      <point x="367" y="867"/>
      <point x="308" y="867" type="qcurve" smooth="yes"/>
      <point x="234" y="867" type="line"/>
      <point x="234" y="0" type="line"/>
      <point x="64" y="0" type="line"/>
    </contour>
  </outline>
</glyph>
<glyph name="uni0199" format="2">
  <advance width="1024" height="1024"/>
  <unicode hex="0199"/>
  <outline>
    <contour>
      <point x="430" y="1288" type="qcurve" smooth="yes"/>
      <point x="453" y="1288"/>
      <point x="494" y="1280"/>
      <point x="503" y="1276" type="qcurve" smooth="yes"/>
      <point x="512" y="1272" type="line"/>
      <point x="512" y="1123" type="line"/>
      <point x="430" y="1123" type="line" smooth="yes"/>
      <point x="365" y="1123"/>
      <point x="298" y="1005"/>
      <point x="298" y="867" type="qcurve" smooth="yes"/>
      <point x="298" y="656" type="line"/>
      <point x="721" y="1024" type="line"/>
      <point x="960" y="1024" type="line"/>
      <point x="497" y="621" type="line"/>
      <point x="960" y="0" type="line"/>
      <point x="764" y="0" type="line"/>
      <point x="298" y="624" type="line"/>
      <point x="298" y="0" type="line"/>
      <point x="128" y="0" type="line"/>
      <point x="128" y="867" type="line" smooth="yes"/>
      <point x="128" y="1094"/>
      <point x="282" y="1288"/>
    </contour>
  </outline>
</glyph>
<glyph name="uni019D" format="2">
  <advance width="1024" height="1024"/>
  <unicode hex="019D"/>
  <outline>
    <contour>
      <point x="160" y="1280" type="line"/>
      <point x="364" y="1280" type="line"/>
      <point x="715" y="512" type="line"/>
      <point x="826" y="256" type="line"/>
      <point x="822" y="512" type="line"/>
      <point x="822" y="1280" type="line"/>
      <point x="992" y="1280" type="line"/>
      <point x="992" y="0" type="line"/>
      <point x="787" y="0" type="line"/>
      <point x="437" y="768" type="line"/>
      <point x="326" y="1024" type="line"/>
      <point x="330" y="768" type="line"/>
      <point x="330" y="157" type="line" smooth="yes"/>
      <point x="330" y="-70"/>
      <point x="193" y="-264"/>
      <point x="61" y="-264" type="qcurve" smooth="yes"/>
      <point x="45" y="-264"/>
      <point x="14" y="-256"/>
      <point x="7" y="-252" type="qcurve" smooth="yes"/>
      <point x="0" y="-248" type="line"/>
      <point x="0" y="-99" type="line"/>
      <point x="61" y="-99" type="line" smooth="yes"/>
      <point x="109" y="-99"/>
      <point x="160" y="19"/>
      <point x="160" y="157" type="qcurve" smooth="yes"/>
    </contour>
  </outline>
</glyph>
<glyph name="uni019E" format="2">
  <advance width="1024" height="1024"/>
  <unicode hex="019E"/>
  <outline>
    <contour>
      <point x="512" y="1040" type="qcurve" smooth="yes"/>
      <point x="700" y="1040"/>
      <point x="896" y="864"/>
      <point x="896" y="658" type="qcurve" smooth="yes"/>
      <point x="896" y="-256" type="line"/>
      <point x="726" y="-256" type="line"/>
      <point x="726" y="658" type="line" smooth="yes"/>
      <point x="726" y="779"/>
      <point x="617" y="883"/>
      <point x="512" y="883" type="qcurve" smooth="yes"/>
      <point x="453" y="883"/>
      <point x="346" y="861"/>
      <point x="322" y="850" type="qcurve" smooth="yes"/>
      <point x="298" y="839" type="line"/>
      <point x="298" y="0" type="line"/>
      <point x="128" y="0" type="line"/>
      <point x="128" y="936" type="line"/>
      <point x="134" y="940"/>
      <point x="157" y="954"/>
      <point x="233" y="990"/>
      <point x="316" y="1018"/>
      <point x="446" y="1040"/>
    </contour>
  </outline>
</glyph>
<glyph name="ohorn" format="2">
  <advance width="1024" height="1024"/>
  <unicode hex="01A1"/>
  <outline>
    <contour>
      <point x="854" y="1152" type="qcurve"/>
      <point x="1024" y="1152" type="line"/>
      <point x="1024" y="912"/>
      <point x="895" y="815" type="qcurve"/>
      <point x="944" y="697"/>
      <point x="944" y="512" type="qcurve" smooth="yes"/>
      <point x="944" y="366"/>
      <point x="885" y="160"/>
      <point x="770" y="39"/>
      <point x="616" y="-16"/>
      <point x="408" y="-16"/>
      <point x="254" y="39"/>
      <point x="139" y="160"/>
      <point x="80" y="366"/>
      <point x="80" y="658"/>
      <point x="139" y="864"/>
      <point x="254" y="985"/>
      <point x="408" y="1040"/>
      <point x="512" y="1040" type="qcurve" smooth="yes"/>
      <point x="710" y="1040"/>
      <point x="814" y="939" type="qcurve"/>
      <point x="854" y="1000"/>
    </contour>
    <contour>
      <point x="384" y="883"/>
      <point x="250" y="712"/>
      <point x="250" y="312"/>
      <point x="384" y="141"/>
      <point x="640" y="141"/>
      <point x="774" y="312"/>
      <point x="774" y="712"/>
      <point x="640" y="883"/>
    </contour>
  </outline>
</glyph>
<glyph name="uni01A2" format="2">
  <advance width="1024" height="1024"/>
  <unicode hex="01A2"/>
  <outline>
    <contour>
      <point x="360" y="1288" type="qcurve" smooth="yes"/>
      <point x="509" y="1288"/>
      <point x="578" y="1179" type="qcurve"/>
      <point x="790" y="1280" type="line"/>
      <point x="960" y="1280" type="line"/>
      <point x="960" y="0" type="line"/>
      <point x="790" y="0" type="line"/>
      <point x="790" y="1106" type="line"/>
      <point x="618" y="1024" type="line"/>
      <point x="618" y="256" type="line" smooth="yes"/>
      <point x="618" y="132"/>
      <point x="476" y="-8"/>
      <point x="360" y="-8" type="qcurve" smooth="yes"/>
      <point x="248" y="-8"/>
      <point x="114" y="113"/>
      <point x="48" y="397"/>
      <point x="48" y="883"/>
      <point x="114" y="1167"/>
      <point x="248" y="1288"/>
    </contour>
    <contour>
      <point x="360" y="1131" type="qcurve" smooth="yes"/>
      <point x="288" y="1131"/>
      <point x="218" y="907"/>
      <point x="218" y="373"/>
      <point x="288" y="149"/>
      <point x="360" y="149" type="qcurve" smooth="yes"/>
      <point x="401" y="149"/>
      <point x="448" y="204"/>
      <point x="448" y="256" type="qcurve" smooth="yes"/>
      <point x="448" y="1024" type="line" smooth="yes"/>
      <point x="448" y="1076"/>
      <point x="401" y="1131"/>
    </contour>
  </outline>
</glyph>
<glyph name="uni01A4" format="2">
  <advance width="1024" height="1024"/>
  <unicode hex="01A4"/>
  <outline>
    <contour>
      <point x="256" y="1280" type="qcurve" smooth="yes"/>
      <point x="641" y="1280" type="line" smooth="yes"/>
      <point x="781" y="1280"/>
      <point x="944" y="1074"/>
      <point x="944" y="718"/>
      <point x="737" y="512"/>
      <point x="559" y="512" type="qcurve" smooth="yes"/>
      <point x="426" y="512" type="line"/>
      <point x="426" y="0" type="line"/>
      <point x="256" y="0" type="line"/>
      <point x="256" y="1123" type="line"/>
      <point x="225" y="1123"/>
      <point x="185" y="1100"/>
      <point x="164" y="1070"/>
      <point x="154" y="1000"/>
      <point x="152" y="950"/>
      <point x="152" y="896" type="qcurve"/>
      <point x="20" y="896" type="line"/>
      <point x="12" y="952"/>
      <point x="12" y="1043" type="qcurve" smooth="yes"/>
      <point x="12" y="1153"/>
      <point x="143" y="1280"/>
    </contour>
    <contour>
      <point x="426" y="1123" type="line"/>
      <point x="426" y="669" type="line"/>
      <point x="559" y="669" type="line" smooth="yes"/>
      <point x="659" y="669"/>
      <point x="774" y="791"/>
      <point x="774" y="1001"/>
      <point x="703" y="1123"/>
      <point x="641" y="1123" type="qcurve" smooth="yes"/>
    </contour>
  </outline>
</glyph>
<glyph name="uni01A5" format="2">
  <advance width="1024" height="1024"/>
  <unicode hex="01A5"/>
  <outline>
    <contour>
      <point x="430" y="1445" type="qcurve" smooth="yes"/>
      <point x="453" y="1445"/>
      <point x="494" y="1437"/>
      <point x="503" y="1433" type="qcurve" smooth="yes"/>
      <point x="512" y="1429" type="line"/>
      <point x="512" y="1280" type="line"/>
      <point x="430" y="1280" type="line" smooth="yes"/>
      <point x="365" y="1280"/>
      <point x="298" y="1162"/>
      <point x="298" y="1024" type="qcurve"/>
      <point x="512" y="1024" type="line" smooth="yes"/>
      <point x="697" y="1024"/>
      <point x="912" y="821"/>
      <point x="912" y="646" type="qcurve" smooth="yes"/>
      <point x="912" y="465"/>
      <point x="674" y="256"/>
      <point x="468" y="256" type="qcurve" smooth="yes"/>
      <point x="298" y="256" type="line"/>
      <point x="298" y="-256" type="line"/>
      <point x="128" y="-256" type="line"/>
      <point x="128" y="1024" type="line" smooth="yes"/>
      <point x="128" y="1251"/>
      <point x="282" y="1445"/>
    </contour>
    <contour>
      <point x="298" y="867" type="line"/>
      <point x="298" y="413" type="line"/>
      <point x="468" y="413" type="line" smooth="yes"/>
      <point x="595" y="413"/>
      <point x="742" y="538"/>
      <point x="742" y="646" type="qcurve" smooth="yes"/>
      <point x="742" y="749"/>
      <point x="619" y="867"/>
      <point x="512" y="867" type="qcurve" smooth="yes"/>
    </contour>
  </outline>
</glyph>
<glyph name="uni01A8" format="2">
  <advance width="1024" height="1024"/>
  <unicode hex="01A8"/>
  <outline>
    <contour>
      <point x="390" y="1032" type="qcurve" smooth="yes"/>
      <point x="630" y="1032"/>
      <point x="880" y="893"/>
      <point x="880" y="731" type="qcurve" smooth="yes"/>
      <point x="880" y="669"/>
      <point x="831" y="574"/>
      <point x="752" y="519"/>
      <point x="650" y="476"/>
      <point x="544" y="452"/>
      <point x="442" y="421"/>
      <point x="363" y="389"/>
      <point x="314" y="331"/>
      <point x="314" y="292" type="qcurve" smooth="yes"/>
      <point x="314" y="219"/>
      <point x="487" y="157"/>
      <point x="654" y="157" type="qcurve" smooth="yes"/>
      <point x="864" y="157" type="line"/>
      <point x="864" y="8" type="line"/>
      <point x="784" y="-8"/>
      <point x="654" y="-8" type="qcurve" smooth="yes"/>
      <point x="404" y="-8"/>
      <point x="144" y="130"/>
      <point x="144" y="292" type="qcurve" smooth="yes"/>
      <point x="144" y="363"/>
      <point x="206" y="465"/>
      <point x="306" y="522"/>
      <point x="427" y="561"/>
      <point x="548" y="591"/>
      <point x="648" y="626"/>
      <point x="710" y="687"/>
      <point x="710" y="731" type="qcurve" smooth="yes"/>
      <point x="710" y="804"/>
      <point x="547" y="867"/>
      <point x="390" y="867" type="qcurve" smooth="yes"/>
      <point x="192" y="867" type="line"/>
      <point x="192" y="1016" type="line"/>
      <point x="268" y="1032"/>
    </contour>
  </outline>
</glyph>
<glyph name="uni01AA" format="2">
  <advance width="1024" height="1024"/>
  <unicode hex="01AA"/>
  <outline>
    <contour>
      <point x="447" y="1408"/>
      <point x="597" y="1258"/>
      <point x="597" y="1152" type="qcurve" smooth="yes"/>
      <point x="597" y="157" type="line" smooth="yes"/>
      <point x="597" y="19"/>
      <point x="692" y="-99"/>
      <point x="782" y="-99" type="qcurve" smooth="yes"/>
      <point x="896" y="-99" type="line"/>
      <point x="896" y="-248" type="line"/>
      <point x="852" y="-264"/>
      <point x="782" y="-264" type="qcurve" smooth="yes"/>
      <point x="608" y="-264"/>
      <point x="427" y="-70"/>
      <point x="427" y="157" type="qcurve" smooth="yes"/>
      <point x="427" y="911" type="line"/>
      <point x="387" y="896"/>
      <point x="341" y="896" type="qcurve" smooth="yes"/>
      <point x="235" y="896"/>
      <point x="85" y="1046"/>
      <point x="85" y="1258"/>
      <point x="235" y="1408"/>
    </contour>
    <contour>
      <point x="292" y="1272"/>
      <point x="221" y="1202"/>
      <point x="221" y="1102"/>
      <point x="292" y="1032"/>
      <point x="390" y="1032"/>
      <point x="461" y="1102"/>
      <point x="461" y="1202"/>
      <point x="390" y="1272"/>
    </contour>
  </outline>
</glyph>
<glyph name="uni01AB" format="2">
  <advance width="1024" height="1024"/>
  <unicode hex="01AB"/>
  <outline>
    <contour>
      <point x="342" y="1280" type="line"/>
      <point x="512" y="1280" type="line"/>
      <point x="512" y="925" type="line"/>
      <point x="928" y="925" type="line"/>
      <point x="928" y="768" type="line"/>
      <point x="512" y="768" type="line"/>
      <point x="512" y="314" type="line" smooth="yes"/>
      <point x="512" y="229"/>
      <point x="610" y="157"/>
      <point x="704" y="157" type="qcurve" smooth="yes"/>
      <point x="864" y="157" type="line"/>
      <point x="864" y="0" type="line" smooth="yes"/>
      <point x="864" y="-128"/>
      <point x="835" y="-288"/>
      <point x="762" y="-385"/>
      <point x="655" y="-421"/>
      <point x="568" y="-421" type="qcurve" smooth="yes"/>
      <point x="547" y="-421"/>
      <point x="509" y="-413"/>
      <point x="500.5" y="-409" type="qcurve" smooth="yes"/>
      <point x="492" y="-405" type="line"/>
      <point x="492" y="-256" type="line"/>
      <point x="568" y="-256" type="line" smooth="yes"/>
      <point x="638" y="-256"/>
      <point x="694" y="-143"/>
      <point x="694" y="0" type="qcurve"/>
      <point x="521" y="0"/>
      <point x="342" y="145"/>
      <point x="342" y="314" type="qcurve" smooth="yes"/>
      <point x="342" y="768" type="line"/>
      <point x="64" y="768" type="line"/>
      <point x="64" y="925" type="line"/>
      <point x="342" y="925" type="line"/>
    </contour>
  </outline>
</glyph>
<glyph name="uni01AD" format="2">
  <advance width="1024" height="1024"/>
  <unicode hex="01AD"/>
  <outline>
    <contour>
      <point x="644" y="1288" type="qcurve" smooth="yes"/>
      <point x="667" y="1288"/>
      <point x="708" y="1280"/>
      <point x="717" y="1276" type="qcurve" smooth="yes"/>
      <point x="726" y="1272" type="line"/>
      <point x="726" y="1123" type="line"/>
      <point x="644" y="1123" type="line" smooth="yes"/>
      <point x="579" y="1123"/>
      <point x="512" y="1032"/>
      <point x="512" y="925" type="qcurve"/>
      <point x="928" y="925" type="line"/>
      <point x="928" y="768" type="line"/>
      <point x="512" y="768" type="line"/>
      <point x="512" y="314" type="line" smooth="yes"/>
      <point x="512" y="229"/>
      <point x="610" y="157"/>
      <point x="704" y="157" type="qcurve" smooth="yes"/>
      <point x="864" y="157" type="line"/>
      <point x="864" y="8" type="line"/>
      <point x="803" y="-8"/>
      <point x="704" y="-8" type="qcurve" smooth="yes"/>
      <point x="526" y="-8"/>
      <point x="342" y="140"/>
      <point x="342" y="314" type="qcurve" smooth="yes"/>
      <point x="342" y="768" type="line"/>
      <point x="64" y="768" type="line"/>
      <point x="64" y="925" type="line"/>
      <point x="342" y="925" type="line"/>
      <point x="342" y="1120"/>
      <point x="496" y="1288"/>
    </contour>
  </outline>
</glyph>
<glyph name="Uhorn" format="2">
  <advance width="1024" height="1024"/>
  <unicode hex="01AF"/>
  <outline>
    <contour>
      <point x="854" y="1408" type="qcurve"/>
      <point x="1024" y="1408" type="line"/>
      <point x="1024" y="1327"/>
      <point x="993" y="1196"/>
      <point x="947" y="1118"/>
      <point x="885" y="1062"/>
      <point x="836" y="1038"/>
      <point x="810" y="1031" type="qcurve"/>
      <point x="810" y="576" type="line" smooth="yes"/>
      <point x="810" y="413"/>
      <point x="755" y="181"/>
      <point x="647" y="45"/>
      <point x="502" y="-16"/>
      <point x="308" y="-16"/>
      <point x="163" y="45"/>
      <point x="55" y="181"/>
      <point x="0" y="413"/>
      <point x="0" y="576" type="qcurve" smooth="yes"/>
      <point x="0" y="1280" type="line"/>
      <point x="170" y="1280" type="line"/>
      <point x="170" y="576" type="line"/>
      <point x="150" y="141"/>
      <point x="405" y="141" type="qcurve" smooth="yes"/>
      <point x="520" y="141"/>
      <point x="640" y="342"/>
      <point x="640" y="576" type="qcurve" smooth="yes"/>
      <point x="640" y="1280" type="line"/>
      <point x="810" y="1280" type="line"/>
      <point x="810" y="1190" type="line"/>
      <point x="854" y="1251"/>
    </contour>
  </outline>
</glyph>
<glyph name="uni01B2" format="2">
  <advance width="1024" height="1024"/>
  <unicode hex="01B2"/>
  <outline>
    <contour>
      <point x="606" y="1288" type="qcurve" smooth="yes"/>
      <point x="764" y="1288"/>
      <point x="928" y="1094"/>
      <point x="928" y="867" type="qcurve" smooth="yes"/>
      <point x="928" y="576" type="line" smooth="yes"/>
      <point x="928" y="406"/>
      <point x="886" y="185"/>
      <point x="787" y="43"/>
      <point x="631" y="-16"/>
      <point x="393" y="-16"/>
      <point x="237" y="43"/>
      <point x="138" y="185"/>
      <point x="96" y="406"/>
      <point x="96" y="576" type="qcurve" smooth="yes"/>
      <point x="96" y="1280" type="line"/>
      <point x="266" y="1280" type="line"/>
      <point x="266" y="576" type="line" smooth="yes"/>
      <point x="266" y="331"/>
      <point x="373" y="141"/>
      <point x="651" y="141"/>
      <point x="758" y="331"/>
      <point x="758" y="576" type="qcurve" smooth="yes"/>
      <point x="758" y="867" type="line" smooth="yes"/>
      <point x="758" y="1005"/>
      <point x="680" y="1123"/>
      <point x="606" y="1123" type="qcurve" smooth="yes"/>
      <point x="512" y="1123" type="line"/>
      <point x="512" y="1272" type="line"/>
      <point x="548" y="1288"/>
    </contour>
  </outline>
</glyph>
<glyph name="uni01B3" format="2">
  <advance width="1024" height="1024"/>
  <unicode hex="01B3"/>
  <outline>
    <contour>
      <point x="32" y="1280" type="line"/>
      <point x="223" y="1280" type="line"/>
      <point x="512" y="700" type="line"/>
      <point x="712" y="1101" type="line" smooth="yes"/>
      <point x="740" y="1157"/>
      <point x="767" y="1205"/>
      <point x="816" y="1266"/>
      <point x="869" y="1288"/>
      <point x="905" y="1288" type="qcurve" smooth="yes"/>
      <point x="938" y="1288"/>
      <point x="997" y="1280"/>
      <point x="1010.5" y="1276" type="qcurve" smooth="yes"/>
      <point x="1024" y="1272" type="line"/>
      <point x="1024" y="1123" type="line"/>
      <point x="989" y="1123"/>
      <point x="962" y="1123"/>
      <point x="924" y="1114"/>
      <point x="913" y="1108"/>
      <point x="888" y="1078"/>
      <point x="876" y="1054"/>
      <point x="860" y="1024" type="qcurve" smooth="yes"/>
      <point x="597" y="512" type="line"/>
      <point x="597" y="0" type="line"/>
      <point x="427" y="0" type="line"/>
      <point x="427" y="512" type="line"/>
    </contour>
  </outline>
</glyph>
<glyph name="uni01B5" format="2">
  <advance width="1024" height="1024"/>
  <unicode hex="01B5"/>
  <outline>
    <contour>
      <point x="128" y="1280" type="line"/>
      <point x="896" y="1280" type="line"/>
      <point x="896" y="1123" type="line"/>
      <point x="671" y="768" type="line"/>
      <point x="864" y="768" type="line"/>
      <point x="864" y="611" type="line"/>
      <point x="571" y="611" type="line"/>
      <point x="283" y="157" type="line"/>
      <point x="928" y="157" type="line"/>
      <point x="928" y="0" type="line"/>
      <point x="96" y="0" type="line"/>
      <point x="96" y="157" type="line"/>
      <point x="384" y="611" type="line"/>
      <point x="160" y="611" type="line"/>
      <point x="160" y="768" type="line"/>
      <point x="484" y="768" type="line"/>
      <point x="709" y="1123" type="line"/>
      <point x="128" y="1123" type="line"/>
    </contour>
  </outline>
</glyph>
<glyph name="uni01B8" format="2">
  <advance width="1024" height="1024"/>
  <unicode hex="01B8"/>
  <outline>
    <contour>
      <point x="128" y="1280" type="line"/>
      <point x="896" y="1280" type="line"/>
      <point x="896" y="1123" type="line"/>
      <point x="360" y="1123" type="line"/>
      <point x="744" y="768" type="line"/>
      <point x="744" y="611" type="line"/>
      <point x="555" y="611" type="line" smooth="yes"/>
      <point x="413" y="611"/>
      <point x="250" y="518"/>
      <point x="250" y="438" type="qcurve" smooth="yes"/>
      <point x="250" y="286"/>
      <point x="464" y="157"/>
      <point x="669" y="157" type="qcurve" smooth="yes"/>
      <point x="928" y="157" type="line"/>
      <point x="928" y="8" type="line"/>
      <point x="829" y="-8"/>
      <point x="669" y="-8" type="qcurve" smooth="yes"/>
      <point x="528" y="-8"/>
      <point x="317" y="38"/>
      <point x="160" y="140"/>
      <point x="80" y="315"/>
      <point x="80" y="438" type="qcurve" smooth="yes"/>
      <point x="80" y="591"/>
      <point x="312" y="768"/>
      <point x="512" y="768" type="qcurve"/>
      <point x="128" y="1123" type="line"/>
    </contour>
  </outline>
</glyph>
<glyph name="uni01BB" format="2">
  <advance width="1024" height="1024"/>
  <unicode hex="01BB"/>
  <outline>
    <contour>
      <point x="682" y="1296"/>
      <point x="880" y="1136"/>
      <point x="880" y="997" type="qcurve" smooth="yes"/>
      <point x="880" y="951"/>
      <point x="875" y="902"/>
      <point x="844" y="818"/>
      <point x="811" y="768" type="qcurve"/>
      <point x="896" y="768" type="line"/>
      <point x="896" y="611" type="line"/>
      <point x="692" y="611" type="line"/>
      <point x="329" y="157" type="line"/>
      <point x="896" y="157" type="line"/>
      <point x="896" y="0" type="line"/>
      <point x="128" y="0" type="line"/>
      <point x="128" y="157" type="line"/>
      <point x="491" y="611" type="line"/>
      <point x="192" y="611" type="line"/>
      <point x="192" y="768" type="line"/>
      <point x="616" y="768" type="line"/>
      <point x="661" y="824"/>
      <point x="703" y="909"/>
      <point x="710" y="954"/>
      <point x="710" y="997" type="qcurve" smooth="yes"/>
      <point x="710" y="1063"/>
      <point x="604" y="1139"/>
      <point x="420" y="1139"/>
      <point x="314" y="1063"/>
      <point x="314" y="997" type="qcurve"/>
      <point x="144" y="1024" type="line"/>
      <point x="144" y="1150"/>
      <point x="342" y="1296"/>
    </contour>
  </outline>
</glyph>
<glyph name="uni01BC" format="2">
  <advance width="1024" height="1024"/>
  <unicode hex="01BC"/>
  <outline>
    <contour>
      <point x="64" y="1280" type="line"/>
      <point x="864" y="1280" type="line"/>
      <point x="864" y="1123" type="line"/>
      <point x="429" y="1123" type="line"/>
      <point x="362" y="768" type="line"/>
      <point x="512" y="768" type="line" smooth="yes"/>
      <point x="697" y="768"/>
      <point x="912" y="591"/>
      <point x="912" y="438" type="qcurve" smooth="yes"/>
      <point x="912" y="229"/>
      <point x="618" y="-8"/>
      <point x="363" y="-8" type="qcurve" smooth="yes"/>
      <point x="299" y="-8"/>
      <point x="181" y="-0"/>
      <point x="154.5" y="4" type="qcurve" smooth="yes"/>
      <point x="128" y="8" type="line"/>
      <point x="128" y="157" type="line"/>
      <point x="363" y="157" type="line" smooth="yes"/>
      <point x="543" y="157"/>
      <point x="742" y="298"/>
      <point x="742" y="438" type="qcurve" smooth="yes"/>
      <point x="742" y="518"/>
      <point x="619" y="611"/>
      <point x="512" y="611" type="qcurve" smooth="yes"/>
      <point x="160" y="611" type="line"/>
      <point x="256" y="1123" type="line"/>
      <point x="64" y="1123" type="line"/>
    </contour>
  </outline>
</glyph>
<glyph name="uni01BD" format="2">
  <advance width="1024" height="1024"/>
  <unicode hex="01BD"/>
  <outline>
    <contour>
      <point x="128" y="1024" type="line"/>
      <point x="864" y="1024" type="line"/>
      <point x="864" y="867" type="line"/>
      <point x="449" y="867" type="line"/>
      <point x="388" y="591" type="line"/>
      <point x="512" y="591" type="line" smooth="yes"/>
      <point x="708" y="591"/>
      <point x="912" y="454"/>
      <point x="912" y="295" type="qcurve" smooth="yes"/>
      <point x="912" y="157"/>
      <point x="627" y="-8"/>
      <point x="382" y="-8" type="qcurve" smooth="yes"/>
      <point x="321" y="-8"/>
      <point x="210" y="-0"/>
      <point x="185" y="4" type="qcurve" smooth="yes"/>
      <point x="160" y="8" type="line"/>
      <point x="160" y="157" type="line"/>
      <point x="382" y="157" type="line" smooth="yes"/>
      <point x="548" y="157"/>
      <point x="742" y="231"/>
      <point x="742" y="295" type="qcurve" smooth="yes"/>
      <point x="742" y="370"/>
      <point x="625" y="433"/>
      <point x="512" y="433" type="qcurve" smooth="yes"/>
      <point x="192" y="433" type="line"/>
      <point x="288" y="867" type="line"/>
      <point x="128" y="867" type="line"/>
    </contour>
  </outline>
</glyph>
<glyph name="uni01BF" format="2">
  <advance width="1024" height="1024"/>
  <unicode hex="01BF"/>
  <outline>
    <contour>
      <point x="384" y="1024" type="qcurve" smooth="yes"/>
      <point x="572" y="1024" type="line" smooth="yes"/>
      <point x="730" y="1024"/>
      <point x="912" y="855"/>
      <point x="912" y="710" type="qcurve" smooth="yes"/>
      <point x="912" y="618"/>
      <point x="826" y="446"/>
      <point x="700" y="319"/>
      <point x="525" y="203"/>
      <point x="378" y="131"/>
      <point x="298" y="99" type="qcurve"/>
      <point x="298" y="-256" type="line"/>
      <point x="128" y="-256" type="line"/>
      <point x="128" y="768" type="line" smooth="yes"/>
      <point x="128" y="912"/>
      <point x="240" y="1024"/>
    </contour>
    <contour>
      <point x="384" y="867" type="line" smooth="yes"/>
      <point x="344" y="867"/>
      <point x="298" y="814"/>
      <point x="298" y="768" type="qcurve" smooth="yes"/>
      <point x="298" y="256" type="line"/>
      <point x="359" y="283"/>
      <point x="470" y="342"/>
      <point x="594" y="430"/>
      <point x="683" y="523"/>
      <point x="742" y="646"/>
      <point x="742" y="710" type="qcurve" smooth="yes"/>
      <point x="742" y="783"/>
      <point x="651" y="867"/>
      <point x="572" y="867" type="qcurve" smooth="yes"/>
    </contour>
  </outline>
</glyph>
<glyph name="uni01C2" format="2">
  <advance width="1024" height="1024"/>
  <unicode hex="01C2"/>
  <outline>
    <contour>
      <point x="427" y="1437" type="line"/>
      <point x="597" y="1437" type="line"/>
      <point x="597" y="925" type="line"/>
      <point x="832" y="925" type="line"/>
      <point x="832" y="768" type="line"/>
      <point x="597" y="768" type="line"/>
      <point x="597" y="512" type="line"/>
      <point x="832" y="512" type="line"/>
      <point x="832" y="355" type="line"/>
      <point x="597" y="355" type="line"/>
      <point x="597" y="-256" type="line"/>
      <point x="427" y="-256" type="line"/>
      <point x="427" y="355" type="line"/>
      <point x="192" y="355" type="line"/>
      <point x="192" y="512" type="line"/>
      <point x="427" y="512" type="line"/>
      <point x="427" y="768" type="line"/>
      <point x="192" y="768" type="line"/>
      <point x="192" y="925" type="line"/>
      <point x="427" y="925" type="line"/>
    </contour>
  </outline>
</glyph>
<glyph name="uni01C8" format="2">
  <advance width="1024" height="1024"/>
  <unicode hex="01C8"/>
  <outline>
    <contour>
      <point x="736" y="1365" type="line"/>
      <point x="960" y="1365" type="line"/>
      <point x="960" y="1195" type="line"/>
      <point x="736" y="1195" type="line"/>
    </contour>
    <contour>
      <point x="64" y="1280" type="line"/>
      <point x="234" y="1280" type="line"/>
      <point x="234" y="157" type="line"/>
      <point x="512" y="157" type="line"/>
      <point x="512" y="0" type="line"/>
      <point x="64" y="0" type="line"/>
    </contour>
    <contour>
      <point x="512" y="925" type="line"/>
      <point x="960" y="925" type="line"/>
      <point x="960" y="143" type="line" smooth="yes"/>
      <point x="960" y="-74"/>
      <point x="785" y="-260"/>
      <point x="618" y="-260" type="qcurve" smooth="yes"/>
      <point x="589" y="-260"/>
      <point x="536" y="-256"/>
      <point x="524" y="-254" type="qcurve" smooth="yes"/>
      <point x="512" y="-252" type="line"/>
      <point x="512" y="-99" type="line"/>
      <point x="618" y="-99" type="line" smooth="yes"/>
      <point x="702" y="-99"/>
      <point x="790" y="12"/>
      <point x="790" y="143" type="qcurve" smooth="yes"/>
      <point x="790" y="768" type="line"/>
      <point x="512" y="768" type="line"/>
    </contour>
  </outline>
</glyph>
<glyph name="uni01C9" format="2">
  <advance width="1024" height="1024"/>
  <unicode hex="01C9"/>
  <outline>
    <contour>
      <point x="736" y="1365" type="line"/>
      <point x="960" y="1365" type="line"/>
      <point x="960" y="1195" type="line"/>
      <point x="736" y="1195" type="line"/>
    </contour>
    <contour>
      <point x="32" y="1280" type="line"/>
      <point x="341" y="1280" type="line"/>
      <point x="341" y="157" type="line"/>
      <point x="512" y="157" type="line"/>
      <point x="512" y="0" type="line"/>
      <point x="0" y="0" type="line"/>
      <point x="0" y="157" type="line"/>
      <point x="171" y="157" type="line"/>
      <point x="171" y="1123" type="line"/>
      <point x="32" y="1123" type="line"/>
    </contour>
    <contour>
      <point x="512" y="925" type="line"/>
      <point x="960" y="925" type="line"/>
      <point x="960" y="143" type="line" smooth="yes"/>
      <point x="960" y="-74"/>
      <point x="785" y="-260"/>
      <point x="618" y="-260" type="qcurve" smooth="yes"/>
      <point x="589" y="-260"/>
      <point x="536" y="-256"/>
      <point x="524" y="-254" type="qcurve" smooth="yes"/>
      <point x="512" y="-252" type="line"/>
      <point x="512" y="-99" type="line"/>
      <point x="618" y="-99" type="line" smooth="yes"/>
      <point x="702" y="-99"/>
      <point x="790" y="12"/>
      <point x="790" y="143" type="qcurve" smooth="yes"/>
      <point x="790" y="768" type="line"/>
      <point x="512" y="768" type="line"/>
    </contour>
  </outline>
</glyph>
<glyph name="uni01CB" format="2">
  <advance width="1024" height="1024"/>
  <unicode hex="01CB"/>
  <outline>
    <contour>
      <point x="736" y="1365" type="line"/>
      <point x="960" y="1365" type="line"/>
      <point x="960" y="1195" type="line"/>
      <point x="736" y="1195" type="line"/>
    </contour>
    <contour>
      <point x="32" y="1280" type="line"/>
      <point x="189" y="1280" type="line"/>
      <point x="419" y="768" type="line"/>
      <point x="419" y="1280" type="line"/>
      <point x="576" y="1280" type="line"/>
      <point x="576" y="0" type="line"/>
      <point x="419" y="0" type="line"/>
      <point x="419" y="456" type="line"/>
      <point x="189" y="968" type="line"/>
      <point x="189" y="0" type="line"/>
      <point x="32" y="0" type="line"/>
    </contour>
    <contour>
      <point x="640" y="925" type="line"/>
      <point x="960" y="925" type="line"/>
      <point x="960" y="143" type="line" smooth="yes"/>
      <point x="960" y="-74"/>
      <point x="788" y="-260"/>
      <point x="623" y="-260" type="qcurve" smooth="yes"/>
      <point x="592" y="-260"/>
      <point x="537" y="-256"/>
      <point x="524.5" y="-254" type="qcurve" smooth="yes"/>
      <point x="512" y="-252" type="line"/>
      <point x="512" y="-99" type="line"/>
      <point x="623" y="-99" type="line" smooth="yes"/>
      <point x="711" y="-99"/>
      <point x="803" y="12"/>
      <point x="803" y="143" type="qcurve" smooth="yes"/>
      <point x="803" y="768" type="line"/>
      <point x="640" y="768" type="line"/>
    </contour>
  </outline>
</glyph>
<glyph name="uni01F3" format="2">
  <advance width="1024" height="1024"/>
  <unicode hex="01F3"/>
  <outline>
    <contour>
      <point x="355" y="1280" type="line"/>
      <point x="512" y="1280" type="line"/>
      <point x="512" y="0" type="line"/>
      <point x="355" y="0" type="line" smooth="yes"/>
      <point x="201" y="0"/>
      <point x="24" y="261"/>
      <point x="24" y="488" type="qcurve" smooth="yes"/>
      <point x="24" y="736"/>
      <point x="201" y="1024"/>
      <point x="355" y="1024" type="qcurve"/>
    </contour>
    <contour>
      <point x="544" y="1024" type="line"/>
      <point x="992" y="1024" type="line"/>
      <point x="992" y="867" type="line"/>
      <point x="692" y="157" type="line"/>
      <point x="992" y="157" type="line"/>
      <point x="992" y="0" type="line"/>
      <point x="544" y="0" type="line"/>
      <point x="544" y="157" type="line"/>
      <point x="844" y="867" type="line"/>
      <point x="544" y="867" type="line"/>
    </contour>
    <contour>
      <point x="355" y="867" type="line"/>
      <point x="274" y="867"/>
      <point x="181" y="664"/>
      <point x="181" y="488" type="qcurve" smooth="yes"/>
      <point x="181" y="334"/>
      <point x="274" y="157"/>
      <point x="355" y="157" type="qcurve"/>
    </contour>
  </outline>
</glyph>
<glyph name="uni01F7" format="2">
  <advance width="1024" height="1024"/>
  <unicode hex="01F7"/>
  <outline>
    <contour>
      <point x="128" y="1280" type="line"/>
      <point x="592" y="1280" type="line" smooth="yes"/>
      <point x="755" y="1280"/>
      <point x="944" y="1092"/>
      <point x="944" y="928" type="qcurve" smooth="yes"/>
      <point x="944" y="826"/>
      <point x="853" y="635"/>
      <point x="720" y="496"/>
      <point x="535" y="368"/>
      <point x="381" y="290"/>
      <point x="298" y="256" type="qcurve"/>
      <point x="298" y="0" type="line"/>
      <point x="128" y="0" type="line"/>
    </contour>
    <contour>
      <point x="298" y="1123" type="line"/>
      <point x="298" y="413" type="line"/>
      <point x="363" y="442"/>
      <point x="481" y="508"/>
      <point x="614" y="608"/>
      <point x="710" y="714"/>
      <point x="774" y="855"/>
      <point x="774" y="928" type="qcurve" smooth="yes"/>
      <point x="774" y="1019"/>
      <point x="676" y="1123"/>
      <point x="592" y="1123" type="qcurve" smooth="yes"/>
    </contour>
  </outline>
</glyph>
<glyph name="uni021D" format="2">
  <advance width="1024" height="1024"/>
  <unicode hex="021D"/>
  <outline>
    <contour>
      <point x="512" y="1032" type="qcurve" smooth="yes"/>
      <point x="668" y="1032"/>
      <point x="848" y="849"/>
      <point x="848" y="691" type="qcurve" smooth="yes"/>
      <point x="848" y="531"/>
      <point x="739" y="426" type="qcurve"/>
      <point x="912" y="320"/>
      <point x="912" y="83" type="qcurve" smooth="yes"/>
      <point x="912" y="-66"/>
      <point x="770" y="-267"/>
      <point x="642" y="-301" type="qcurve" smooth="yes"/>
      <point x="192" y="-421" type="line"/>
      <point x="192" y="-256" type="line"/>
      <point x="580" y="-152" type="line" smooth="yes"/>
      <point x="656" y="-132"/>
      <point x="742" y="-6"/>
      <point x="742" y="83" type="qcurve" smooth="yes"/>
      <point x="742" y="189"/>
      <point x="620" y="324"/>
      <point x="517" y="326" type="qcurve"/>
      <point x="256" y="256" type="line"/>
      <point x="256" y="421" type="line"/>
      <point x="512" y="490" type="line" smooth="yes"/>
      <point x="519" y="492"/>
      <point x="541" y="499"/>
      <point x="598" y="530"/>
      <point x="642" y="571"/>
      <point x="678" y="646"/>
      <point x="678" y="691" type="qcurve" smooth="yes"/>
      <point x="678" y="777"/>
      <point x="589" y="875"/>
      <point x="512" y="875" type="qcurve" smooth="yes"/>
      <point x="415" y="875"/>
      <point x="239" y="836"/>
      <point x="199.5" y="816.5" type="qcurve" smooth="yes"/>
      <point x="160" y="797" type="line"/>
      <point x="160" y="954" type="line"/>
      <point x="165" y="957"/>
      <point x="186" y="968"/>
      <point x="256" y="995"/>
      <point x="332" y="1015"/>
      <point x="451" y="1032"/>
    </contour>
  </outline>
</glyph>
<glyph name="uni0220" format="2">
  <advance width="1024" height="1024"/>
  <unicode hex="0220"/>
  <outline>
    <contour>
      <point x="512" y="1296" type="qcurve" smooth="yes"/>
      <point x="716" y="1296"/>
      <point x="928" y="1120"/>
      <point x="928" y="914" type="qcurve" smooth="yes"/>
      <point x="928" y="-256" type="line"/>
      <point x="758" y="-256" type="line"/>
      <point x="758" y="914" type="line" smooth="yes"/>
      <point x="758" y="1035"/>
      <point x="633" y="1139"/>
      <point x="512" y="1139" type="qcurve" smooth="yes"/>
      <point x="444" y="1139"/>
      <point x="321" y="1117"/>
      <point x="293.5" y="1106" type="qcurve" smooth="yes"/>
      <point x="266" y="1095" type="line"/>
      <point x="266" y="0" type="line"/>
      <point x="96" y="0" type="line"/>
      <point x="96" y="1192" type="line"/>
      <point x="102" y="1196"/>
      <point x="127" y="1210"/>
      <point x="210" y="1246"/>
      <point x="300" y="1274"/>
      <point x="440" y="1296"/>
    </contour>
  </outline>
</glyph>
<glyph name="uni0223" format="2">
  <advance width="1024" height="1024"/>
  <unicode hex="0223"/>
  <outline>
    <contour>
      <point x="896" y="1280" type="line"/>
      <point x="912" y="1225"/>
      <point x="912" y="1136" type="qcurve" smooth="yes"/>
      <point x="912" y="1084"/>
      <point x="863" y="984"/>
      <point x="793" y="916"/>
      <point x="723" y="862"/>
      <point x="698.5" y="849" type="qcurve" smooth="yes"/>
      <point x="674" y="836" type="line"/>
      <point x="680" y="832"/>
      <point x="699" y="819"/>
      <point x="755" y="773"/>
      <point x="806" y="722"/>
      <point x="868" y="641"/>
      <point x="913" y="557"/>
      <point x="944" y="446"/>
      <point x="944" y="390" type="qcurve" smooth="yes"/>
      <point x="944" y="202"/>
      <point x="712" y="-16"/>
      <point x="312" y="-16"/>
      <point x="80" y="202"/>
      <point x="80" y="390" type="qcurve" smooth="yes"/>
      <point x="80" y="446"/>
      <point x="110" y="556"/>
      <point x="157" y="642"/>
      <point x="215" y="720"/>
      <point x="273" y="775"/>
      <point x="320" y="816"/>
      <point x="335" y="826" type="qcurve" smooth="yes"/>
      <point x="350" y="836" type="line"/>
      <point x="340" y="841"/>
      <point x="308" y="858"/>
      <point x="226" y="918"/>
      <point x="163" y="983"/>
      <point x="112" y="1084"/>
      <point x="112" y="1136" type="qcurve" smooth="yes"/>
      <point x="112" y="1176"/>
      <point x="120" y="1248"/>
      <point x="124" y="1264" type="qcurve" smooth="yes"/>
      <point x="128" y="1280" type="line"/>
      <point x="298" y="1280" type="line"/>
      <point x="282" y="1225"/>
      <point x="282" y="1136" type="qcurve" smooth="yes"/>
      <point x="282" y="1096"/>
      <point x="329" y="1019"/>
      <point x="397" y="966"/>
      <point x="465" y="924"/>
      <point x="488.5" y="914" type="qcurve" smooth="yes"/>
      <point x="512" y="904" type="line"/>
      <point x="521" y="908"/>
      <point x="552" y="921"/>
      <point x="632" y="967"/>
      <point x="692" y="1018"/>
      <point x="742" y="1096"/>
      <point x="742" y="1176"/>
      <point x="734" y="1248"/>
      <point x="730" y="1264" type="qcurve" smooth="yes"/>
      <point x="726" y="1280" type="line"/>
    </contour>
    <contour>
      <point x="512" y="768" type="line"/>
      <point x="501" y="762"/>
      <point x="466" y="740"/>
      <point x="376" y="665"/>
      <point x="307" y="583"/>
      <point x="250" y="456"/>
      <point x="250" y="390" type="qcurve" smooth="yes"/>
      <point x="250" y="282"/>
      <point x="391" y="157"/>
      <point x="633" y="157"/>
      <point x="774" y="282"/>
      <point x="774" y="390" type="qcurve" smooth="yes"/>
      <point x="774" y="456"/>
      <point x="720" y="582"/>
      <point x="643" y="668"/>
      <point x="566" y="736"/>
      <point x="539" y="752" type="qcurve" smooth="yes"/>
    </contour>
  </outline>
</glyph>
<glyph name="uni0224" format="2">
  <advance width="1024" height="1024"/>
  <unicode hex="0224"/>
  <outline>
    <contour>
      <point x="128" y="1280" type="line"/>
      <point x="896" y="1280" type="line"/>
      <point x="896" y="1123" type="line"/>
      <point x="283" y="157" type="line"/>
      <point x="960" y="157" type="line"/>
      <point x="960" y="0" type="line" smooth="yes"/>
      <point x="960" y="-128"/>
      <point x="931" y="-288"/>
      <point x="858" y="-385"/>
      <point x="751" y="-421"/>
      <point x="664" y="-421" type="qcurve" smooth="yes"/>
      <point x="643" y="-421"/>
      <point x="605" y="-413"/>
      <point x="596.5" y="-409" type="qcurve" smooth="yes"/>
      <point x="588" y="-405" type="line"/>
      <point x="588" y="-256" type="line"/>
      <point x="664" y="-256" type="line" smooth="yes"/>
      <point x="734" y="-256"/>
      <point x="790" y="-143"/>
      <point x="790" y="0" type="qcurve"/>
      <point x="96" y="0" type="line"/>
      <point x="96" y="157" type="line"/>
      <point x="709" y="1123" type="line"/>
      <point x="128" y="1123" type="line"/>
    </contour>
  </outline>
</glyph>
<glyph name="uni0234" format="2">
  <advance width="1024" height="1024"/>
  <unicode hex="0234"/>
  <outline>
    <contour>
      <point x="160" y="1280" type="line"/>
      <point x="597" y="1280" type="line"/>
      <point x="597" y="241" type="line"/>
      <point x="638" y="256"/>
      <point x="683" y="256" type="qcurve" smooth="yes"/>
      <point x="789" y="256"/>
      <point x="939" y="106"/>
      <point x="939" y="-106"/>
      <point x="789" y="-256"/>
      <point x="577" y="-256"/>
      <point x="427" y="-106"/>
      <point x="427" y="0" type="qcurve" smooth="yes"/>
      <point x="427" y="1123" type="line"/>
      <point x="160" y="1123" type="line"/>
    </contour>
    <contour>
      <point x="634" y="120"/>
      <point x="563" y="50"/>
      <point x="563" y="-50"/>
      <point x="634" y="-120"/>
      <point x="732" y="-120"/>
      <point x="803" y="-50"/>
      <point x="803" y="50"/>
      <point x="732" y="120"/>
    </contour>
  </outline>
</glyph>
<glyph name="uni0236" format="2">
  <advance width="1024" height="1024"/>
  <unicode hex="0236"/>
  <outline>
    <contour>
      <point x="342" y="1280" type="line"/>
      <point x="512" y="1280" type="line"/>
      <point x="512" y="925" type="line"/>
      <point x="928" y="925" type="line"/>
      <point x="928" y="768" type="line"/>
      <point x="512" y="768" type="line"/>
      <point x="512" y="241" type="line"/>
      <point x="554" y="256"/>
      <point x="598" y="256" type="qcurve" smooth="yes"/>
      <point x="704" y="256"/>
      <point x="854" y="106"/>
      <point x="854" y="-106"/>
      <point x="704" y="-256"/>
      <point x="492" y="-256"/>
      <point x="342" y="-106"/>
      <point x="342" y="0" type="qcurve" smooth="yes"/>
      <point x="342" y="768" type="line"/>
      <point x="64" y="768" type="line"/>
      <point x="64" y="925" type="line"/>
      <point x="342" y="925" type="line"/>
    </contour>
    <contour>
      <point x="548" y="120"/>
      <point x="478" y="50"/>
      <point x="478" y="-50"/>
      <point x="548" y="-120"/>
      <point x="648" y="-120"/>
      <point x="718" y="-50"/>
      <point x="718" y="50"/>
      <point x="648" y="120"/>
    </contour>
  </outline>
</glyph>
<glyph name="uni0237" format="2">
  <advance width="1024" height="1024"/>
  <unicode hex="0237"/>
  <outline>
    <contour>
      <point x="192" y="925" type="line"/>
      <point x="800" y="925" type="line"/>
      <point x="800" y="120" type="line" smooth="yes"/>
      <point x="800" y="-87"/>
      <point x="555" y="-264"/>
      <point x="320" y="-264" type="qcurve" smooth="yes"/>
      <point x="267" y="-264"/>
      <point x="171" y="-256"/>
      <point x="149.5" y="-252" type="qcurve" smooth="yes"/>
      <point x="128" y="-248" type="line"/>
      <point x="128" y="-99" type="line"/>
      <point x="320" y="-99" type="line" smooth="yes"/>
      <point x="472" y="-99"/>
      <point x="630" y="2"/>
      <point x="630" y="120" type="qcurve" smooth="yes"/>
      <point x="630" y="768" type="line"/>
      <point x="192" y="768" type="line"/>
    </contour>
  </outline>
</glyph>
<glyph name="uni0239" format="2">
  <advance width="1024" height="1024"/>
  <unicode hex="0239"/>
  <outline>
    <contour>
      <point x="597" y="-256" type="line"/>
      <point x="427" y="-256" type="line"/>
      <point x="427" y="256" type="line"/>
      <point x="323" y="256" type="line" smooth="yes"/>
      <point x="195" y="256"/>
      <point x="48" y="459"/>
      <point x="48" y="634" type="qcurve" smooth="yes"/>
      <point x="48" y="815"/>
      <point x="208" y="1024"/>
      <point x="347" y="1024" type="qcurve" smooth="yes"/>
      <point x="427" y="1024" type="line"/>
      <point x="597" y="1024" type="line"/>
      <point x="701" y="1024" type="line" smooth="yes"/>
      <point x="829" y="1024"/>
      <point x="976" y="821"/>
      <point x="976" y="646" type="qcurve" smooth="yes"/>
      <point x="976" y="465"/>
      <point x="816" y="256"/>
      <point x="677" y="256" type="qcurve" smooth="yes"/>
      <point x="597" y="256" type="line"/>
    </contour>
    <contour>
      <point x="677" y="413" type="line" smooth="yes"/>
      <point x="737" y="413"/>
      <point x="806" y="538"/>
      <point x="806" y="646" type="qcurve" smooth="yes"/>
      <point x="806" y="756"/>
      <point x="751" y="867"/>
      <point x="701" y="867" type="qcurve" smooth="yes"/>
      <point x="597" y="867" type="line"/>
      <point x="597" y="413" type="line"/>
    </contour>
    <contour>
      <point x="427" y="413" type="line"/>
      <point x="427" y="867" type="line"/>
      <point x="347" y="867" type="line" smooth="yes"/>
      <point x="287" y="867"/>
      <point x="218" y="742"/>
      <point x="218" y="634" type="qcurve" smooth="yes"/>
      <point x="218" y="537"/>
      <point x="275" y="413"/>
      <point x="323" y="413" type="qcurve" smooth="yes"/>
    </contour>
  </outline>
</glyph>
<glyph name="uni023B" format="2">
  <advance width="1024" height="1024"/>
  <unicode hex="023B"/>
  <outline>
    <contour>
      <point x="817" y="1408" type="line"/>
      <point x="960" y="1408" type="line"/>
      <point x="896" y="1278" type="line"/>
      <point x="896" y="1123" type="line"/>
      <point x="820" y="1123" type="line"/>
      <point x="396" y="255" type="line"/>
      <point x="486" y="157"/>
      <point x="665" y="157" type="qcurve" smooth="yes"/>
      <point x="896" y="157" type="line"/>
      <point x="896" y="8" type="line"/>
      <point x="808" y="-8"/>
      <point x="665" y="-8" type="qcurve" smooth="yes"/>
      <point x="442" y="-8"/>
      <point x="313" y="87" type="qcurve"/>
      <point x="207" y="-128" type="line"/>
      <point x="64" y="-128" type="line"/>
      <point x="218" y="186" type="line"/>
      <point x="112" y="343"/>
      <point x="112" y="640" type="qcurve" smooth="yes"/>
      <point x="112" y="940"/>
      <point x="409" y="1288"/>
      <point x="665" y="1288" type="qcurve" smooth="yes"/>
      <point x="703" y="1288"/>
      <point x="757" y="1286" type="qcurve"/>
    </contour>
    <contour>
      <point x="665" y="1123" type="line" smooth="yes"/>
      <point x="491" y="1123"/>
      <point x="290" y="864"/>
      <point x="290" y="640" type="qcurve" smooth="yes"/>
      <point x="290" y="496"/>
      <point x="321" y="395" type="qcurve"/>
      <point x="677" y="1123" type="line"/>
    </contour>
  </outline>
</glyph>
<glyph name="uni023E" format="2">
  <advance width="1024" height="1024"/>
  <unicode hex="023E"/>
  <outline>
    <contour>
      <point x="817" y="1408" type="line"/>
      <point x="960" y="1408" type="line"/>
      <point x="897" y="1280" type="line"/>
      <point x="960" y="1280" type="line"/>
      <point x="960" y="1123" type="line"/>
      <point x="820" y="1123" type="line"/>
      <point x="597" y="668" type="line"/>
      <point x="597" y="0" type="line"/>
      <point x="427" y="0" type="line"/>
      <point x="427" y="321" type="line"/>
      <point x="207" y="-128" type="line"/>
      <point x="64" y="-128" type="line"/>
      <point x="427" y="612" type="line"/>
      <point x="427" y="1123" type="line"/>
      <point x="64" y="1123" type="line"/>
      <point x="64" y="1280" type="line"/>
      <point x="754" y="1280" type="line"/>
    </contour>
    <contour>
      <point x="597" y="1123" type="line"/>
      <point x="597" y="959" type="line"/>
      <point x="677" y="1123" type="line"/>
    </contour>
  </outline>
</glyph>
<glyph name="uni0241" format="2">
  <advance width="1024" height="1024"/>
  <unicode hex="0241"/>
  <outline>
    <contour>
      <point x="128" y="1272" type="line"/>
      <point x="262" y="1288"/>
      <point x="427" y="1288" type="qcurve" smooth="yes"/>
      <point x="651" y="1288"/>
      <point x="912" y="1033"/>
      <point x="912" y="818" type="qcurve" smooth="yes"/>
      <point x="912" y="604"/>
      <point x="697" y="355"/>
      <point x="512" y="355" type="qcurve"/>
      <point x="512" y="0" type="line"/>
      <point x="342" y="0" type="line"/>
      <point x="342" y="512" type="line"/>
      <point x="512" y="512" type="line" smooth="yes"/>
      <point x="619" y="512"/>
      <point x="742" y="676"/>
      <point x="742" y="960"/>
      <point x="573" y="1123"/>
      <point x="427" y="1123" type="qcurve" smooth="yes"/>
      <point x="128" y="1123" type="line"/>
    </contour>
  </outline>
</glyph>
<glyph name="uni0244" format="2">
  <advance width="1024" height="1024"/>
  <unicode hex="0244"/>
  <outline>
    <contour>
      <point x="96" y="1280" type="line"/>
      <point x="266" y="1280" type="line"/>
      <point x="266" y="768" type="line"/>
      <point x="758" y="768" type="line"/>
      <point x="758" y="1280" type="line"/>
      <point x="928" y="1280" type="line"/>
      <point x="928" y="768" type="line"/>
      <point x="1024" y="768" type="line"/>
      <point x="1024" y="611" type="line"/>
      <point x="928" y="611" type="line"/>
      <point x="928" y="576" type="line" smooth="yes"/>
      <point x="928" y="406"/>
      <point x="886" y="185"/>
      <point x="787" y="43"/>
      <point x="631" y="-16"/>
      <point x="393" y="-16"/>
      <point x="237" y="43"/>
      <point x="138" y="185"/>
      <point x="96" y="406"/>
      <point x="96" y="576" type="qcurve" smooth="yes"/>
      <point x="96" y="611" type="line"/>
      <point x="0" y="611" type="line"/>
      <point x="0" y="768" type="line"/>
      <point x="96" y="768" type="line"/>
    </contour>
    <contour>
      <point x="266" y="611" type="line"/>
      <point x="266" y="576" type="line" smooth="yes"/>
      <point x="266" y="331"/>
      <point x="373" y="141"/>
      <point x="651" y="141"/>
      <point x="758" y="331"/>
      <point x="758" y="576" type="qcurve" smooth="yes"/>
      <point x="758" y="611" type="line"/>
    </contour>
  </outline>
</glyph>
<glyph name="uni0246" format="2">
  <advance width="1024" height="1024"/>
  <unicode hex="0246"/>
  <outline>
    <contour>
      <point x="817" y="1408" type="line"/>
      <point x="960" y="1408" type="line"/>
      <point x="896" y="1277" type="line"/>
      <point x="896" y="1123" type="line"/>
      <point x="820" y="1123" type="line"/>
      <point x="646" y="768" type="line"/>
      <point x="832" y="768" type="line"/>
      <point x="832" y="611" type="line"/>
      <point x="569" y="611" type="line"/>
      <point x="347" y="157" type="line"/>
      <point x="896" y="157" type="line"/>
      <point x="896" y="0" type="line"/>
      <point x="270" y="0" type="line"/>
      <point x="207" y="-128" type="line"/>
      <point x="64" y="-128" type="line"/>
      <point x="160" y="68" type="line"/>
      <point x="160" y="1280" type="line"/>
      <point x="754" y="1280" type="line"/>
    </contour>
    <contour>
      <point x="330" y="1123" type="line"/>
      <point x="330" y="768" type="line"/>
      <point x="503" y="768" type="line"/>
      <point x="677" y="1123" type="line"/>
    </contour>
    <contour>
      <point x="330" y="611" type="line"/>
      <point x="330" y="415" type="line"/>
      <point x="426" y="611" type="line"/>
    </contour>
  </outline>
</glyph>
<glyph name="uni0247" format="2">
  <advance width="1024" height="1024"/>
  <unicode hex="0247"/>
  <outline>
    <contour>
      <point x="812" y="1152" type="line"/>
      <point x="960" y="1152" type="line"/>
      <point x="823" y="917" type="line"/>
      <point x="912" y="817"/>
      <point x="912" y="660" type="qcurve" smooth="yes"/>
      <point x="912" y="591" type="line" smooth="yes"/>
      <point x="912" y="502"/>
      <point x="838" y="433"/>
      <point x="742" y="433" type="qcurve" smooth="yes"/>
      <point x="540" y="433" type="line"/>
      <point x="404" y="200" type="line"/>
      <point x="467" y="157"/>
      <point x="561" y="157" type="qcurve" smooth="yes"/>
      <point x="832" y="157" type="line"/>
      <point x="832" y="8" type="line"/>
      <point x="728" y="-8"/>
      <point x="561" y="-8" type="qcurve" smooth="yes"/>
      <point x="423" y="-8"/>
      <point x="320" y="57" type="qcurve"/>
      <point x="212" y="-128" type="line"/>
      <point x="64" y="-128" type="line"/>
      <point x="223" y="144" type="line"/>
      <point x="112" y="283"/>
      <point x="112" y="512" type="qcurve" smooth="yes"/>
      <point x="112" y="755"/>
      <point x="330" y="1040"/>
      <point x="512" y="1040" type="qcurve" smooth="yes"/>
      <point x="630" y="1040"/>
      <point x="720" y="995" type="qcurve"/>
    </contour>
    <contour>
      <point x="512" y="883" type="qcurve" smooth="yes"/>
      <point x="467" y="883"/>
      <point x="393" y="851"/>
      <point x="348" y="799"/>
      <point x="315" y="737"/>
      <point x="300" y="675"/>
      <point x="291" y="623"/>
      <point x="290.5" y="607" type="qcurve" smooth="yes"/>
      <point x="290" y="591" type="line"/>
      <point x="484" y="591" type="line"/>
      <point x="638" y="854" type="line"/>
      <point x="585" y="883"/>
    </contour>
    <contour>
      <point x="726" y="752" type="qcurve"/>
      <point x="632" y="591" type="line"/>
      <point x="742" y="591" type="line"/>
      <point x="742" y="660" type="line" smooth="yes"/>
      <point x="742" y="710"/>
    </contour>
    <contour>
      <point x="290" y="433" type="line"/>
      <point x="290" y="372"/>
      <point x="318" y="307" type="qcurve"/>
      <point x="392" y="433" type="line"/>
    </contour>
  </outline>
</glyph>
<glyph name="uni024A" format="2">
  <advance width="1024" height="1024"/>
  <unicode hex="024A"/>
  <outline>
    <contour>
      <point x="448" y="1280" type="qcurve" smooth="yes"/>
      <point x="576" y="1280" type="line" smooth="yes"/>
      <point x="720" y="1280"/>
      <point x="832" y="1168"/>
      <point x="832" y="1024" type="qcurve" smooth="yes"/>
      <point x="832" y="157" type="line" smooth="yes"/>
      <point x="832" y="19"/>
      <point x="892" y="-99"/>
      <point x="951" y="-99" type="qcurve" smooth="yes"/>
      <point x="1024" y="-99" type="line"/>
      <point x="1024" y="-248" type="line"/>
      <point x="994" y="-264"/>
      <point x="951" y="-264" type="qcurve" smooth="yes"/>
      <point x="809" y="-264"/>
      <point x="662" y="-70"/>
      <point x="662" y="157" type="qcurve" smooth="yes"/>
      <point x="662" y="264" type="line"/>
      <point x="580" y="248"/>
      <point x="448" y="248" type="qcurve" smooth="yes"/>
      <point x="248" y="248"/>
      <point x="16" y="514"/>
      <point x="16" y="744" type="qcurve" smooth="yes"/>
      <point x="16" y="992"/>
      <point x="248" y="1280"/>
    </contour>
    <contour>
      <point x="448" y="1123" type="line" smooth="yes"/>
      <point x="327" y="1123"/>
      <point x="186" y="920"/>
      <point x="186" y="744" type="qcurve" smooth="yes"/>
      <point x="186" y="590"/>
      <point x="326" y="413"/>
      <point x="448" y="413" type="qcurve" smooth="yes"/>
      <point x="662" y="413" type="line"/>
      <point x="662" y="1024" type="line" smooth="yes"/>
      <point x="662" y="1070"/>
      <point x="616" y="1123"/>
      <point x="576" y="1123" type="qcurve" smooth="yes"/>
    </contour>
  </outline>
</glyph>
<glyph name="uni024E" format="2">
  <advance width="1024" height="1024"/>
  <unicode hex="024E"/>
  <outline>
    <contour>
      <point x="32" y="1280" type="line"/>
      <point x="223" y="1280" type="line"/>
      <point x="311" y="1103" type="line"/>
      <point x="713" y="1103" type="line"/>
      <point x="801" y="1280" type="line"/>
      <point x="992" y="1280" type="line"/>
      <point x="901" y="1103" type="line"/>
      <point x="1024" y="1103" type="line"/>
      <point x="1024" y="945" type="line"/>
      <point x="820" y="945" type="line"/>
      <point x="597" y="512" type="line"/>
      <point x="597" y="0" type="line"/>
      <point x="427" y="0" type="line"/>
      <point x="427" y="512" type="line"/>
      <point x="204" y="945" type="line"/>
      <point x="0" y="945" type="line"/>
      <point x="0" y="1103" type="line"/>
      <point x="123" y="1103" type="line"/>
    </contour>
    <contour>
      <point x="390" y="945" type="line"/>
      <point x="512" y="700" type="line"/>
      <point x="634" y="945" type="line"/>
    </contour>
  </outline>
</glyph>
<glyph name="uni0256" format="2">
  <advance width="1024" height="1024"/>
  <unicode hex="0256"/>
  <outline>
    <contour>
      <point x="662" y="1280" type="line"/>
      <point x="832" y="1280" type="line"/>
      <point x="832" y="0" type="line" smooth="yes"/>
      <point x="832" y="-53"/>
      <point x="893" y="-99"/>
      <point x="951" y="-99" type="qcurve" smooth="yes"/>
      <point x="1024" y="-99" type="line"/>
      <point x="1024" y="-248" type="line"/>
      <point x="994" y="-264"/>
      <point x="951" y="-264" type="qcurve" smooth="yes"/>
      <point x="809" y="-264"/>
      <point x="662" y="-142"/>
      <point x="662" y="0" type="qcurve"/>
      <point x="492" y="0" type="line" smooth="yes"/>
      <point x="286" y="0"/>
      <point x="48" y="262"/>
      <point x="48" y="488" type="qcurve" smooth="yes"/>
      <point x="48" y="736"/>
      <point x="263" y="1024"/>
      <point x="448" y="1024" type="qcurve" smooth="yes"/>
      <point x="557" y="1024"/>
      <point x="662" y="979" type="qcurve"/>
    </contour>
    <contour>
      <point x="448" y="867" type="qcurve" smooth="yes"/>
      <point x="341" y="867"/>
      <point x="218" y="663"/>
      <point x="218" y="488" type="qcurve" smooth="yes"/>
      <point x="218" y="334"/>
      <point x="365" y="157"/>
      <point x="492" y="157" type="qcurve" smooth="yes"/>
      <point x="662" y="157" type="line"/>
      <point x="662" y="814" type="line"/>
      <point x="558" y="867"/>
    </contour>
  </outline>
</glyph>
<glyph name="uni0257" format="2">
  <advance width="1024" height="1024"/>
  <unicode hex="0257"/>
  <outline>
    <contour>
      <point x="951" y="1284" type="qcurve" smooth="yes"/>
      <point x="970" y="1284"/>
      <point x="1007" y="1280"/>
      <point x="1015.5" y="1278" type="qcurve" smooth="yes"/>
      <point x="1024" y="1276" type="line"/>
      <point x="1024" y="1123" type="line"/>
      <point x="951" y="1123" type="line" smooth="yes"/>
      <point x="896" y="1123"/>
      <point x="832" y="1070"/>
      <point x="832" y="1024" type="qcurve" smooth="yes"/>
      <point x="832" y="256" type="line" smooth="yes"/>
      <point x="832" y="112"/>
      <point x="720" y="0"/>
      <point x="576" y="0" type="qcurve" smooth="yes"/>
      <point x="492" y="0" type="line" smooth="yes"/>
      <point x="286" y="0"/>
      <point x="48" y="262"/>
      <point x="48" y="488" type="qcurve" smooth="yes"/>
      <point x="48" y="736"/>
      <point x="263" y="1024"/>
      <point x="448" y="1024" type="qcurve" smooth="yes"/>
      <point x="557" y="1024"/>
      <point x="662" y="979" type="qcurve"/>
      <point x="662" y="1024" type="line" smooth="yes"/>
      <point x="662" y="1145"/>
      <point x="817" y="1284"/>
    </contour>
    <contour>
      <point x="448" y="867" type="qcurve" smooth="yes"/>
      <point x="341" y="867"/>
      <point x="218" y="663"/>
      <point x="218" y="488" type="qcurve" smooth="yes"/>
      <point x="218" y="334"/>
      <point x="365" y="157"/>
      <point x="492" y="157" type="qcurve" smooth="yes"/>
      <point x="576" y="157" type="line" smooth="yes"/>
      <point x="616" y="157"/>
      <point x="662" y="210"/>
      <point x="662" y="256" type="qcurve" smooth="yes"/>
      <point x="662" y="814" type="line"/>
      <point x="558" y="867"/>
    </contour>
  </outline>
</glyph>
<glyph name="uni0258" format="2">
  <advance width="1024" height="1024"/>
  <unicode hex="0258"/>
  <outline>
    <contour>
      <point x="414" y="-8" type="qcurve" smooth="yes"/>
      <point x="353" y="-8"/>
      <point x="242" y="-0"/>
      <point x="217" y="4" type="qcurve" smooth="yes"/>
      <point x="192" y="8" type="line"/>
      <point x="192" y="157" type="line"/>
      <point x="414" y="157" type="line" smooth="yes"/>
      <point x="486" y="157"/>
      <point x="602" y="187"/>
      <point x="674" y="236"/>
      <point x="726" y="295"/>
      <point x="751" y="354"/>
      <point x="764" y="403"/>
      <point x="765" y="418" type="qcurve" smooth="yes"/>
      <point x="766" y="433" type="line"/>
      <point x="104" y="433" type="line"/>
      <point x="88" y="536"/>
      <point x="88" y="702" type="qcurve" smooth="yes"/>
      <point x="88" y="859"/>
      <point x="313" y="1040"/>
      <point x="512" y="1040" type="qcurve" smooth="yes"/>
      <point x="712" y="1040"/>
      <point x="944" y="757"/>
      <point x="944" y="512" type="qcurve" smooth="yes"/>
      <point x="944" y="271"/>
      <point x="660" y="-8"/>
    </contour>
    <contour>
      <point x="258" y="591" type="line"/>
      <point x="766" y="591" type="line"/>
      <point x="766" y="597"/>
      <point x="765" y="618"/>
      <point x="755" y="679"/>
      <point x="737" y="734"/>
      <point x="699" y="801"/>
      <point x="648" y="850"/>
      <point x="564" y="883"/>
      <point x="512" y="883" type="qcurve" smooth="yes"/>
      <point x="394" y="883"/>
      <point x="258" y="786"/>
      <point x="258" y="702" type="qcurve" smooth="yes"/>
    </contour>
  </outline>
</glyph>
<glyph name="uni025C" format="2">
  <advance width="1024" height="1024"/>
  <unicode hex="025C"/>
  <outline>
    <contour>
      <point x="160" y="1016" type="line"/>
      <point x="265" y="1032"/>
      <point x="435" y="1032" type="qcurve" smooth="yes"/>
      <point x="653" y="1032"/>
      <point x="880" y="892"/>
      <point x="880" y="729" type="qcurve" smooth="yes"/>
      <point x="880" y="680"/>
      <point x="848" y="600"/>
      <point x="803" y="554"/>
      <point x="758" y="523"/>
      <point x="742" y="517.5" type="qcurve" smooth="yes"/>
      <point x="726" y="512" type="line" smooth="yes"/>
      <point x="730" y="511"/>
      <point x="743" y="507"/>
      <point x="782" y="491"/>
      <point x="817" y="471"/>
      <point x="860" y="435"/>
      <point x="891" y="393"/>
      <point x="912" y="331"/>
      <point x="912" y="295" type="qcurve" smooth="yes"/>
      <point x="912" y="132"/>
      <point x="669" y="-8"/>
      <point x="435" y="-8" type="qcurve" smooth="yes"/>
      <point x="351" y="-8"/>
      <point x="197" y="-0"/>
      <point x="162.5" y="4" type="qcurve" smooth="yes"/>
      <point x="128" y="8" type="line"/>
      <point x="128" y="157" type="line"/>
      <point x="435" y="157" type="line" smooth="yes"/>
      <point x="586" y="157"/>
      <point x="742" y="220"/>
      <point x="742" y="370"/>
      <point x="625" y="433"/>
      <point x="512" y="433" type="qcurve" smooth="yes"/>
      <point x="256" y="433" type="line"/>
      <point x="256" y="591" type="line"/>
      <point x="512" y="591" type="line" smooth="yes"/>
      <point x="609" y="591"/>
      <point x="710" y="654"/>
      <point x="710" y="804"/>
      <point x="570" y="867"/>
      <point x="435" y="867" type="qcurve" smooth="yes"/>
      <point x="160" y="867" type="line"/>
    </contour>
  </outline>
</glyph>
<glyph name="uni025D" format="2">
  <advance width="1024" height="1024"/>
  <unicode hex="025D"/>
  <outline>
    <contour>
      <point x="296" y="1032" type="qcurve" smooth="yes"/>
      <point x="477" y="1032"/>
      <point x="666" y="892"/>
      <point x="666" y="729" type="qcurve" smooth="yes"/>
      <point x="666" y="653"/>
      <point x="629" y="599" type="qcurve"/>
      <point x="896" y="599" type="line"/>
      <point x="896" y="441" type="line" smooth="yes"/>
      <point x="896" y="428"/>
      <point x="903" y="409"/>
      <point x="922" y="398"/>
      <point x="938" y="391"/>
      <point x="975" y="389"/>
      <point x="999" y="388"/>
      <point x="1024" y="388" type="qcurve"/>
      <point x="1024" y="260" type="line"/>
      <point x="985" y="252"/>
      <point x="923" y="252" type="qcurve" smooth="yes"/>
      <point x="847" y="252"/>
      <point x="760" y="353"/>
      <point x="760" y="441" type="qcurve"/>
      <point x="638" y="441" type="line"/>
      <point x="698" y="381"/>
      <point x="698" y="295" type="qcurve" smooth="yes"/>
      <point x="698" y="132"/>
      <point x="493" y="-8"/>
      <point x="296" y="-8" type="qcurve" smooth="yes"/>
      <point x="232" y="-8"/>
      <point x="116" y="-0"/>
      <point x="90" y="4" type="qcurve" smooth="yes"/>
      <point x="64" y="8" type="line"/>
      <point x="64" y="157" type="line"/>
      <point x="296" y="157" type="line" smooth="yes"/>
      <point x="410" y="157"/>
      <point x="528" y="220"/>
      <point x="528" y="370"/>
      <point x="422" y="433"/>
      <point x="320" y="433" type="qcurve" smooth="yes"/>
      <point x="160" y="433" type="line"/>
      <point x="160" y="591" type="line"/>
      <point x="320" y="591" type="line" smooth="yes"/>
      <point x="406" y="591"/>
      <point x="496" y="654"/>
      <point x="496" y="804"/>
      <point x="394" y="867"/>
      <point x="296" y="867" type="qcurve" smooth="yes"/>
      <point x="96" y="867" type="line"/>
      <point x="96" y="1016" type="line"/>
      <point x="172" y="1032"/>
    </contour>
  </outline>
</glyph>
<glyph name="uni025E" format="2">
  <advance width="1024" height="1024"/>
  <unicode hex="025E"/>
  <outline>
    <contour>
      <point x="554" y="1032" type="qcurve" smooth="yes"/>
      <point x="729" y="1032"/>
      <point x="912" y="892"/>
      <point x="912" y="729" type="qcurve" smooth="yes"/>
      <point x="912" y="680"/>
      <point x="880" y="600"/>
      <point x="835" y="554"/>
      <point x="790" y="523"/>
      <point x="774" y="517.5" type="qcurve" smooth="yes"/>
      <point x="758" y="512" type="line" smooth="yes"/>
      <point x="762" y="511"/>
      <point x="775" y="507"/>
      <point x="814" y="491"/>
      <point x="849" y="471"/>
      <point x="892" y="435"/>
      <point x="923" y="393"/>
      <point x="944" y="331"/>
      <point x="944" y="295" type="qcurve" smooth="yes"/>
      <point x="944" y="132"/>
      <point x="755" y="-8"/>
      <point x="574" y="-8" type="qcurve" smooth="yes"/>
      <point x="345" y="-8"/>
      <point x="80" y="271"/>
      <point x="80" y="512" type="qcurve" smooth="yes"/>
      <point x="80" y="630"/>
      <point x="155" y="827"/>
      <point x="283" y="959"/>
      <point x="456" y="1032"/>
    </contour>
    <contour>
      <point x="554" y="867" type="qcurve" smooth="yes"/>
      <point x="413" y="867"/>
      <point x="250" y="676"/>
      <point x="250" y="512" type="qcurve" smooth="yes"/>
      <point x="250" y="344"/>
      <point x="413" y="157"/>
      <point x="574" y="157" type="qcurve" smooth="yes"/>
      <point x="672" y="157"/>
      <point x="774" y="220"/>
      <point x="774" y="370"/>
      <point x="657" y="433"/>
      <point x="544" y="433" type="qcurve" smooth="yes"/>
      <point x="512" y="433" type="line"/>
      <point x="512" y="591" type="line"/>
      <point x="544" y="591" type="line" smooth="yes"/>
      <point x="641" y="591"/>
      <point x="742" y="654"/>
      <point x="742" y="804"/>
      <point x="646" y="867"/>
    </contour>
  </outline>
</glyph>
